<svg version="1.1" xmlns="http://www.w3.org/2000/svg" xmlns:xlink="http://www.w3.org/1999/xlink" width="818.2692260742188" height="588" viewBox=" -7.058823585510254 4.705882549285889 818.2692260742188 588"><defs><style type="text/css" xmlns="http://www.w3.org/1999/xhtml"><![CDATA[.blocklySvg {background-color: #fff;outline: none;overflow: hidden;position: absolute;display: block;}.blocklyWidgetDiv {display: none;position: absolute;z-index: 99999;}.injectionDiv {height: 100%;position: relative;overflow: hidden;}.blocklyNonSelectable {user-select: none;-moz-user-select: none;-webkit-user-select: none;-ms-user-select: none;}.blocklyWsDragSurface {display: none;position: absolute;overflow: visible;top: 0;left: 0;}.blocklyBlockDragSurface {display: none;position: absolute;top: 0;left: 0;right: 0;bottom: 0;overflow: visible !important;z-index: 50;}.blocklyTooltipDiv {background-color: #ffffc7;border: 1px solid #ddc;box-shadow: 4px 4px 20px 1px rgba(0,0,0,.15);color: #000;display: none;font-family: sans-serif;font-size: 9pt;opacity: 0.9;padding: 2px;position: absolute;z-index: 100000;}.blocklyResizeSE {cursor: se-resize;fill: #aaa;}.blocklyResizeSW {cursor: sw-resize;fill: #aaa;}.blocklyResizeLine {stroke: #888;stroke-width: 1;}.blocklyHighlightedConnectionPath {fill: none;stroke: #fc3;stroke-width: 4px;}.blocklyPathLight {fill: none;stroke-linecap: round;stroke-width: 1;}.blocklySelected>.blocklyPath {stroke: #fc3;stroke-width: 3px;}.blocklySelected>.blocklyPathLight {display: none;}.blocklyDraggable {cursor: url("<<<PATH>>>/handopen.cur"), auto;cursor: grab;cursor: -webkit-grab;cursor: -moz-grab;}.blocklyDragging {cursor: url("<<<PATH>>>/handclosed.cur"), auto;cursor: grabbing;cursor: -webkit-grabbing;cursor: -moz-grabbing;}.blocklyDraggable:active {cursor: url("<<<PATH>>>/handclosed.cur"), auto;cursor: grabbing;cursor: -webkit-grabbing;cursor: -moz-grabbing;}.blocklyBlockDragSurface .blocklyDraggable {cursor: url("<<<PATH>>>/handclosed.cur"), auto;cursor: grabbing;cursor: -webkit-grabbing;cursor: -moz-grabbing;}.blocklyDragging.blocklyDraggingDelete {cursor: url("<<<PATH>>>/handdelete.cur"), auto;}.blocklyToolboxDelete {cursor: url("<<<PATH>>>/handdelete.cur"), auto;}.blocklyDragging>.blocklyPath,.blocklyDragging>.blocklyPathLight {fill-opacity: .8;stroke-opacity: .8;}.blocklyDragging>.blocklyPathDark {display: none;}.blocklyDisabled>.blocklyPath {fill-opacity: .5;stroke-opacity: .5;}.blocklyDisabled>.blocklyPathLight,.blocklyDisabled>.blocklyPathDark {display: none;}.blocklyText {cursor: default;fill: #fff;font-family: sans-serif;font-size: 11pt;}.blocklyNonEditableText>text {pointer-events: none;}.blocklyNonEditableText>rect,.blocklyEditableText>rect {fill: #fff;fill-opacity: .6;}.blocklyNonEditableText>text,.blocklyEditableText>text {fill: #000;}.blocklyEditableText:hover>rect {stroke: #fff;stroke-width: 2;}.blocklyBubbleText {fill: #000;}.blocklyFlyout {position: absolute;z-index: 20;}.blocklyFlyoutButton {fill: #888;cursor: default;}.blocklyFlyoutButtonShadow {fill: #666;}.blocklyFlyoutButton:hover {fill: #aaa;}.blocklyFlyoutLabel {cursor: default;}.blocklyFlyoutLabelBackground {opacity: 0;}.blocklyFlyoutLabelText {fill: #000;}.blocklySvg text, .blocklyBlockDragSurface text {user-select: none;-moz-user-select: none;-webkit-user-select: none;cursor: inherit;}.blocklyHidden {display: none;}.blocklyFieldDropdown:not(.blocklyHidden) {display: block;}.blocklyIconGroup {cursor: default;}.blocklyIconGroup:not(:hover),.blocklyIconGroupReadonly {opacity: .6;}.blocklyIconShape {fill: #00f;stroke: #fff;stroke-width: 1px;}.blocklyIconSymbol {fill: #fff;}.blocklyMinimalBody {margin: 0;padding: 0;}.blocklyCommentTextarea {background-color: #ffc;border: 0;margin: 0;padding: 2px;resize: none;}.blocklyHtmlInput {border: none;border-radius: 4px;font-family: sans-serif;height: 100%;margin: 0;outline: none;padding: 0 1px;width: 100%}.blocklyMainBackground {stroke-width: 1;stroke: #c6c6c6;}.blocklyMutatorBackground {fill: #fff;stroke: #ddd;stroke-width: 1;}.blocklyFlyoutBackground {fill: #ddd;fill-opacity: .8;}.blocklyMainWorkspaceScrollbar {z-index: 20;}.blocklyFlyoutScrollbar {z-index: 30;}.blocklyScrollbarHorizontal, .blocklyScrollbarVertical {position: absolute;outline: none;}.blocklyScrollbarBackground {opacity: 0;}.blocklyScrollbarHandle {fill: #ccc;}.blocklyScrollbarBackground:hover+.blocklyScrollbarHandle,.blocklyScrollbarHandle:hover {fill: #bbb;}.blocklyZoom>image {opacity: .4;}.blocklyZoom>image:hover {opacity: .6;}.blocklyZoom>image:active {opacity: .8;}.blocklyFlyout .blocklyScrollbarHandle {fill: #bbb;}.blocklyFlyout .blocklyScrollbarBackground:hover+.blocklyScrollbarHandle,.blocklyFlyout .blocklyScrollbarHandle:hover {fill: #aaa;}.blocklyInvalidInput {background: #faa;}.blocklyAngleCircle {stroke: #444;stroke-width: 1;fill: #ddd;fill-opacity: .8;}.blocklyAngleMarks {stroke: #444;stroke-width: 1;}.blocklyAngleGauge {fill: #f88;fill-opacity: .8;}.blocklyAngleLine {stroke: #f00;stroke-width: 2;stroke-linecap: round;pointer-events: none;}.blocklyContextMenu {border-radius: 4px;}.blocklyDropdownMenu {padding: 0 !important;}.blocklyWidgetDiv .goog-option-selected .goog-menuitem-checkbox,.blocklyWidgetDiv .goog-option-selected .goog-menuitem-icon {background: url(<<<PATH>>>/sprites.png) no-repeat -48px -16px !important;}.blocklyToolboxDiv {background-color: #ddd;overflow-x: visible;overflow-y: auto;position: absolute;z-index: 70;}.blocklyTreeRoot {padding: 4px 0;}.blocklyTreeRoot:focus {outline: none;}.blocklyTreeRow {height: 22px;line-height: 22px;margin-bottom: 3px;padding-right: 8px;white-space: nowrap;}.blocklyHorizontalTree {float: left;margin: 1px 5px 8px 0;}.blocklyHorizontalTreeRtl {float: right;margin: 1px 0 8px 5px;}.blocklyToolboxDiv[dir="RTL"] .blocklyTreeRow {margin-left: 8px;}.blocklyTreeRow:not(.blocklyTreeSelected):hover {background-color: #e4e4e4;}.blocklyTreeSeparator {border-bottom: solid #e5e5e5 1px;height: 0;margin: 5px 0;}.blocklyTreeSeparatorHorizontal {border-right: solid #e5e5e5 1px;width: 0;padding: 5px 0;margin: 0 5px;}.blocklyTreeIcon {background-image: url(<<<PATH>>>/sprites.png);height: 16px;vertical-align: middle;width: 16px;}.blocklyTreeIconClosedLtr {background-position: -32px -1px;}.blocklyTreeIconClosedRtl {background-position: 0px -1px;}.blocklyTreeIconOpen {background-position: -16px -1px;}.blocklyTreeSelected>.blocklyTreeIconClosedLtr {background-position: -32px -17px;}.blocklyTreeSelected>.blocklyTreeIconClosedRtl {background-position: 0px -17px;}.blocklyTreeSelected>.blocklyTreeIconOpen {background-position: -16px -17px;}.blocklyTreeIconNone,.blocklyTreeSelected>.blocklyTreeIconNone {background-position: -48px -1px;}.blocklyTreeLabel {cursor: default;font-family: sans-serif;font-size: 16px;padding: 0 3px;vertical-align: middle;}.blocklyTreeSelected .blocklyTreeLabel {color: #fff;}.blocklyWidgetDiv .goog-palette {outline: none;cursor: default;}.blocklyWidgetDiv .goog-palette-table {border: 1px solid #666;border-collapse: collapse;}.blocklyWidgetDiv .goog-palette-cell {height: 13px;width: 15px;margin: 0;border: 0;text-align: center;vertical-align: middle;border-right: 1px solid #666;font-size: 1px;}.blocklyWidgetDiv .goog-palette-colorswatch {position: relative;height: 13px;width: 15px;border: 1px solid #666;}.blocklyWidgetDiv .goog-palette-cell-hover .goog-palette-colorswatch {border: 1px solid #FFF;}.blocklyWidgetDiv .goog-palette-cell-selected .goog-palette-colorswatch {border: 1px solid #000;color: #fff;}.blocklyWidgetDiv .goog-menu {background: #fff;border-color: #ccc #666 #666 #ccc;border-style: solid;border-width: 1px;cursor: default;font: normal 13px Arial, sans-serif;margin: 0;outline: none;padding: 4px 0;position: absolute;overflow-y: auto;overflow-x: hidden;max-height: 100%;z-index: 20000;}.blocklyWidgetDiv .goog-menuitem {color: #000;font: normal 13px Arial, sans-serif;list-style: none;margin: 0;padding: 4px 7em 4px 28px;white-space: nowrap;}.blocklyWidgetDiv .goog-menuitem.goog-menuitem-rtl {padding-left: 7em;padding-right: 28px;}.blocklyWidgetDiv .goog-menu-nocheckbox .goog-menuitem,.blocklyWidgetDiv .goog-menu-noicon .goog-menuitem {padding-left: 12px;}.blocklyWidgetDiv .goog-menu-noaccel .goog-menuitem {padding-right: 20px;}.blocklyWidgetDiv .goog-menuitem-content {color: #000;font: normal 13px Arial, sans-serif;}.blocklyWidgetDiv .goog-menuitem-disabled .goog-menuitem-accel,.blocklyWidgetDiv .goog-menuitem-disabled .goog-menuitem-content {color: #ccc !important;}.blocklyWidgetDiv .goog-menuitem-disabled .goog-menuitem-icon {opacity: 0.3;-moz-opacity: 0.3;filter: alpha(opacity=30);}.blocklyWidgetDiv .goog-menuitem-highlight,.blocklyWidgetDiv .goog-menuitem-hover {background-color: #d6e9f8;border-color: #d6e9f8;border-style: dotted;border-width: 1px 0;padding-bottom: 3px;padding-top: 3px;}.blocklyWidgetDiv .goog-menuitem-checkbox,.blocklyWidgetDiv .goog-menuitem-icon {background-repeat: no-repeat;height: 16px;left: 6px;position: absolute;right: auto;vertical-align: middle;width: 16px;}.blocklyWidgetDiv .goog-menuitem-rtl .goog-menuitem-checkbox,.blocklyWidgetDiv .goog-menuitem-rtl .goog-menuitem-icon {left: auto;right: 6px;}.blocklyWidgetDiv .goog-option-selected .goog-menuitem-checkbox,.blocklyWidgetDiv .goog-option-selected .goog-menuitem-icon {background: url(//ssl.gstatic.com/editor/editortoolbar.png) no-repeat -512px 0;}.blocklyWidgetDiv .goog-menuitem-accel {color: #999;direction: ltr;left: auto;padding: 0 6px;position: absolute;right: 0;text-align: right;}.blocklyWidgetDiv .goog-menuitem-rtl .goog-menuitem-accel {left: 0;right: auto;text-align: left;}.blocklyWidgetDiv .goog-menuitem-mnemonic-hint {text-decoration: underline;}.blocklyWidgetDiv .goog-menuitem-mnemonic-separator {color: #999;font-size: 12px;padding-left: 4px;}.blocklyWidgetDiv .goog-menuseparator {border-top: 1px solid #ccc;margin: 4px 0;padding: 0;}]]></style></defs>"><g xmlns="http://www.w3.org/2000/svg" class="blocklyBlockCanvas"><g class="blocklyDraggable" transform="translate(-7.0588235294117645,7.0588235294117645)"><path class="blocklyPathDark" transform="translate(1,1)" fill="#35847e" d="m 0,8 A 8,8 0 0,1 8,0 H 285.45724296569824 v 25 v 25 v 25 H 50 l -6,4 -3,0 -6,-4 h -7 a 8,8 0 0,0 -8,8 v 256 a 8,8 0 0,0 8,8 H 285.45724296569824 v 10 H 8 a 8,8 0 0,1 -8,-8 z&#10;"/><path class="blocklyPath" fill="#42a59d" d="m 0,8 A 8,8 0 0,1 8,0 H 285.45724296569824 v 25 v 25 v 25 H 50 l -6,4 -3,0 -6,-4 h -7 a 8,8 0 0,0 -8,8 v 256 a 8,8 0 0,0 8,8 H 285.45724296569824 v 10 H 8 a 8,8 0 0,1 -8,-8 z&#10;"/><path class="blocklyPathLight" stroke="#7bc0ba" d="m 0.5,7.5 A 7.5,7.5 0 0,1 8,0.5 H 284.95724296569824 M 284.95724296569824,0.5 M 284.95724296569824,25.5 M 284.95724296569824,50.5 M 284.95724296569824,75.5 M 21.989592359914347,345.01040764008565 a 8.5,8.5 0 0,0 6.0104076400856545,2.4895923599143455 H 284.95724296569824 M 2.6966991411008934,354.3033008588991 A 7.5,7.5 0 0,1 0.5,349 V 8&#10;"/><g class="blocklyDraggable" transform="translate(21,76)"><path class="blocklyPathDark" transform="translate(1,1)" fill="#35844f" d="m 0,8 A 8,8 0 0,1 8,0 H 15 l 6,4 3,0 6,-4 H 170.16634941101074 v 5 c 0,10 -8,-8 -8,7.5 s 8,-2.5 8,7.5 v 5 H 29.5 l -6,4 -3,0 -6,-4 H 0 z&#10;"/><path class="blocklyPath" fill="#42a563" d="m 0,8 A 8,8 0 0,1 8,0 H 15 l 6,4 3,0 6,-4 H 170.16634941101074 v 5 c 0,10 -8,-8 -8,7.5 s 8,-2.5 8,7.5 v 5 H 29.5 l -6,4 -3,0 -6,-4 H 0 z&#10;"/><path class="blocklyPathLight" stroke="#7bc092" d="m 0.5,7.5 A 7.5,7.5 0 0,1 8,0.5 H 15 l 6,4 3,0 6,-4 H 169.66634941101074 M 169.66634941101074,0.5 M 165.16634941101074,19.3 l 3.68,-2.1 M 0.5,24.5 V 8&#10;"/><g class="blocklyDraggable" transform="translate(171.16634941101074,0)"><path class="blocklyPathDark" transform="translate(1,1)" fill="#84357e" d="m 0,0 H 59.03767395019531 v 25 H 0 V 20 c 0,-10 -8,8 -8,-7.5 s 8,2.5 8,-7.5 z&#10;"/><path class="blocklyPath" fill="#a5429d" d="m 0,0 H 59.03767395019531 v 25 H 0 V 20 c 0,-10 -8,8 -8,-7.5 s 8,2.5 8,-7.5 z&#10;"/><path class="blocklyPathLight" stroke="#c07bba" d="m 0.5,0.5 H 58.53767395019531 M 58.53767395019531,0.5 M 0.5,24.5 V 18.5 m -7.36,-0.5 q -1.52,-5.5 0,-11 m 7.36,1 V 0.5 H 1&#10;"/><g class="blocklyEditableText" transform="translate(10,5)" style="cursor: default;"><rect rx="4" ry="4" x="-5" y="0" height="16" width="49.03767395019531"/><text class="blocklyText" y="12.5" text-anchor="start" x="0">play<tspan style="fill: rgb(165, 66, 157);"> ▾</tspan></text></g></g><g class="blocklyDraggable" transform="translate(0,26)"><path class="blocklyPathDark" transform="translate(1,1)" fill="#35844f" d="m 0,0 H 15 l 6,4 3,0 6,-4 H 50 H 395.6000623703003 v 36 H 50 l -6,4 -3,0 -6,-4 h -7 a 8,8 0 0,0 -8,8 v 51 a 8,8 0 0,0 8,8 H 50 v 10 H 29.5 l -6,4 -3,0 -6,-4 H 0 z&#10;M 208.09617805480957,5 h -38.30507469177246 v 5 c 0,10 -8,-8 -8,7.5 s 8,-2.5 8,7.5 v 7 h 38.30507469177246 z M 308.26094818115234,5 h -38.30507469177246 v 5 c 0,10 -8,-8 -8,7.5 s 8,-2.5 8,7.5 v 7 h 38.30507469177246 z M 385.6000623703003,5 h -30.15253734588623 v 5 c 0,10 -8,-8 -8,7.5 s 8,-2.5 8,7.5 v 7 h 30.15253734588623 z"/><path class="blocklyPath" fill="#42a563" d="m 0,0 H 15 l 6,4 3,0 6,-4 H 50 H 395.6000623703003 v 36 H 50 l -6,4 -3,0 -6,-4 h -7 a 8,8 0 0,0 -8,8 v 51 a 8,8 0 0,0 8,8 H 50 v 10 H 29.5 l -6,4 -3,0 -6,-4 H 0 z&#10;M 208.09617805480957,5 h -38.30507469177246 v 5 c 0,10 -8,-8 -8,7.5 s 8,-2.5 8,7.5 v 7 h 38.30507469177246 z M 308.26094818115234,5 h -38.30507469177246 v 5 c 0,10 -8,-8 -8,7.5 s 8,-2.5 8,7.5 v 7 h 38.30507469177246 z M 385.6000623703003,5 h -30.15253734588623 v 5 c 0,10 -8,-8 -8,7.5 s 8,-2.5 8,7.5 v 7 h 30.15253734588623 z"/><path class="blocklyPathLight" stroke="#7bc092" d="m 0.5,0.5 H 15 l 6,4 3,0 6,-4 H 49.5 M 49.5,0.5 H 395.1000623703003 M 49.5,36.5 M 21.989592359914347,101.01040764008566 a 8.5,8.5 0 0,0 6.0104076400856545,2.4895923599143455 H 49.5 M 0.5,112.5 V 0.5&#10;M 208.59617805480957,5.5 v 27 h -38.30507469177246 M 164.69110336303712,24.3 l 3.68,-2.1 M 308.76094818115234,5.5 v 27 h -38.30507469177246 M 264.85587348937986,24.3 l 3.68,-2.1 M 386.1000623703003,5.5 v 27 h -30.15253734588623 M 350.34752502441404,24.3 l 3.68,-2.1"/><g transform="translate(170.7911033630371,6)"><path class="blocklyPathDark" transform="translate(1,1)" fill="#b3c7db" d="m 0,0 H 36.30507469177246 v 25 H 0 V 20 c 0,-10 -8,8 -8,-7.5 s 8,2.5 8,-7.5 z&#10;"/><path class="blocklyPath" fill="#b3c7db" d="m 0,0 H 36.30507469177246 v 25 H 0 V 20 c 0,-10 -8,8 -8,-7.5 s 8,2.5 8,-7.5 z&#10;"/><path class="blocklyPathLight" d="m 0.5,0.5 H 35.80507469177246 M 35.80507469177246,0.5 M 0.5,24.5 V 18.5 m -7.36,-0.5 q -1.52,-5.5 0,-11 m 7.36,1 V 0.5 H 1&#10;" style="display: none;"/><g class="blocklyEditableText" transform="translate(10,5)" style="cursor: text;"><rect rx="4" ry="4" x="-5" y="0" height="16" width="26.30507469177246"/><text class="blocklyText" y="12.5">10</text></g></g><g transform="translate(270.9558734893799,6)"><path class="blocklyPathDark" transform="translate(1,1)" fill="#b3c7db" d="m 0,0 H 36.30507469177246 v 25 H 0 V 20 c 0,-10 -8,8 -8,-7.5 s 8,2.5 8,-7.5 z&#10;"/><path class="blocklyPath" fill="#b3c7db" d="m 0,0 H 36.30507469177246 v 25 H 0 V 20 c 0,-10 -8,8 -8,-7.5 s 8,2.5 8,-7.5 z&#10;"/><path class="blocklyPathLight" d="m 0.5,0.5 H 35.80507469177246 M 35.80507469177246,0.5 M 0.5,24.5 V 18.5 m -7.36,-0.5 q -1.52,-5.5 0,-11 m 7.36,1 V 0.5 H 1&#10;" style="display: none;"/><g class="blocklyEditableText" transform="translate(10,5)" style="cursor: text;"><rect rx="4" ry="4" x="-5" y="0" height="16" width="26.30507469177246"/><text class="blocklyText" y="12.5">12</text></g></g><g transform="translate(356.44752502441406,6)"><path class="blocklyPathDark" transform="translate(1,1)" fill="#b3c7db" d="m 0,0 H 28.15253734588623 v 25 H 0 V 20 c 0,-10 -8,8 -8,-7.5 s 8,2.5 8,-7.5 z&#10;"/><path class="blocklyPath" fill="#b3c7db" d="m 0,0 H 28.15253734588623 v 25 H 0 V 20 c 0,-10 -8,8 -8,-7.5 s 8,2.5 8,-7.5 z&#10;"/><path class="blocklyPathLight" d="m 0.5,0.5 H 27.65253734588623 M 27.65253734588623,0.5 M 0.5,24.5 V 18.5 m -7.36,-0.5 q -1.52,-5.5 0,-11 m 7.36,1 V 0.5 H 1&#10;" style="display: none;"/><g class="blocklyEditableText" transform="translate(10,5)" style="cursor: text;"><rect rx="4" ry="4" x="-5" y="0" height="16" width="18.15253734588623"/><text class="blocklyText" y="12.5">1</text></g></g><g class="blocklyDraggable" transform="translate(21,37)"><path class="blocklyPathDark" transform="translate(1,1)" fill="#35844f" d="m 0,8 A 8,8 0 0,1 8,0 H 15 l 6,4 3,0 6,-4 H 40 H 201.57561779022217 v 36 H 29.5 l -6,4 -3,0 -6,-4 H 0 z&#10;M 105.85509777069092,5 h -30.15253734588623 v 5 c 0,10 -8,-8 -8,7.5 s 8,-2.5 8,7.5 v 7 h 30.15253734588623 z"/><path class="blocklyPath" fill="#42a563" d="m 0,8 A 8,8 0 0,1 8,0 H 15 l 6,4 3,0 6,-4 H 40 H 201.57561779022217 v 36 H 29.5 l -6,4 -3,0 -6,-4 H 0 z&#10;M 105.85509777069092,5 h -30.15253734588623 v 5 c 0,10 -8,-8 -8,7.5 s 8,-2.5 8,7.5 v 7 h 30.15253734588623 z"/><path class="blocklyPathLight" stroke="#7bc092" d="m 0.5,7.5 A 7.5,7.5 0 0,1 8,0.5 H 15 l 6,4 3,0 6,-4 H 39.5 M 39.5,0.5 H 201.07561779022217 M 0.5,35.5 V 8&#10;M 106.35509777069092,5.5 v 27 h -30.15253734588623 M 70.6025604248047,24.3 l 3.68,-2.1"/><g transform="translate(76.70256042480469,6)"><path class="blocklyPathDark" transform="translate(1,1)" fill="#b3c7db" d="m 0,0 H 28.15253734588623 v 25 H 0 V 20 c 0,-10 -8,8 -8,-7.5 s 8,2.5 8,-7.5 z&#10;"/><path class="blocklyPath" fill="#b3c7db" d="m 0,0 H 28.15253734588623 v 25 H 0 V 20 c 0,-10 -8,8 -8,-7.5 s 8,2.5 8,-7.5 z&#10;"/><path class="blocklyPathLight" d="m 0.5,0.5 H 27.65253734588623 M 27.65253734588623,0.5 M 0.5,24.5 V 18.5 m -7.36,-0.5 q -1.52,-5.5 0,-11 m 7.36,1 V 0.5 H 1&#10;" style="display: none;"/><g class="blocklyEditableText" transform="translate(10,5)" style="cursor: text;"><rect rx="4" ry="4" x="-5" y="0" height="16" width="18.15253734588623"/><text class="blocklyText" y="12.5">1</text></g></g><g class="blocklyDraggable" transform="translate(0,37)"><path class="blocklyPathDark" transform="translate(1,1)" fill="#843549" d="m 0,0 H 15 l 6,4 3,0 6,-4 H 130.83439826965332 v 5 c 0,10 -8,-8 -8,7.5 s 8,-2.5 8,7.5 v 5 H 29.5 l -6,4 -3,0 -6,-4 H 8 a 8,8 0 0,1 -8,-8 z&#10;"/><path class="blocklyPath" fill="#a5425b" d="m 0,0 H 15 l 6,4 3,0 6,-4 H 130.83439826965332 v 5 c 0,10 -8,-8 -8,7.5 s 8,-2.5 8,7.5 v 5 H 29.5 l -6,4 -3,0 -6,-4 H 8 a 8,8 0 0,1 -8,-8 z&#10;"/><path class="blocklyPathLight" stroke="#c07b8c" d="m 0.5,0.5 H 15 l 6,4 3,0 6,-4 H 130.33439826965332 M 130.33439826965332,0.5 M 125.83439826965332,19.3 l 3.68,-2.1 M 2.6966991411008934,22.303300858899107 A 7.5,7.5 0 0,1 0.5,17 V 0.5&#10;"/><g class="blocklyDraggable" transform="translate(131.83439826965332,0)"><path class="blocklyPathDark" transform="translate(1,1)" fill="#84357e" d="m 0,0 H 35.40319061279297 v 25 H 0 V 20 c 0,-10 -8,8 -8,-7.5 s 8,2.5 8,-7.5 z&#10;"/><path class="blocklyPath" fill="#a5429d" d="m 0,0 H 35.40319061279297 v 25 H 0 V 20 c 0,-10 -8,8 -8,-7.5 s 8,2.5 8,-7.5 z&#10;"/><path class="blocklyPathLight" stroke="#c07bba" d="m 0.5,0.5 H 34.90319061279297 M 34.90319061279297,0.5 M 0.5,24.5 V 18.5 m -7.36,-0.5 q -1.52,-5.5 0,-11 m 7.36,1 V 0.5 H 1&#10;"/><g class="blocklyEditableText" transform="translate(10,5)" style="cursor: default;"><rect rx="4" ry="4" x="-5" y="0" height="16" width="25.40319061279297"/><text class="blocklyText" y="12.5" text-anchor="start" x="0">i<tspan style="fill: rgb(165, 66, 157);"> ▾</tspan></text></g></g><g class="blocklyEditableText" transform="translate(10,5)" style="cursor: default;"><rect rx="4" ry="4" x="-5" y="0" height="16" width="83.27261352539062"/><text class="blocklyText" y="12.5" text-anchor="start" x="0">encender<tspan style="fill: rgb(165, 66, 91);"> ▾</tspan></text></g><text class="blocklyText" y="12.5" transform="translate(93.27261352539062,5)">pin</text></g><text class="blocklyText" y="12.5" transform="translate(10,10)">esperar</text><g class="blocklyEditableText" transform="translate(115.85509777069092,10)" style="cursor: default;"><rect rx="4" ry="4" x="-5" y="0" height="16" width="85.72052001953125"/><text class="blocklyText" y="12.5" text-anchor="start" x="0">segundos<tspan style="fill: rgb(66, 165, 99);"> ▾</tspan></text></g></g><g class="blocklyDraggable" transform="translate(0,114)"><path class="blocklyPathDark" transform="translate(1,1)" fill="#703584" d="m 0,0 H 15 l 6,4 3,0 6,-4 H 40 H 154.61423873901367 v 25 H 29.5 l -6,4 -3,0 -6,-4 H 0 z&#10;"/><path class="blocklyPath" fill="#8c42a5" d="m 0,0 H 15 l 6,4 3,0 6,-4 H 40 H 154.61423873901367 v 25 H 29.5 l -6,4 -3,0 -6,-4 H 0 z&#10;"/><path class="blocklyPathLight" stroke="#af7bc0" d="m 0.5,0.5 H 15 l 6,4 3,0 6,-4 H 39.5 M 39.5,0.5 H 154.11423873901367 M 0.5,24.5 V 0.5&#10;"/><g class="blocklyDraggable" transform="translate(0,26)"><path class="blocklyPathDark" transform="translate(1,1)" fill="#35844f" d="m 0,0 H 15 l 6,4 3,0 6,-4 H 50 H 400.48156452178955 v 36 H 50 l -6,4 -3,0 -6,-4 h -7 a 8,8 0 0,0 -8,8 v 14 a 8,8 0 0,0 8,8 H 50 v 10 H 29.5 l -6,4 -3,0 -6,-4 H 0 z&#10;M 208.09617805480957,5 h -38.30507469177246 v 5 c 0,10 -8,-8 -8,7.5 s 8,-2.5 8,7.5 v 7 h 38.30507469177246 z M 308.26094818115234,5 h -38.30507469177246 v 5 c 0,10 -8,-8 -8,7.5 s 8,-2.5 8,7.5 v 7 h 38.30507469177246 z M 390.48156452178955,5 h -35.03403949737549 v 5 c 0,10 -8,-8 -8,7.5 s 8,-2.5 8,7.5 v 7 h 35.03403949737549 z"/><path class="blocklyPath" fill="#42a563" d="m 0,0 H 15 l 6,4 3,0 6,-4 H 50 H 400.48156452178955 v 36 H 50 l -6,4 -3,0 -6,-4 h -7 a 8,8 0 0,0 -8,8 v 14 a 8,8 0 0,0 8,8 H 50 v 10 H 29.5 l -6,4 -3,0 -6,-4 H 0 z&#10;M 208.09617805480957,5 h -38.30507469177246 v 5 c 0,10 -8,-8 -8,7.5 s 8,-2.5 8,7.5 v 7 h 38.30507469177246 z M 308.26094818115234,5 h -38.30507469177246 v 5 c 0,10 -8,-8 -8,7.5 s 8,-2.5 8,7.5 v 7 h 38.30507469177246 z M 390.48156452178955,5 h -35.03403949737549 v 5 c 0,10 -8,-8 -8,7.5 s 8,-2.5 8,7.5 v 7 h 35.03403949737549 z"/><path class="blocklyPathLight" stroke="#7bc092" d="m 0.5,0.5 H 15 l 6,4 3,0 6,-4 H 49.5 M 49.5,0.5 H 399.98156452178955 M 49.5,36.5 M 21.989592359914347,64.01040764008566 a 8.5,8.5 0 0,0 6.0104076400856545,2.4895923599143455 H 49.5 M 0.5,75.5 V 0.5&#10;M 208.59617805480957,5.5 v 27 h -38.30507469177246 M 164.69110336303712,24.3 l 3.68,-2.1 M 308.76094818115234,5.5 v 27 h -38.30507469177246 M 264.85587348937986,24.3 l 3.68,-2.1 M 390.98156452178955,5.5 v 27 h -35.03403949737549 M 350.34752502441404,24.3 l 3.68,-2.1"/><g transform="translate(170.7911033630371,6)"><path class="blocklyPathDark" transform="translate(1,1)" fill="#b3c7db" d="m 0,0 H 36.30507469177246 v 25 H 0 V 20 c 0,-10 -8,8 -8,-7.5 s 8,2.5 8,-7.5 z&#10;"/><path class="blocklyPath" fill="#b3c7db" d="m 0,0 H 36.30507469177246 v 25 H 0 V 20 c 0,-10 -8,8 -8,-7.5 s 8,2.5 8,-7.5 z&#10;"/><path class="blocklyPathLight" d="m 0.5,0.5 H 35.80507469177246 M 35.80507469177246,0.5 M 0.5,24.5 V 18.5 m -7.36,-0.5 q -1.52,-5.5 0,-11 m 7.36,1 V 0.5 H 1&#10;" style="display: none;"/><g class="blocklyEditableText" transform="translate(10,5)" style="cursor: text;"><rect rx="4" ry="4" x="-5" y="0" height="16" width="26.30507469177246"/><text class="blocklyText" y="12.5">12</text></g></g><g transform="translate(270.9558734893799,6)"><path class="blocklyPathDark" transform="translate(1,1)" fill="#b3c7db" d="m 0,0 H 36.30507469177246 v 25 H 0 V 20 c 0,-10 -8,8 -8,-7.5 s 8,2.5 8,-7.5 z&#10;"/><path class="blocklyPath" fill="#b3c7db" d="m 0,0 H 36.30507469177246 v 25 H 0 V 20 c 0,-10 -8,8 -8,-7.5 s 8,2.5 8,-7.5 z&#10;"/><path class="blocklyPathLight" d="m 0.5,0.5 H 35.80507469177246 M 35.80507469177246,0.5 M 0.5,24.5 V 18.5 m -7.36,-0.5 q -1.52,-5.5 0,-11 m 7.36,1 V 0.5 H 1&#10;" style="display: none;"/><g class="blocklyEditableText" transform="translate(10,5)" style="cursor: text;"><rect rx="4" ry="4" x="-5" y="0" height="16" width="26.30507469177246"/><text class="blocklyText" y="12.5">10</text></g></g><g transform="translate(356.44752502441406,6)"><path class="blocklyPathDark" transform="translate(1,1)" fill="#b3c7db" d="m 0,0 H 33.03403949737549 v 25 H 0 V 20 c 0,-10 -8,8 -8,-7.5 s 8,2.5 8,-7.5 z&#10;"/><path class="blocklyPath" fill="#b3c7db" d="m 0,0 H 33.03403949737549 v 25 H 0 V 20 c 0,-10 -8,8 -8,-7.5 s 8,2.5 8,-7.5 z&#10;"/><path class="blocklyPathLight" d="m 0.5,0.5 H 32.53403949737549 M 32.53403949737549,0.5 M 0.5,24.5 V 18.5 m -7.36,-0.5 q -1.52,-5.5 0,-11 m 7.36,1 V 0.5 H 1&#10;" style="display: none;"/><g class="blocklyEditableText" transform="translate(10,5)" style="cursor: text;"><rect rx="4" ry="4" x="-5" y="0" height="16" width="23.03403949737549"/><text class="blocklyText" y="12.5">-1</text></g></g><g class="blocklyDraggable" transform="translate(21,37)"><path class="blocklyPathDark" transform="translate(1,1)" fill="#843549" d="m 0,8 A 8,8 0 0,1 8,0 H 15 l 6,4 3,0 6,-4 H 115.35245323181152 v 5 c 0,10 -8,-8 -8,7.5 s 8,-2.5 8,7.5 v 5 H 29.5 l -6,4 -3,0 -6,-4 H 8 a 8,8 0 0,1 -8,-8 z&#10;"/><path class="blocklyPath" fill="#a5425b" d="m 0,8 A 8,8 0 0,1 8,0 H 15 l 6,4 3,0 6,-4 H 115.35245323181152 v 5 c 0,10 -8,-8 -8,7.5 s 8,-2.5 8,7.5 v 5 H 29.5 l -6,4 -3,0 -6,-4 H 8 a 8,8 0 0,1 -8,-8 z&#10;"/><path class="blocklyPathLight" stroke="#c07b8c" d="m 0.5,7.5 A 7.5,7.5 0 0,1 8,0.5 H 15 l 6,4 3,0 6,-4 H 114.85245323181152 M 114.85245323181152,0.5 M 110.35245323181152,19.3 l 3.68,-2.1 M 2.6966991411008934,22.303300858899107 A 7.5,7.5 0 0,1 0.5,17 V 8&#10;"/><g class="blocklyDraggable" transform="translate(116.35245323181152,0)"><path class="blocklyPathDark" transform="translate(1,1)" fill="#84357e" d="m 0,0 H 35.40319061279297 v 25 H 0 V 20 c 0,-10 -8,8 -8,-7.5 s 8,2.5 8,-7.5 z&#10;"/><path class="blocklyPath" fill="#a5429d" d="m 0,0 H 35.40319061279297 v 25 H 0 V 20 c 0,-10 -8,8 -8,-7.5 s 8,2.5 8,-7.5 z&#10;"/><path class="blocklyPathLight" stroke="#c07bba" d="m 0.5,0.5 H 34.90319061279297 M 34.90319061279297,0.5 M 0.5,24.5 V 18.5 m -7.36,-0.5 q -1.52,-5.5 0,-11 m 7.36,1 V 0.5 H 1&#10;"/><g class="blocklyEditableText" transform="translate(10,5)" style="cursor: default;"><rect rx="4" ry="4" x="-5" y="0" height="16" width="25.40319061279297"/><text class="blocklyText" y="12.5" text-anchor="start" x="0">i<tspan style="fill: rgb(165, 66, 157);"> ▾</tspan></text></g></g><g class="blocklyEditableText" transform="translate(10,5)" style="cursor: default;"><rect rx="4" ry="4" x="-5" y="0" height="16" width="67.79066848754883"/><text class="blocklyText" y="12.5" text-anchor="start" x="0">apagar<tspan style="fill: rgb(165, 66, 91);"> ▾</tspan></text></g><text class="blocklyText" y="12.5" transform="translate(77.79066848754883,5)">pin</text></g><g class="blocklyDraggable" transform="translate(0,77)"><path class="blocklyPathDark" transform="translate(1,1)" fill="#84357e" d="m 0,0 H 15 l 6,4 3,0 6,-4 H 162.82260417938232 v 5 c 0,10 -8,-8 -8,7.5 s 8,-2.5 8,7.5 v 5 H 29.5 l -6,4 -3,0 -6,-4 H 8 a 8,8 0 0,1 -8,-8 z&#10;"/><path class="blocklyPath" fill="#a5429d" d="m 0,0 H 15 l 6,4 3,0 6,-4 H 162.82260417938232 v 5 c 0,10 -8,-8 -8,7.5 s 8,-2.5 8,7.5 v 5 H 29.5 l -6,4 -3,0 -6,-4 H 8 a 8,8 0 0,1 -8,-8 z&#10;"/><path class="blocklyPathLight" stroke="#c07bba" d="m 0.5,0.5 H 15 l 6,4 3,0 6,-4 H 162.32260417938232 M 162.32260417938232,0.5 M 157.82260417938232,19.3 l 3.68,-2.1 M 2.6966991411008934,22.303300858899107 A 7.5,7.5 0 0,1 0.5,17 V 0.5&#10;"/><g transform="translate(163.82260417938232,0)"><path class="blocklyPathDark" transform="translate(1,1)" fill="#b3c7db" d="m 0,0 H 28.15253734588623 v 25 H 0 V 20 c 0,-10 -8,8 -8,-7.5 s 8,2.5 8,-7.5 z&#10;"/><path class="blocklyPath" fill="#b3c7db" d="m 0,0 H 28.15253734588623 v 25 H 0 V 20 c 0,-10 -8,8 -8,-7.5 s 8,2.5 8,-7.5 z&#10;"/><path class="blocklyPathLight" d="m 0.5,0.5 H 27.65253734588623 M 27.65253734588623,0.5 M 0.5,24.5 V 18.5 m -7.36,-0.5 q -1.52,-5.5 0,-11 m 7.36,1 V 0.5 H 1&#10;" style="display: none;"/><g class="blocklyEditableText" transform="translate(10,5)" style="cursor: text;"><rect rx="4" ry="4" x="-5" y="0" height="16" width="18.15253734588623"/><text class="blocklyText" y="12.5">0</text></g></g><text class="blocklyText" y="12.5" transform="translate(10,5)">establecer</text><g class="blocklyEditableText" transform="translate(87.63239288330078,5)" style="cursor: default;"><rect rx="4" ry="4" x="-5" y="0" height="16" width="49.03767395019531"/><text class="blocklyText" y="12.5" text-anchor="start" x="0">play<tspan style="fill: rgb(165, 66, 157);"> ▾</tspan></text></g><text class="blocklyText" y="12.5" transform="translate(136.6700668334961,5)">a</text></g><text class="blocklyText" y="12.5" transform="translate(10,10)">contar con</text><g class="blocklyEditableText" transform="translate(88.44835662841797,10)" style="cursor: default;"><rect rx="4" ry="4" x="-5" y="0" height="16" width="25.40319061279297"/><text class="blocklyText" y="12.5" text-anchor="start" x="0">i<tspan style="fill: rgb(66, 165, 99);"> ▾</tspan></text></g><text class="blocklyText" y="12.5" transform="translate(113.85154724121094,10)">desde</text><text class="blocklyText" y="12.5" transform="translate(218.09617805480957,10)">hasta</text><text class="blocklyText" y="12.5" transform="translate(318.26094818115234,10)">por</text></g><text class="blocklyText" y="12.5" transform="translate(10,5)">ejecutar</text><g class="blocklyEditableText" transform="translate(72.15044784545898,5)" style="cursor: default;"><rect rx="4" ry="4" x="-5" y="0" height="16" width="82.46379089355469"/><text class="blocklyText" y="12.5" text-anchor="start" x="0">go sound<tspan style="fill: rgb(140, 66, 165);"> ▾</tspan></text></g></g><text class="blocklyText" y="12.5" transform="translate(10,10)">contar con</text><g class="blocklyEditableText" transform="translate(88.44835662841797,10)" style="cursor: default;"><rect rx="4" ry="4" x="-5" y="0" height="16" width="25.40319061279297"/><text class="blocklyText" y="12.5" text-anchor="start" x="0">i<tspan style="fill: rgb(66, 165, 99);"> ▾</tspan></text></g><text class="blocklyText" y="12.5" transform="translate(113.85154724121094,10)">desde</text><text class="blocklyText" y="12.5" transform="translate(218.09617805480957,10)">hasta</text><text class="blocklyText" y="12.5" transform="translate(318.26094818115234,10)">por</text></g><text class="blocklyText" y="12.5" transform="translate(10,5)">esperar</text><g class="blocklyEditableText" transform="translate(69.70256042480469,5)" style="cursor: default;"><rect rx="4" ry="4" x="-5" y="0" height="16" width="58.00617599487305"/><text class="blocklyText" y="12.5" text-anchor="start" x="0">hasta<tspan style="fill: rgb(66, 165, 99);"> ▾</tspan></text></g><text class="blocklyText" y="12.5" transform="translate(127.70873641967773,5)">que</text></g><text class="blocklyText" y="12.5" transform="translate(10,5)">temporizador llamado</text><g class="blocklyEditableText" transform="translate(160.95509338378906,5)" style="cursor: text;"><rect rx="4" ry="4" x="-5" y="0" height="16" width="83.33704376220703"/><text class="blocklyText" y="12.5">semaphore</text></g><text class="blocklyText" y="12.5" transform="translate(10,30)">ejecutándose</text><g class="blocklyEditableText" transform="translate(107.20850372314453,30)" style="cursor: text;"><rect rx="4" ry="4" x="-5" y="0" height="16" width="26.30507469177246"/><text class="blocklyText" y="12.5">10</text></g><text class="blocklyText" y="12.5" transform="translate(133.513578414917,30)">veces por</text><g class="blocklyEditableText" transform="translate(207.06612968444824,30)" style="cursor: default;"><rect rx="4" ry="4" x="-5" y="0" height="16" width="78.39111328125"/><text class="blocklyText" y="12.5" text-anchor="start" x="0">segundo<tspan style="fill: rgb(66, 165, 157);"> ▾</tspan></text></g><text class="blocklyText" y="12.5" transform="translate(10,55)">estado inicial</text><g class="blocklyEditableText" transform="translate(104.7462387084961,55)" style="cursor: default;"><rect rx="4" ry="4" x="-5" y="0" height="16" width="71.85616683959961"/><text class="blocklyText" y="12.5" text-anchor="start" x="0">iniciado<tspan style="fill: rgb(66, 165, 157);"> ▾</tspan></text></g></g><g class="blocklyDraggable" transform="translate(-2.3529411764705883,385.88235294117646)"><path class="blocklyPathDark" transform="translate(1,1)" fill="#703584" d="m 0,8 A 8,8 0 0,1 8,0 H 237.80014419555664 v 25 H 50 l -6,4 -3,0 -6,-4 h -7 a 8,8 0 0,0 -8,8 v 139 a 8,8 0 0,0 8,8 H 237.80014419555664 v 10 H 8 a 8,8 0 0,1 -8,-8 z&#10;"/><path class="blocklyPath" fill="#8c42a5" d="m 0,8 A 8,8 0 0,1 8,0 H 237.80014419555664 v 25 H 50 l -6,4 -3,0 -6,-4 h -7 a 8,8 0 0,0 -8,8 v 139 a 8,8 0 0,0 8,8 H 237.80014419555664 v 10 H 8 a 8,8 0 0,1 -8,-8 z&#10;"/><path class="blocklyPathLight" stroke="#af7bc0" d="m 0.5,7.5 A 7.5,7.5 0 0,1 8,0.5 H 237.30014419555664 M 237.30014419555664,0.5 M 237.30014419555664,25.5 M 21.989592359914347,178.01040764008565 a 8.5,8.5 0 0,0 6.0104076400856545,2.4895923599143455 H 237.30014419555664 M 2.6966991411008934,187.3033008588991 A 7.5,7.5 0 0,1 0.5,182 V 8&#10;"/><g class="blocklyDraggable" transform="translate(21.000000000000007,26)"><path class="blocklyPathDark" transform="translate(1,1)" fill="#845d35" d="m 0,8 A 8,8 0 0,1 8,0 H 15 l 6,4 3,0 6,-4 H 233.71884155273438 v 5 c 0,10 -8,-8 -8,7.5 s 8,-2.5 8,7.5 v 5 H 29.5 l -6,4 -3,0 -6,-4 H 0 z&#10;"/><path class="blocklyPath" fill="#a57442" d="m 0,8 A 8,8 0 0,1 8,0 H 15 l 6,4 3,0 6,-4 H 233.71884155273438 v 5 c 0,10 -8,-8 -8,7.5 s 8,-2.5 8,7.5 v 5 H 29.5 l -6,4 -3,0 -6,-4 H 0 z&#10;"/><path class="blocklyPathLight" stroke="#c09e7b" d="m 0.5,7.5 A 7.5,7.5 0 0,1 8,0.5 H 15 l 6,4 3,0 6,-4 H 233.21884155273438 M 233.21884155273438,0.5 M 228.71884155273438,19.3 l 3.68,-2.1 M 0.5,24.5 V 8&#10;"/><g transform="translate(234.71884155273438,0)"><path class="blocklyPathDark" transform="translate(1,1)" fill="#dbb3bd" d="m 0,0 H 50.88513374328613 v 25 H 0 V 20 c 0,-10 -8,8 -8,-7.5 s 8,2.5 8,-7.5 z&#10;"/><path class="blocklyPath" fill="#dbb3bd" d="m 0,0 H 50.88513374328613 v 25 H 0 V 20 c 0,-10 -8,8 -8,-7.5 s 8,2.5 8,-7.5 z&#10;"/><path class="blocklyPathLight" d="m 0.5,0.5 H 50.38513374328613 M 50.38513374328613,0.5 M 0.5,24.5 V 18.5 m -7.36,-0.5 q -1.52,-5.5 0,-11 m 7.36,1 V 0.5 H 1&#10;" style="display: none;"/><g class="blocklyEditableText" transform="translate(10,5)" style="cursor: default;"><rect rx="4" ry="4" x="-5" y="0" height="16" width="40.88513374328613"/><text class="blocklyText" y="12.5" text-anchor="start" x="0">D8<tspan style="fill: rgb(165, 66, 91);"> ▾</tspan></text></g></g><g class="blocklyDraggable" transform="translate(0,26)"><path class="blocklyPathDark" transform="translate(1,1)" fill="#35844f" d="m 0,0 H 15 l 6,4 3,0 6,-4 H 40 H 231.7091884613037 v 36 H 29.5 l -6,4 -3,0 -6,-4 H 0 z&#10;M 114.00763511657715,5 h -38.30507469177246 v 5 c 0,10 -8,-8 -8,7.5 s 8,-2.5 8,7.5 v 7 h 38.30507469177246 z"/><path class="blocklyPath" fill="#42a563" d="m 0,0 H 15 l 6,4 3,0 6,-4 H 40 H 231.7091884613037 v 36 H 29.5 l -6,4 -3,0 -6,-4 H 0 z&#10;M 114.00763511657715,5 h -38.30507469177246 v 5 c 0,10 -8,-8 -8,7.5 s 8,-2.5 8,7.5 v 7 h 38.30507469177246 z"/><path class="blocklyPathLight" stroke="#7bc092" d="m 0.5,0.5 H 15 l 6,4 3,0 6,-4 H 39.5 M 39.5,0.5 H 231.2091884613037 M 0.5,35.5 V 0.5&#10;M 114.50763511657715,5.5 v 27 h -38.30507469177246 M 70.6025604248047,24.3 l 3.68,-2.1"/><g transform="translate(76.70256042480469,6)"><path class="blocklyPathDark" transform="translate(1,1)" fill="#b3c7db" d="m 0,0 H 36.30507469177246 v 25 H 0 V 20 c 0,-10 -8,8 -8,-7.5 s 8,2.5 8,-7.5 z&#10;"/><path class="blocklyPath" fill="#b3c7db" d="m 0,0 H 36.30507469177246 v 25 H 0 V 20 c 0,-10 -8,8 -8,-7.5 s 8,2.5 8,-7.5 z&#10;"/><path class="blocklyPathLight" d="m 0.5,0.5 H 35.80507469177246 M 35.80507469177246,0.5 M 0.5,24.5 V 18.5 m -7.36,-0.5 q -1.52,-5.5 0,-11 m 7.36,1 V 0.5 H 1&#10;" style="display: none;"/><g class="blocklyEditableText" transform="translate(10,5)" style="cursor: text;"><rect rx="4" ry="4" x="-5" y="0" height="16" width="26.30507469177246"/><text class="blocklyText" y="12.5">50</text></g></g><g class="blocklyDraggable" transform="translate(0,37)"><path class="blocklyPathDark" transform="translate(1,1)" fill="#845d35" d="m 0,0 H 15 l 6,4 3,0 6,-4 H 232.9028720855713 v 5 c 0,10 -8,-8 -8,7.5 s 8,-2.5 8,7.5 v 5 H 29.5 l -6,4 -3,0 -6,-4 H 0 z&#10;"/><path class="blocklyPath" fill="#a57442" d="m 0,0 H 15 l 6,4 3,0 6,-4 H 232.9028720855713 v 5 c 0,10 -8,-8 -8,7.5 s 8,-2.5 8,7.5 v 5 H 29.5 l -6,4 -3,0 -6,-4 H 0 z&#10;"/><path class="blocklyPathLight" stroke="#c09e7b" d="m 0.5,0.5 H 15 l 6,4 3,0 6,-4 H 232.4028720855713 M 232.4028720855713,0.5 M 227.9028720855713,19.3 l 3.68,-2.1 M 0.5,24.5 V 0.5&#10;"/><g transform="translate(233.9028720855713,0)"><path class="blocklyPathDark" transform="translate(1,1)" fill="#dbb3bd" d="m 0,0 H 50.88513374328613 v 25 H 0 V 20 c 0,-10 -8,8 -8,-7.5 s 8,2.5 8,-7.5 z&#10;"/><path class="blocklyPath" fill="#dbb3bd" d="m 0,0 H 50.88513374328613 v 25 H 0 V 20 c 0,-10 -8,8 -8,-7.5 s 8,2.5 8,-7.5 z&#10;"/><path class="blocklyPathLight" d="m 0.5,0.5 H 50.38513374328613 M 50.38513374328613,0.5 M 0.5,24.5 V 18.5 m -7.36,-0.5 q -1.52,-5.5 0,-11 m 7.36,1 V 0.5 H 1&#10;" style="display: none;"/><g class="blocklyEditableText" transform="translate(10,5)" style="cursor: default;"><rect rx="4" ry="4" x="-5" y="0" height="16" width="40.88513374328613"/><text class="blocklyText" y="12.5" text-anchor="start" x="0">D8<tspan style="fill: rgb(165, 66, 91);"> ▾</tspan></text></g></g><g class="blocklyDraggable" transform="translate(0,26)"><path class="blocklyPathDark" transform="translate(1,1)" fill="#35844f" d="m 0,0 H 15 l 6,4 3,0 6,-4 H 40 H 248.01426315307617 v 36 H 29.5 l -6,4 -3,0 -6,-4 H 0 z&#10;M 130.3127098083496,5 h -54.61014938354492 v 5 c 0,10 -8,-8 -8,7.5 s 8,-2.5 8,7.5 v 7 h 54.61014938354492 z"/><path class="blocklyPath" fill="#42a563" d="m 0,0 H 15 l 6,4 3,0 6,-4 H 40 H 248.01426315307617 v 36 H 29.5 l -6,4 -3,0 -6,-4 H 0 z&#10;M 130.3127098083496,5 h -54.61014938354492 v 5 c 0,10 -8,-8 -8,7.5 s 8,-2.5 8,7.5 v 7 h 54.61014938354492 z"/><path class="blocklyPathLight" stroke="#7bc092" d="m 0.5,0.5 H 15 l 6,4 3,0 6,-4 H 39.5 M 39.5,0.5 H 247.51426315307617 M 0.5,35.5 V 0.5&#10;M 130.8127098083496,5.5 v 27 h -54.61014938354492 M 70.6025604248047,24.3 l 3.68,-2.1"/><g transform="translate(76.70256042480469,6)"><path class="blocklyPathDark" transform="translate(1,1)" fill="#b3c7db" d="m 0,0 H 52.61014938354492 v 25 H 0 V 20 c 0,-10 -8,8 -8,-7.5 s 8,2.5 8,-7.5 z&#10;"/><path class="blocklyPath" fill="#b3c7db" d="m 0,0 H 52.61014938354492 v 25 H 0 V 20 c 0,-10 -8,8 -8,-7.5 s 8,2.5 8,-7.5 z&#10;"/><path class="blocklyPathLight" d="m 0.5,0.5 H 52.11014938354492 M 52.11014938354492,0.5 M 0.5,24.5 V 18.5 m -7.36,-0.5 q -1.52,-5.5 0,-11 m 7.36,1 V 0.5 H 1&#10;" style="display: none;"/><g class="blocklyEditableText" transform="translate(10,5)" style="cursor: text;"><rect rx="4" ry="4" x="-5" y="0" height="16" width="42.61014938354492"/><text class="blocklyText" y="12.5">1000</text></g></g><g class="blocklyDraggable" transform="translate(0,37)"><path class="blocklyPathDark" transform="translate(1,1)" fill="#845d35" d="m 0,0 H 15 l 6,4 3,0 6,-4 H 169.81398010253906 v 5 c 0,10 -8,-8 -8,7.5 s 8,-2.5 8,7.5 v 5 H 29.5 l -6,4 -3,0 -6,-4 H 8 a 8,8 0 0,1 -8,-8 z&#10;"/><path class="blocklyPath" fill="#a57442" d="m 0,0 H 15 l 6,4 3,0 6,-4 H 169.81398010253906 v 5 c 0,10 -8,-8 -8,7.5 s 8,-2.5 8,7.5 v 5 H 29.5 l -6,4 -3,0 -6,-4 H 8 a 8,8 0 0,1 -8,-8 z&#10;"/><path class="blocklyPathLight" stroke="#c09e7b" d="m 0.5,0.5 H 15 l 6,4 3,0 6,-4 H 169.31398010253906 M 169.31398010253906,0.5 M 164.81398010253906,19.3 l 3.68,-2.1 M 2.6966991411008934,22.303300858899107 A 7.5,7.5 0 0,1 0.5,17 V 0.5&#10;"/><g transform="translate(170.81398010253906,0)"><path class="blocklyPathDark" transform="translate(1,1)" fill="#dbb3bd" d="m 0,0 H 50.88513374328613 v 25 H 0 V 20 c 0,-10 -8,8 -8,-7.5 s 8,2.5 8,-7.5 z&#10;"/><path class="blocklyPath" fill="#dbb3bd" d="m 0,0 H 50.88513374328613 v 25 H 0 V 20 c 0,-10 -8,8 -8,-7.5 s 8,2.5 8,-7.5 z&#10;"/><path class="blocklyPathLight" d="m 0.5,0.5 H 50.38513374328613 M 50.38513374328613,0.5 M 0.5,24.5 V 18.5 m -7.36,-0.5 q -1.52,-5.5 0,-11 m 7.36,1 V 0.5 H 1&#10;" style="display: none;"/><g class="blocklyEditableText" transform="translate(10,5)" style="cursor: default;"><rect rx="4" ry="4" x="-5" y="0" height="16" width="40.88513374328613"/><text class="blocklyText" y="12.5" text-anchor="start" x="0">D8<tspan style="fill: rgb(165, 66, 91);"> ▾</tspan></text></g></g><text class="blocklyText" y="12.5" transform="translate(10,5)">detener tono en el pin</text></g><text class="blocklyText" y="12.5" transform="translate(10,10)">esperar</text><g class="blocklyEditableText" transform="translate(140.3127098083496,10)" style="cursor: default;"><rect rx="4" ry="4" x="-5" y="0" height="16" width="107.70155334472656"/><text class="blocklyText" y="12.5" text-anchor="start" x="0">milisegundos<tspan style="fill: rgb(66, 165, 99);"> ▾</tspan></text></g></g><text class="blocklyText" y="12.5" transform="translate(10,5)">reproducir nota</text><g class="blocklyEditableText" transform="translate(118.59627532958984,5)" style="cursor: default;"><rect rx="4" ry="4" x="-5" y="0" height="16" width="40.88513374328613"/><text class="blocklyText" y="12.5" text-anchor="start" x="0">C5<tspan style="fill: rgb(165, 116, 66);"> ▾</tspan></text></g><text class="blocklyText" y="12.5" transform="translate(159.48140907287598,5)">en el pin</text></g><text class="blocklyText" y="12.5" transform="translate(10,10)">esperar</text><g class="blocklyEditableText" transform="translate(124.00763511657715,10)" style="cursor: default;"><rect rx="4" ry="4" x="-5" y="0" height="16" width="107.70155334472656"/><text class="blocklyText" y="12.5" text-anchor="start" x="0">milisegundos<tspan style="fill: rgb(66, 165, 99);"> ▾</tspan></text></g></g><text class="blocklyText" y="12.5" transform="translate(10,5)">reproducir nota</text><g class="blocklyEditableText" transform="translate(118.59627532958984,5)" style="cursor: default;"><rect rx="4" ry="4" x="-5" y="0" height="16" width="41.70110321044922"/><text class="blocklyText" y="12.5" text-anchor="start" x="0">G4<tspan style="fill: rgb(165, 116, 66);"> ▾</tspan></text></g><text class="blocklyText" y="12.5" transform="translate(160.29737854003906,5)">en el pin</text></g><text class="blocklyText" y="12.5" transform="translate(10,5)">procedimiento llamado</text><g class="blocklyEditableText" transform="translate(167.4828338623047,5)" style="cursor: text;"><rect rx="4" ry="4" x="-5" y="0" height="16" width="70.31731033325195"/><text class="blocklyText" y="12.5">go sound</text></g></g><g class="blocklyDraggable" transform="translate(435.29411764705884,4.705882352941177)"><path class="blocklyPathDark" transform="translate(1,1)" fill="#35847e" d="m 0,8 A 8,8 0 0,1 8,0 H 175.04207229614258 v 25 H 50 l -6,4 -3,0 -6,-4 h -7 a 8,8 0 0,0 -8,8 v 536 a 8,8 0 0,0 8,8 H 175.04207229614258 v 10 H 8 a 8,8 0 0,1 -8,-8 z&#10;"/><path class="blocklyPath" fill="#42a59d" d="m 0,8 A 8,8 0 0,1 8,0 H 175.04207229614258 v 25 H 50 l -6,4 -3,0 -6,-4 h -7 a 8,8 0 0,0 -8,8 v 536 a 8,8 0 0,0 8,8 H 175.04207229614258 v 10 H 8 a 8,8 0 0,1 -8,-8 z&#10;"/><path class="blocklyPathLight" stroke="#7bc0ba" d="m 0.5,7.5 A 7.5,7.5 0 0,1 8,0.5 H 174.54207229614258 M 174.54207229614258,0.5 M 174.54207229614258,25.5 M 21.989592359914347,575.0104076400856 a 8.5,8.5 0 0,0 6.0104076400856545,2.4895923599143455 H 174.54207229614258 M 2.6966991411008934,584.3033008588991 A 7.5,7.5 0 0,1 0.5,579 V 8&#10;"/><g class="blocklyDraggable" transform="translate(21,26)"><path class="blocklyPathDark" transform="translate(1,1)" fill="#843535" d="m 0,8 A 8,8 0 0,1 8,0 H 15 l 6,4 3,0 6,-4 H 40 H 314.51590061187744 v 36 H 29.5 l -6,4 -3,0 -6,-4 H 0 z&#10;M 203.5423069000244,5 h -52.88513374328613 v 5 c 0,10 -8,-8 -8,7.5 s 8,-2.5 8,7.5 v 7 h 52.88513374328613 z M 304.51590061187744,5 h -30.15253734588623 v 5 c 0,10 -8,-8 -8,7.5 s 8,-2.5 8,7.5 v 7 h 30.15253734588623 z"/><path class="blocklyPath" fill="#a54242" d="m 0,8 A 8,8 0 0,1 8,0 H 15 l 6,4 3,0 6,-4 H 40 H 314.51590061187744 v 36 H 29.5 l -6,4 -3,0 -6,-4 H 0 z&#10;M 203.5423069000244,5 h -52.88513374328613 v 5 c 0,10 -8,-8 -8,7.5 s 8,-2.5 8,7.5 v 7 h 52.88513374328613 z M 304.51590061187744,5 h -30.15253734588623 v 5 c 0,10 -8,-8 -8,7.5 s 8,-2.5 8,7.5 v 7 h 30.15253734588623 z"/><path class="blocklyPathLight" stroke="#c07b7b" d="m 0.5,7.5 A 7.5,7.5 0 0,1 8,0.5 H 15 l 6,4 3,0 6,-4 H 39.5 M 39.5,0.5 H 314.01590061187744 M 0.5,35.5 V 8&#10;M 204.0423069000244,5.5 v 27 h -52.88513374328613 M 145.5571731567383,24.3 l 3.68,-2.1 M 305.01590061187744,5.5 v 27 h -30.15253734588623 M 269.2633632659912,24.3 l 3.68,-2.1"/><g transform="translate(151.65717315673828,6)"><path class="blocklyPathDark" transform="translate(1,1)" fill="#dbb3bd" d="m 0,0 H 50.88513374328613 v 25 H 0 V 20 c 0,-10 -8,8 -8,-7.5 s 8,2.5 8,-7.5 z&#10;"/><path class="blocklyPath" fill="#dbb3bd" d="m 0,0 H 50.88513374328613 v 25 H 0 V 20 c 0,-10 -8,8 -8,-7.5 s 8,2.5 8,-7.5 z&#10;"/><path class="blocklyPathLight" d="m 0.5,0.5 H 50.38513374328613 M 50.38513374328613,0.5 M 0.5,24.5 V 18.5 m -7.36,-0.5 q -1.52,-5.5 0,-11 m 7.36,1 V 0.5 H 1&#10;" style="display: none;"/><g class="blocklyEditableText" transform="translate(10,5)" style="cursor: default;"><rect rx="4" ry="4" x="-5" y="0" height="16" width="40.88513374328613"/><text class="blocklyText" y="12.5" text-anchor="start" x="0">D3<tspan style="fill: rgb(165, 66, 91);"> ▾</tspan></text></g></g><g transform="translate(275.3633632659912,6)"><path class="blocklyPathDark" transform="translate(1,1)" fill="#b3c7db" d="m 0,0 H 28.15253734588623 v 25 H 0 V 20 c 0,-10 -8,8 -8,-7.5 s 8,2.5 8,-7.5 z&#10;"/><path class="blocklyPath" fill="#b3c7db" d="m 0,0 H 28.15253734588623 v 25 H 0 V 20 c 0,-10 -8,8 -8,-7.5 s 8,2.5 8,-7.5 z&#10;"/><path class="blocklyPathLight" d="m 0.5,0.5 H 27.65253734588623 M 27.65253734588623,0.5 M 0.5,24.5 V 18.5 m -7.36,-0.5 q -1.52,-5.5 0,-11 m 7.36,1 V 0.5 H 1&#10;" style="display: none;"/><g class="blocklyEditableText" transform="translate(10,5)" style="cursor: text;"><rect rx="4" ry="4" x="-5" y="0" height="16" width="18.15253734588623"/><text class="blocklyText" y="12.5">0</text></g></g><g class="blocklyDraggable" transform="translate(0,37)"><path class="blocklyPathDark" transform="translate(1,1)" fill="#843535" d="m 0,0 H 15 l 6,4 3,0 6,-4 H 40 H 314.51590061187744 v 36 H 29.5 l -6,4 -3,0 -6,-4 H 0 z&#10;M 203.5423069000244,5 h -52.88513374328613 v 5 c 0,10 -8,-8 -8,7.5 s 8,-2.5 8,7.5 v 7 h 52.88513374328613 z M 304.51590061187744,5 h -30.15253734588623 v 5 c 0,10 -8,-8 -8,7.5 s 8,-2.5 8,7.5 v 7 h 30.15253734588623 z"/><path class="blocklyPath" fill="#a54242" d="m 0,0 H 15 l 6,4 3,0 6,-4 H 40 H 314.51590061187744 v 36 H 29.5 l -6,4 -3,0 -6,-4 H 0 z&#10;M 203.5423069000244,5 h -52.88513374328613 v 5 c 0,10 -8,-8 -8,7.5 s 8,-2.5 8,7.5 v 7 h 52.88513374328613 z M 304.51590061187744,5 h -30.15253734588623 v 5 c 0,10 -8,-8 -8,7.5 s 8,-2.5 8,7.5 v 7 h 30.15253734588623 z"/><path class="blocklyPathLight" stroke="#c07b7b" d="m 0.5,0.5 H 15 l 6,4 3,0 6,-4 H 39.5 M 39.5,0.5 H 314.01590061187744 M 0.5,35.5 V 0.5&#10;M 204.0423069000244,5.5 v 27 h -52.88513374328613 M 145.5571731567383,24.3 l 3.68,-2.1 M 305.01590061187744,5.5 v 27 h -30.15253734588623 M 269.2633632659912,24.3 l 3.68,-2.1"/><g transform="translate(151.65717315673828,6)"><path class="blocklyPathDark" transform="translate(1,1)" fill="#dbb3bd" d="m 0,0 H 50.88513374328613 v 25 H 0 V 20 c 0,-10 -8,8 -8,-7.5 s 8,2.5 8,-7.5 z&#10;"/><path class="blocklyPath" fill="#dbb3bd" d="m 0,0 H 50.88513374328613 v 25 H 0 V 20 c 0,-10 -8,8 -8,-7.5 s 8,2.5 8,-7.5 z&#10;"/><path class="blocklyPathLight" d="m 0.5,0.5 H 50.38513374328613 M 50.38513374328613,0.5 M 0.5,24.5 V 18.5 m -7.36,-0.5 q -1.52,-5.5 0,-11 m 7.36,1 V 0.5 H 1&#10;" style="display: none;"/><g class="blocklyEditableText" transform="translate(10,5)" style="cursor: default;"><rect rx="4" ry="4" x="-5" y="0" height="16" width="40.88513374328613"/><text class="blocklyText" y="12.5" text-anchor="start" x="0">D4<tspan style="fill: rgb(165, 66, 91);"> ▾</tspan></text></g></g><g transform="translate(275.3633632659912,6)"><path class="blocklyPathDark" transform="translate(1,1)" fill="#b3c7db" d="m 0,0 H 28.15253734588623 v 25 H 0 V 20 c 0,-10 -8,8 -8,-7.5 s 8,2.5 8,-7.5 z&#10;"/><path class="blocklyPath" fill="#b3c7db" d="m 0,0 H 28.15253734588623 v 25 H 0 V 20 c 0,-10 -8,8 -8,-7.5 s 8,2.5 8,-7.5 z&#10;"/><path class="blocklyPathLight" d="m 0.5,0.5 H 27.65253734588623 M 27.65253734588623,0.5 M 0.5,24.5 V 18.5 m -7.36,-0.5 q -1.52,-5.5 0,-11 m 7.36,1 V 0.5 H 1&#10;" style="display: none;"/><g class="blocklyEditableText" transform="translate(10,5)" style="cursor: text;"><rect rx="4" ry="4" x="-5" y="0" height="16" width="18.15253734588623"/><text class="blocklyText" y="12.5">0</text></g></g><g class="blocklyDraggable" transform="translate(0,37)"><path class="blocklyPathDark" transform="translate(1,1)" fill="#35844f" d="m 0,0 H 15 l 6,4 3,0 6,-4 H 143.01807403564453 v 25 H 50 l -6,4 -3,0 -6,-4 h -7 a 8,8 0 0,0 -8,8 v 423 a 8,8 0 0,0 8,8 H 143.01807403564453 v 10 H 29.5 l -6,4 -3,0 -6,-4 H 8 a 8,8 0 0,1 -8,-8 z&#10;"/><path class="blocklyPath" fill="#42a563" d="m 0,0 H 15 l 6,4 3,0 6,-4 H 143.01807403564453 v 25 H 50 l -6,4 -3,0 -6,-4 h -7 a 8,8 0 0,0 -8,8 v 423 a 8,8 0 0,0 8,8 H 143.01807403564453 v 10 H 29.5 l -6,4 -3,0 -6,-4 H 8 a 8,8 0 0,1 -8,-8 z&#10;"/><path class="blocklyPathLight" stroke="#7bc092" d="m 0.5,0.5 H 15 l 6,4 3,0 6,-4 H 142.51807403564453 M 142.51807403564453,0.5 M 142.51807403564453,25.5 M 21.989592359914347,462.01040764008565 a 8.5,8.5 0 0,0 6.0104076400856545,2.4895923599143455 H 142.51807403564453 M 2.6966991411008934,471.3033008588991 A 7.5,7.5 0 0,1 0.5,466 V 0.5&#10;"/><g class="blocklyDraggable" transform="translate(21,26)"><path class="blocklyPathDark" transform="translate(1,1)" fill="#35844f" d="m 0,8 A 8,8 0 0,1 8,0 H 15 l 6,4 3,0 6,-4 H 170.16634941101074 v 5 c 0,10 -8,-8 -8,7.5 s 8,-2.5 8,7.5 v 16 H 29.5 l -6,4 -3,0 -6,-4 H 0 z&#10;"/><path class="blocklyPath" fill="#42a563" d="m 0,8 A 8,8 0 0,1 8,0 H 15 l 6,4 3,0 6,-4 H 170.16634941101074 v 5 c 0,10 -8,-8 -8,7.5 s 8,-2.5 8,7.5 v 16 H 29.5 l -6,4 -3,0 -6,-4 H 0 z&#10;"/><path class="blocklyPathLight" stroke="#7bc092" d="m 0.5,7.5 A 7.5,7.5 0 0,1 8,0.5 H 15 l 6,4 3,0 6,-4 H 169.66634941101074 M 169.66634941101074,0.5 M 165.16634941101074,19.3 l 3.68,-2.1 M 0.5,35.5 V 8&#10;"/><g class="blocklyDraggable" transform="translate(171.16634941101074,0)"><path class="blocklyPathDark" transform="translate(1,1)" fill="#35844f" d="m 0,0 H 20 H 161.74992275238037 v 36 H 0 V 20 c 0,-10 -8,8 -8,-7.5 s 8,2.5 8,-7.5 z&#10;M 75.40573501586914,5 h -59.40573501586914 v 5 c 0,10 -8,-8 -8,7.5 s 8,-2.5 8,7.5 v 7 h 59.40573501586914 z M 151.74992275238037,5 h -30.15253734588623 v 5 c 0,10 -8,-8 -8,7.5 s 8,-2.5 8,7.5 v 7 h 30.15253734588623 z"/><path class="blocklyPath" fill="#42a563" d="m 0,0 H 20 H 161.74992275238037 v 36 H 0 V 20 c 0,-10 -8,8 -8,-7.5 s 8,2.5 8,-7.5 z&#10;M 75.40573501586914,5 h -59.40573501586914 v 5 c 0,10 -8,-8 -8,7.5 s 8,-2.5 8,7.5 v 7 h 59.40573501586914 z M 151.74992275238037,5 h -30.15253734588623 v 5 c 0,10 -8,-8 -8,7.5 s 8,-2.5 8,7.5 v 7 h 30.15253734588623 z"/><path class="blocklyPathLight" stroke="#7bc092" d="m 0.5,0.5 H 19.5 M 19.5,0.5 H 161.24992275238037 M 0.5,35.5 V 18.5 m -7.36,-0.5 q -1.52,-5.5 0,-11 m 7.36,1 V 0.5 H 1&#10;M 75.90573501586914,5.5 v 27 h -59.40573501586914 M 10.9,24.3 l 3.68,-2.1 M 152.24992275238037,5.5 v 27 h -30.15253734588623 M 116.49738540649415,24.3 l 3.68,-2.1"/><g class="blocklyDraggable" transform="translate(17,6)"><path class="blocklyPathDark" transform="translate(1,1)" fill="#84357e" d="m 0,0 H 57.40573501586914 v 25 H 0 V 20 c 0,-10 -8,8 -8,-7.5 s 8,2.5 8,-7.5 z&#10;"/><path class="blocklyPath" fill="#a5429d" d="m 0,0 H 57.40573501586914 v 25 H 0 V 20 c 0,-10 -8,8 -8,-7.5 s 8,2.5 8,-7.5 z&#10;"/><path class="blocklyPathLight" stroke="#c07bba" d="m 0.5,0.5 H 56.90573501586914 M 56.90573501586914,0.5 M 0.5,24.5 V 18.5 m -7.36,-0.5 q -1.52,-5.5 0,-11 m 7.36,1 V 0.5 H 1&#10;"/><g class="blocklyEditableText" transform="translate(10,5)" style="cursor: default;"><rect rx="4" ry="4" x="-5" y="0" height="16" width="47.40573501586914"/><text class="blocklyText" y="12.5" text-anchor="start" x="0">turn<tspan style="fill: rgb(165, 66, 157);"> ▾</tspan></text></g></g><g transform="translate(122.59738540649414,6)"><path class="blocklyPathDark" transform="translate(1,1)" fill="#b3c7db" d="m 0,0 H 28.15253734588623 v 25 H 0 V 20 c 0,-10 -8,8 -8,-7.5 s 8,2.5 8,-7.5 z&#10;"/><path class="blocklyPath" fill="#b3c7db" d="m 0,0 H 28.15253734588623 v 25 H 0 V 20 c 0,-10 -8,8 -8,-7.5 s 8,2.5 8,-7.5 z&#10;"/><path class="blocklyPathLight" d="m 0.5,0.5 H 27.65253734588623 M 27.65253734588623,0.5 M 0.5,24.5 V 18.5 m -7.36,-0.5 q -1.52,-5.5 0,-11 m 7.36,1 V 0.5 H 1&#10;" style="display: none;"/><g class="blocklyEditableText" transform="translate(10,5)" style="cursor: text;"><rect rx="4" ry="4" x="-5" y="0" height="16" width="18.15253734588623"/><text class="blocklyText" y="12.5">0</text></g></g><g class="blocklyEditableText" transform="translate(85.40573501586914,10)" style="cursor: default;"><rect rx="4" ry="4" x="-5" y="0" height="16" width="30.191650390625"/><text class="blocklyText" y="12.5" text-anchor="start" x="0">≠<tspan style="fill: rgb(66, 165, 99);"> ▾</tspan></text></g></g><g class="blocklyDraggable" transform="translate(0,37)"><path class="blocklyPathDark" transform="translate(1,1)" fill="#35844f" d="m 0,0 H 15 l 6,4 3,0 6,-4 H 109.49417877197266 v 5 c 0,10 -8,-8 -8,7.5 s 8,-2.5 8,7.5 v 16 H 109.49417877197266 l -6,4 -3,0 -6,-4 h -7 a 8,8 0 0,0 -8,8 v 40 a 8,8 0 0,0 8,8 H 109.49417877197266 v 10 H 109.49417877197266 l -6,4 -3,0 -6,-4 h -7 a 8,8 0 0,0 -8,8 v 39 a 8,8 0 0,0 8,8 H 109.49417877197266 v 10 H 29.5 l -6,4 -3,0 -6,-4 H 0 z&#10;"/><path class="blocklyPath" fill="#42a563" d="m 0,0 H 15 l 6,4 3,0 6,-4 H 109.49417877197266 v 5 c 0,10 -8,-8 -8,7.5 s 8,-2.5 8,7.5 v 16 H 109.49417877197266 l -6,4 -3,0 -6,-4 h -7 a 8,8 0 0,0 -8,8 v 40 a 8,8 0 0,0 8,8 H 109.49417877197266 v 10 H 109.49417877197266 l -6,4 -3,0 -6,-4 h -7 a 8,8 0 0,0 -8,8 v 39 a 8,8 0 0,0 8,8 H 109.49417877197266 v 10 H 29.5 l -6,4 -3,0 -6,-4 H 0 z&#10;"/><path class="blocklyPathLight" stroke="#7bc092" d="m 0.5,0.5 H 15 l 6,4 3,0 6,-4 H 108.99417877197266 M 108.99417877197266,0.5 M 104.49417877197266,19.3 l 3.68,-2.1 M 108.99417877197266,36.5 M 81.483771131887,90.01040764008566 a 8.5,8.5 0 0,0 6.0104076400856545,2.4895923599143455 H 108.99417877197266 M 108.99417877197266,102.5 M 81.483771131887,155.01040764008565 a 8.5,8.5 0 0,0 6.0104076400856545,2.4895923599143455 H 108.99417877197266 M 0.5,166.5 V 0.5&#10;"/><g class="blocklyDraggable" transform="translate(110.49417877197266,0)"><path class="blocklyPathDark" transform="translate(1,1)" fill="#35844f" d="m 0,0 H 20 H 162.26527309417725 v 36 H 0 V 20 c 0,-10 -8,8 -8,-7.5 s 8,2.5 8,-7.5 z&#10;M 75.40573501586914,5 h -59.40573501586914 v 5 c 0,10 -8,-8 -8,7.5 s 8,-2.5 8,7.5 v 7 h 59.40573501586914 z M 152.26527309417725,5 h -30.15253734588623 v 5 c 0,10 -8,-8 -8,7.5 s 8,-2.5 8,7.5 v 7 h 30.15253734588623 z"/><path class="blocklyPath" fill="#42a563" d="m 0,0 H 20 H 162.26527309417725 v 36 H 0 V 20 c 0,-10 -8,8 -8,-7.5 s 8,2.5 8,-7.5 z&#10;M 75.40573501586914,5 h -59.40573501586914 v 5 c 0,10 -8,-8 -8,7.5 s 8,-2.5 8,7.5 v 7 h 59.40573501586914 z M 152.26527309417725,5 h -30.15253734588623 v 5 c 0,10 -8,-8 -8,7.5 s 8,-2.5 8,7.5 v 7 h 30.15253734588623 z"/><path class="blocklyPathLight" stroke="#7bc092" d="m 0.5,0.5 H 19.5 M 19.5,0.5 H 161.76527309417725 M 0.5,35.5 V 18.5 m -7.36,-0.5 q -1.52,-5.5 0,-11 m 7.36,1 V 0.5 H 1&#10;M 75.90573501586914,5.5 v 27 h -59.40573501586914 M 10.9,24.3 l 3.68,-2.1 M 152.76527309417725,5.5 v 27 h -30.15253734588623 M 117.01273574829102,24.3 l 3.68,-2.1"/><g class="blocklyDraggable" transform="translate(17,6)"><path class="blocklyPathDark" transform="translate(1,1)" fill="#84357e" d="m 0,0 H 57.40573501586914 v 25 H 0 V 20 c 0,-10 -8,8 -8,-7.5 s 8,2.5 8,-7.5 z&#10;"/><path class="blocklyPath" fill="#a5429d" d="m 0,0 H 57.40573501586914 v 25 H 0 V 20 c 0,-10 -8,8 -8,-7.5 s 8,2.5 8,-7.5 z&#10;"/><path class="blocklyPathLight" stroke="#c07bba" d="m 0.5,0.5 H 56.90573501586914 M 56.90573501586914,0.5 M 0.5,24.5 V 18.5 m -7.36,-0.5 q -1.52,-5.5 0,-11 m 7.36,1 V 0.5 H 1&#10;"/><g class="blocklyEditableText" transform="translate(10,5)" style="cursor: default;"><rect rx="4" ry="4" x="-5" y="0" height="16" width="47.40573501586914"/><text class="blocklyText" y="12.5" text-anchor="start" x="0">turn<tspan style="fill: rgb(165, 66, 157);"> ▾</tspan></text></g></g><g transform="translate(123.11273574829102,6)"><path class="blocklyPathDark" transform="translate(1,1)" fill="#b3c7db" d="m 0,0 H 28.15253734588623 v 25 H 0 V 20 c 0,-10 -8,8 -8,-7.5 s 8,2.5 8,-7.5 z&#10;"/><path class="blocklyPath" fill="#b3c7db" d="m 0,0 H 28.15253734588623 v 25 H 0 V 20 c 0,-10 -8,8 -8,-7.5 s 8,2.5 8,-7.5 z&#10;"/><path class="blocklyPathLight" d="m 0.5,0.5 H 27.65253734588623 M 27.65253734588623,0.5 M 0.5,24.5 V 18.5 m -7.36,-0.5 q -1.52,-5.5 0,-11 m 7.36,1 V 0.5 H 1&#10;" style="display: none;"/><g class="blocklyEditableText" transform="translate(10,5)" style="cursor: text;"><rect rx="4" ry="4" x="-5" y="0" height="16" width="18.15253734588623"/><text class="blocklyText" y="12.5">0</text></g></g><g class="blocklyEditableText" transform="translate(85.40573501586914,10)" style="cursor: default;"><rect rx="4" ry="4" x="-5" y="0" height="16" width="30.707000732421875"/><text class="blocklyText" y="12.5" text-anchor="start" x="0">&gt;<tspan style="fill: rgb(66, 165, 99);"> ▾</tspan></text></g></g><g class="blocklyDraggable" transform="translate(80.49417877197266,37)"><path class="blocklyPathDark" transform="translate(1,1)" fill="#843535" d="m 0,8 A 8,8 0 0,1 8,0 H 15 l 6,4 3,0 6,-4 H 152.65717315673828 v 5 c 0,10 -8,-8 -8,7.5 s 8,-2.5 8,7.5 v 6 v 5 c 0,10 -8,-8 -8,7.5 s 8,-2.5 8,7.5 v 5 H 29.5 l -6,4 -3,0 -6,-4 H 8 a 8,8 0 0,1 -8,-8 z&#10;"/><path class="blocklyPath" fill="#a54242" d="m 0,8 A 8,8 0 0,1 8,0 H 15 l 6,4 3,0 6,-4 H 152.65717315673828 v 5 c 0,10 -8,-8 -8,7.5 s 8,-2.5 8,7.5 v 6 v 5 c 0,10 -8,-8 -8,7.5 s 8,-2.5 8,7.5 v 5 H 29.5 l -6,4 -3,0 -6,-4 H 8 a 8,8 0 0,1 -8,-8 z&#10;"/><path class="blocklyPathLight" stroke="#c07b7b" d="m 0.5,7.5 A 7.5,7.5 0 0,1 8,0.5 H 15 l 6,4 3,0 6,-4 H 152.15717315673828 M 152.15717315673828,0.5 M 147.65717315673828,19.3 l 3.68,-2.1 M 152.15717315673828,26.5 M 147.65717315673828,45.3 l 3.68,-2.1 M 2.6966991411008934,48.30330085889911 A 7.5,7.5 0 0,1 0.5,43 V 8&#10;"/><g transform="translate(153.65717315673828,0)"><path class="blocklyPathDark" transform="translate(1,1)" fill="#dbb3bd" d="m 0,0 H 50.88513374328613 v 25 H 0 V 20 c 0,-10 -8,8 -8,-7.5 s 8,2.5 8,-7.5 z&#10;"/><path class="blocklyPath" fill="#dbb3bd" d="m 0,0 H 50.88513374328613 v 25 H 0 V 20 c 0,-10 -8,8 -8,-7.5 s 8,2.5 8,-7.5 z&#10;"/><path class="blocklyPathLight" d="m 0.5,0.5 H 50.38513374328613 M 50.38513374328613,0.5 M 0.5,24.5 V 18.5 m -7.36,-0.5 q -1.52,-5.5 0,-11 m 7.36,1 V 0.5 H 1&#10;" style="display: none;"/><g class="blocklyEditableText" transform="translate(10,5)" style="cursor: default;"><rect rx="4" ry="4" x="-5" y="0" height="16" width="40.88513374328613"/><text class="blocklyText" y="12.5" text-anchor="start" x="0">D3<tspan style="fill: rgb(165, 66, 91);"> ▾</tspan></text></g></g><g transform="translate(153.65717315673828,26)"><path class="blocklyPathDark" transform="translate(1,1)" fill="#b3c7db" d="m 0,0 H 36.30507469177246 v 25 H 0 V 20 c 0,-10 -8,8 -8,-7.5 s 8,2.5 8,-7.5 z&#10;"/><path class="blocklyPath" fill="#b3c7db" d="m 0,0 H 36.30507469177246 v 25 H 0 V 20 c 0,-10 -8,8 -8,-7.5 s 8,2.5 8,-7.5 z&#10;"/><path class="blocklyPathLight" d="m 0.5,0.5 H 35.80507469177246 M 35.80507469177246,0.5 M 0.5,24.5 V 18.5 m -7.36,-0.5 q -1.52,-5.5 0,-11 m 7.36,1 V 0.5 H 1&#10;" style="display: none;"/><g class="blocklyEditableText" transform="translate(10,5)" style="cursor: text;"><rect rx="4" ry="4" x="-5" y="0" height="16" width="26.30507469177246"/><text class="blocklyText" y="12.5">90</text></g></g><text class="blocklyText" y="12.5" transform="translate(10,5)">mover servo en pin</text><text class="blocklyText" y="12.5" transform="translate(10,31)">grados</text></g><g class="blocklyDraggable" transform="translate(80.49417877197266,103)"><path class="blocklyPathDark" transform="translate(1,1)" fill="#843535" d="m 0,8 A 8,8 0 0,1 8,0 H 15 l 6,4 3,0 6,-4 H 152.65717315673828 v 5 c 0,10 -8,-8 -8,7.5 s 8,-2.5 8,7.5 v 6 v 5 c 0,10 -8,-8 -8,7.5 s 8,-2.5 8,7.5 v 5 H 29.5 l -6,4 -3,0 -6,-4 H 8 a 8,8 0 0,1 -8,-8 z&#10;"/><path class="blocklyPath" fill="#a54242" d="m 0,8 A 8,8 0 0,1 8,0 H 15 l 6,4 3,0 6,-4 H 152.65717315673828 v 5 c 0,10 -8,-8 -8,7.5 s 8,-2.5 8,7.5 v 6 v 5 c 0,10 -8,-8 -8,7.5 s 8,-2.5 8,7.5 v 5 H 29.5 l -6,4 -3,0 -6,-4 H 8 a 8,8 0 0,1 -8,-8 z&#10;"/><path class="blocklyPathLight" stroke="#c07b7b" d="m 0.5,7.5 A 7.5,7.5 0 0,1 8,0.5 H 15 l 6,4 3,0 6,-4 H 152.15717315673828 M 152.15717315673828,0.5 M 147.65717315673828,19.3 l 3.68,-2.1 M 152.15717315673828,26.5 M 147.65717315673828,45.3 l 3.68,-2.1 M 2.6966991411008934,48.30330085889911 A 7.5,7.5 0 0,1 0.5,43 V 8&#10;"/><g transform="translate(153.65717315673828,0)"><path class="blocklyPathDark" transform="translate(1,1)" fill="#dbb3bd" d="m 0,0 H 50.88513374328613 v 25 H 0 V 20 c 0,-10 -8,8 -8,-7.5 s 8,2.5 8,-7.5 z&#10;"/><path class="blocklyPath" fill="#dbb3bd" d="m 0,0 H 50.88513374328613 v 25 H 0 V 20 c 0,-10 -8,8 -8,-7.5 s 8,2.5 8,-7.5 z&#10;"/><path class="blocklyPathLight" d="m 0.5,0.5 H 50.38513374328613 M 50.38513374328613,0.5 M 0.5,24.5 V 18.5 m -7.36,-0.5 q -1.52,-5.5 0,-11 m 7.36,1 V 0.5 H 1&#10;" style="display: none;"/><g class="blocklyEditableText" transform="translate(10,5)" style="cursor: default;"><rect rx="4" ry="4" x="-5" y="0" height="16" width="40.88513374328613"/><text class="blocklyText" y="12.5" text-anchor="start" x="0">D4<tspan style="fill: rgb(165, 66, 91);"> ▾</tspan></text></g></g><g transform="translate(153.65717315673828,26)"><path class="blocklyPathDark" transform="translate(1,1)" fill="#b3c7db" d="m 0,0 H 36.30507469177246 v 25 H 0 V 20 c 0,-10 -8,8 -8,-7.5 s 8,2.5 8,-7.5 z&#10;"/><path class="blocklyPath" fill="#b3c7db" d="m 0,0 H 36.30507469177246 v 25 H 0 V 20 c 0,-10 -8,8 -8,-7.5 s 8,2.5 8,-7.5 z&#10;"/><path class="blocklyPathLight" d="m 0.5,0.5 H 35.80507469177246 M 35.80507469177246,0.5 M 0.5,24.5 V 18.5 m -7.36,-0.5 q -1.52,-5.5 0,-11 m 7.36,1 V 0.5 H 1&#10;" style="display: none;"/><g class="blocklyEditableText" transform="translate(10,5)" style="cursor: text;"><rect rx="4" ry="4" x="-5" y="0" height="16" width="26.30507469177246"/><text class="blocklyText" y="12.5">90</text></g></g><text class="blocklyText" y="12.5" transform="translate(10,5)">mover servo en pin</text><text class="blocklyText" y="12.5" transform="translate(10,31)">grados</text></g><g class="blocklyDraggable" transform="translate(0,168)"><path class="blocklyPathDark" transform="translate(1,1)" fill="#35844f" d="m 0,0 H 15 l 6,4 3,0 6,-4 H 40 H 213.8008327484131 v 36 H 29.5 l -6,4 -3,0 -6,-4 H 0 z&#10;M 118.08031272888184,5 h -42.37775230407715 v 5 c 0,10 -8,-8 -8,7.5 s 8,-2.5 8,7.5 v 7 h 42.37775230407715 z"/><path class="blocklyPath" fill="#42a563" d="m 0,0 H 15 l 6,4 3,0 6,-4 H 40 H 213.8008327484131 v 36 H 29.5 l -6,4 -3,0 -6,-4 H 0 z&#10;M 118.08031272888184,5 h -42.37775230407715 v 5 c 0,10 -8,-8 -8,7.5 s 8,-2.5 8,7.5 v 7 h 42.37775230407715 z"/><path class="blocklyPathLight" stroke="#7bc092" d="m 0.5,0.5 H 15 l 6,4 3,0 6,-4 H 39.5 M 39.5,0.5 H 213.3008327484131 M 0.5,35.5 V 0.5&#10;M 118.58031272888184,5.5 v 27 h -42.37775230407715 M 70.6025604248047,24.3 l 3.68,-2.1"/><g transform="translate(76.70256042480469,6)"><path class="blocklyPathDark" transform="translate(1,1)" fill="#b3c7db" d="m 0,0 H 40.37775230407715 v 25 H 0 V 20 c 0,-10 -8,8 -8,-7.5 s 8,2.5 8,-7.5 z&#10;"/><path class="blocklyPath" fill="#b3c7db" d="m 0,0 H 40.37775230407715 v 25 H 0 V 20 c 0,-10 -8,8 -8,-7.5 s 8,2.5 8,-7.5 z&#10;"/><path class="blocklyPathLight" d="m 0.5,0.5 H 39.87775230407715 M 39.87775230407715,0.5 M 0.5,24.5 V 18.5 m -7.36,-0.5 q -1.52,-5.5 0,-11 m 7.36,1 V 0.5 H 1&#10;" style="display: none;"/><g class="blocklyEditableText" transform="translate(10,5)" style="cursor: text;"><rect rx="4" ry="4" x="-5" y="0" height="16" width="30.37775230407715"/><text class="blocklyText" y="12.5">1.5</text></g></g><g class="blocklyDraggable" transform="translate(0,37)"><path class="blocklyPathDark" transform="translate(1,1)" fill="#35844f" d="m 0,0 H 15 l 6,4 3,0 6,-4 H 109.49417877197266 v 5 c 0,10 -8,-8 -8,7.5 s 8,-2.5 8,7.5 v 16 H 109.49417877197266 l -6,4 -3,0 -6,-4 h -7 a 8,8 0 0,0 -8,8 v 40 a 8,8 0 0,0 8,8 H 109.49417877197266 v 10 H 109.49417877197266 l -6,4 -3,0 -6,-4 h -7 a 8,8 0 0,0 -8,8 v 39 a 8,8 0 0,0 8,8 H 109.49417877197266 v 10 H 29.5 l -6,4 -3,0 -6,-4 H 0 z&#10;"/><path class="blocklyPath" fill="#42a563" d="m 0,0 H 15 l 6,4 3,0 6,-4 H 109.49417877197266 v 5 c 0,10 -8,-8 -8,7.5 s 8,-2.5 8,7.5 v 16 H 109.49417877197266 l -6,4 -3,0 -6,-4 h -7 a 8,8 0 0,0 -8,8 v 40 a 8,8 0 0,0 8,8 H 109.49417877197266 v 10 H 109.49417877197266 l -6,4 -3,0 -6,-4 h -7 a 8,8 0 0,0 -8,8 v 39 a 8,8 0 0,0 8,8 H 109.49417877197266 v 10 H 29.5 l -6,4 -3,0 -6,-4 H 0 z&#10;"/><path class="blocklyPathLight" stroke="#7bc092" d="m 0.5,0.5 H 15 l 6,4 3,0 6,-4 H 108.99417877197266 M 108.99417877197266,0.5 M 104.49417877197266,19.3 l 3.68,-2.1 M 108.99417877197266,36.5 M 81.483771131887,90.01040764008566 a 8.5,8.5 0 0,0 6.0104076400856545,2.4895923599143455 H 108.99417877197266 M 108.99417877197266,102.5 M 81.483771131887,155.01040764008565 a 8.5,8.5 0 0,0 6.0104076400856545,2.4895923599143455 H 108.99417877197266 M 0.5,166.5 V 0.5&#10;"/><g class="blocklyDraggable" transform="translate(110.49417877197266,0)"><path class="blocklyPathDark" transform="translate(1,1)" fill="#35844f" d="m 0,0 H 20 H 162.26527309417725 v 36 H 0 V 20 c 0,-10 -8,8 -8,-7.5 s 8,2.5 8,-7.5 z&#10;M 75.40573501586914,5 h -59.40573501586914 v 5 c 0,10 -8,-8 -8,7.5 s 8,-2.5 8,7.5 v 7 h 59.40573501586914 z M 152.26527309417725,5 h -30.15253734588623 v 5 c 0,10 -8,-8 -8,7.5 s 8,-2.5 8,7.5 v 7 h 30.15253734588623 z"/><path class="blocklyPath" fill="#42a563" d="m 0,0 H 20 H 162.26527309417725 v 36 H 0 V 20 c 0,-10 -8,8 -8,-7.5 s 8,2.5 8,-7.5 z&#10;M 75.40573501586914,5 h -59.40573501586914 v 5 c 0,10 -8,-8 -8,7.5 s 8,-2.5 8,7.5 v 7 h 59.40573501586914 z M 152.26527309417725,5 h -30.15253734588623 v 5 c 0,10 -8,-8 -8,7.5 s 8,-2.5 8,7.5 v 7 h 30.15253734588623 z"/><path class="blocklyPathLight" stroke="#7bc092" d="m 0.5,0.5 H 19.5 M 19.5,0.5 H 161.76527309417725 M 0.5,35.5 V 18.5 m -7.36,-0.5 q -1.52,-5.5 0,-11 m 7.36,1 V 0.5 H 1&#10;M 75.90573501586914,5.5 v 27 h -59.40573501586914 M 10.9,24.3 l 3.68,-2.1 M 152.76527309417725,5.5 v 27 h -30.15253734588623 M 117.01273574829102,24.3 l 3.68,-2.1"/><g class="blocklyDraggable" transform="translate(17,6)"><path class="blocklyPathDark" transform="translate(1,1)" fill="#84357e" d="m 0,0 H 57.40573501586914 v 25 H 0 V 20 c 0,-10 -8,8 -8,-7.5 s 8,2.5 8,-7.5 z&#10;"/><path class="blocklyPath" fill="#a5429d" d="m 0,0 H 57.40573501586914 v 25 H 0 V 20 c 0,-10 -8,8 -8,-7.5 s 8,2.5 8,-7.5 z&#10;"/><path class="blocklyPathLight" stroke="#c07bba" d="m 0.5,0.5 H 56.90573501586914 M 56.90573501586914,0.5 M 0.5,24.5 V 18.5 m -7.36,-0.5 q -1.52,-5.5 0,-11 m 7.36,1 V 0.5 H 1&#10;"/><g class="blocklyEditableText" transform="translate(10,5)" style="cursor: default;"><rect rx="4" ry="4" x="-5" y="0" height="16" width="47.40573501586914"/><text class="blocklyText" y="12.5" text-anchor="start" x="0">turn<tspan style="fill: rgb(165, 66, 157);"> ▾</tspan></text></g></g><g transform="translate(123.11273574829102,6)"><path class="blocklyPathDark" transform="translate(1,1)" fill="#b3c7db" d="m 0,0 H 28.15253734588623 v 25 H 0 V 20 c 0,-10 -8,8 -8,-7.5 s 8,2.5 8,-7.5 z&#10;"/><path class="blocklyPath" fill="#b3c7db" d="m 0,0 H 28.15253734588623 v 25 H 0 V 20 c 0,-10 -8,8 -8,-7.5 s 8,2.5 8,-7.5 z&#10;"/><path class="blocklyPathLight" d="m 0.5,0.5 H 27.65253734588623 M 27.65253734588623,0.5 M 0.5,24.5 V 18.5 m -7.36,-0.5 q -1.52,-5.5 0,-11 m 7.36,1 V 0.5 H 1&#10;" style="display: none;"/><g class="blocklyEditableText" transform="translate(10,5)" style="cursor: text;"><rect rx="4" ry="4" x="-5" y="0" height="16" width="18.15253734588623"/><text class="blocklyText" y="12.5">0</text></g></g><g class="blocklyEditableText" transform="translate(85.40573501586914,10)" style="cursor: default;"><rect rx="4" ry="4" x="-5" y="0" height="16" width="30.707000732421875"/><text class="blocklyText" y="12.5" text-anchor="start" x="0">&gt;<tspan style="fill: rgb(66, 165, 99);"> ▾</tspan></text></g></g><g class="blocklyDraggable" transform="translate(80.49417877197266,37)"><path class="blocklyPathDark" transform="translate(1,1)" fill="#843535" d="m 0,8 A 8,8 0 0,1 8,0 H 15 l 6,4 3,0 6,-4 H 152.65717315673828 v 5 c 0,10 -8,-8 -8,7.5 s 8,-2.5 8,7.5 v 6 v 5 c 0,10 -8,-8 -8,7.5 s 8,-2.5 8,7.5 v 5 H 29.5 l -6,4 -3,0 -6,-4 H 8 a 8,8 0 0,1 -8,-8 z&#10;"/><path class="blocklyPath" fill="#a54242" d="m 0,8 A 8,8 0 0,1 8,0 H 15 l 6,4 3,0 6,-4 H 152.65717315673828 v 5 c 0,10 -8,-8 -8,7.5 s 8,-2.5 8,7.5 v 6 v 5 c 0,10 -8,-8 -8,7.5 s 8,-2.5 8,7.5 v 5 H 29.5 l -6,4 -3,0 -6,-4 H 8 a 8,8 0 0,1 -8,-8 z&#10;"/><path class="blocklyPathLight" stroke="#c07b7b" d="m 0.5,7.5 A 7.5,7.5 0 0,1 8,0.5 H 15 l 6,4 3,0 6,-4 H 152.15717315673828 M 152.15717315673828,0.5 M 147.65717315673828,19.3 l 3.68,-2.1 M 152.15717315673828,26.5 M 147.65717315673828,45.3 l 3.68,-2.1 M 2.6966991411008934,48.30330085889911 A 7.5,7.5 0 0,1 0.5,43 V 8&#10;"/><g transform="translate(153.65717315673828,0)"><path class="blocklyPathDark" transform="translate(1,1)" fill="#dbb3bd" d="m 0,0 H 50.88513374328613 v 25 H 0 V 20 c 0,-10 -8,8 -8,-7.5 s 8,2.5 8,-7.5 z&#10;"/><path class="blocklyPath" fill="#dbb3bd" d="m 0,0 H 50.88513374328613 v 25 H 0 V 20 c 0,-10 -8,8 -8,-7.5 s 8,2.5 8,-7.5 z&#10;"/><path class="blocklyPathLight" d="m 0.5,0.5 H 50.38513374328613 M 50.38513374328613,0.5 M 0.5,24.5 V 18.5 m -7.36,-0.5 q -1.52,-5.5 0,-11 m 7.36,1 V 0.5 H 1&#10;" style="display: none;"/><g class="blocklyEditableText" transform="translate(10,5)" style="cursor: default;"><rect rx="4" ry="4" x="-5" y="0" height="16" width="40.88513374328613"/><text class="blocklyText" y="12.5" text-anchor="start" x="0">D3<tspan style="fill: rgb(165, 66, 91);"> ▾</tspan></text></g></g><g transform="translate(153.65717315673828,26)"><path class="blocklyPathDark" transform="translate(1,1)" fill="#b3c7db" d="m 0,0 H 28.15253734588623 v 25 H 0 V 20 c 0,-10 -8,8 -8,-7.5 s 8,2.5 8,-7.5 z&#10;"/><path class="blocklyPath" fill="#b3c7db" d="m 0,0 H 28.15253734588623 v 25 H 0 V 20 c 0,-10 -8,8 -8,-7.5 s 8,2.5 8,-7.5 z&#10;"/><path class="blocklyPathLight" d="m 0.5,0.5 H 27.65253734588623 M 27.65253734588623,0.5 M 0.5,24.5 V 18.5 m -7.36,-0.5 q -1.52,-5.5 0,-11 m 7.36,1 V 0.5 H 1&#10;" style="display: none;"/><g class="blocklyEditableText" transform="translate(10,5)" style="cursor: text;"><rect rx="4" ry="4" x="-5" y="0" height="16" width="18.15253734588623"/><text class="blocklyText" y="12.5">0</text></g></g><text class="blocklyText" y="12.5" transform="translate(10,5)">mover servo en pin</text><text class="blocklyText" y="12.5" transform="translate(10,31)">grados</text></g><g class="blocklyDraggable" transform="translate(80.49417877197266,103)"><path class="blocklyPathDark" transform="translate(1,1)" fill="#843535" d="m 0,8 A 8,8 0 0,1 8,0 H 15 l 6,4 3,0 6,-4 H 152.65717315673828 v 5 c 0,10 -8,-8 -8,7.5 s 8,-2.5 8,7.5 v 6 v 5 c 0,10 -8,-8 -8,7.5 s 8,-2.5 8,7.5 v 5 H 29.5 l -6,4 -3,0 -6,-4 H 8 a 8,8 0 0,1 -8,-8 z&#10;"/><path class="blocklyPath" fill="#a54242" d="m 0,8 A 8,8 0 0,1 8,0 H 15 l 6,4 3,0 6,-4 H 152.65717315673828 v 5 c 0,10 -8,-8 -8,7.5 s 8,-2.5 8,7.5 v 6 v 5 c 0,10 -8,-8 -8,7.5 s 8,-2.5 8,7.5 v 5 H 29.5 l -6,4 -3,0 -6,-4 H 8 a 8,8 0 0,1 -8,-8 z&#10;"/><path class="blocklyPathLight" stroke="#c07b7b" d="m 0.5,7.5 A 7.5,7.5 0 0,1 8,0.5 H 15 l 6,4 3,0 6,-4 H 152.15717315673828 M 152.15717315673828,0.5 M 147.65717315673828,19.3 l 3.68,-2.1 M 152.15717315673828,26.5 M 147.65717315673828,45.3 l 3.68,-2.1 M 2.6966991411008934,48.30330085889911 A 7.5,7.5 0 0,1 0.5,43 V 8&#10;"/><g transform="translate(153.65717315673828,0)"><path class="blocklyPathDark" transform="translate(1,1)" fill="#dbb3bd" d="m 0,0 H 50.88513374328613 v 25 H 0 V 20 c 0,-10 -8,8 -8,-7.5 s 8,2.5 8,-7.5 z&#10;"/><path class="blocklyPath" fill="#dbb3bd" d="m 0,0 H 50.88513374328613 v 25 H 0 V 20 c 0,-10 -8,8 -8,-7.5 s 8,2.5 8,-7.5 z&#10;"/><path class="blocklyPathLight" d="m 0.5,0.5 H 50.38513374328613 M 50.38513374328613,0.5 M 0.5,24.5 V 18.5 m -7.36,-0.5 q -1.52,-5.5 0,-11 m 7.36,1 V 0.5 H 1&#10;" style="display: none;"/><g class="blocklyEditableText" transform="translate(10,5)" style="cursor: default;"><rect rx="4" ry="4" x="-5" y="0" height="16" width="40.88513374328613"/><text class="blocklyText" y="12.5" text-anchor="start" x="0">D4<tspan style="fill: rgb(165, 66, 91);"> ▾</tspan></text></g></g><g transform="translate(153.65717315673828,26)"><path class="blocklyPathDark" transform="translate(1,1)" fill="#b3c7db" d="m 0,0 H 28.15253734588623 v 25 H 0 V 20 c 0,-10 -8,8 -8,-7.5 s 8,2.5 8,-7.5 z&#10;"/><path class="blocklyPath" fill="#b3c7db" d="m 0,0 H 28.15253734588623 v 25 H 0 V 20 c 0,-10 -8,8 -8,-7.5 s 8,2.5 8,-7.5 z&#10;"/><path class="blocklyPathLight" d="m 0.5,0.5 H 27.65253734588623 M 27.65253734588623,0.5 M 0.5,24.5 V 18.5 m -7.36,-0.5 q -1.52,-5.5 0,-11 m 7.36,1 V 0.5 H 1&#10;" style="display: none;"/><g class="blocklyEditableText" transform="translate(10,5)" style="cursor: text;"><rect rx="4" ry="4" x="-5" y="0" height="16" width="18.15253734588623"/><text class="blocklyText" y="12.5">0</text></g></g><text class="blocklyText" y="12.5" transform="translate(10,5)">mover servo en pin</text><text class="blocklyText" y="12.5" transform="translate(10,31)">grados</text></g><g class="blocklyDraggable" transform="translate(0,168)"><path class="blocklyPathDark" transform="translate(1,1)" fill="#84357e" d="m 0,0 H 15 l 6,4 3,0 6,-4 H 161.19066524505615 v 5 c 0,10 -8,-8 -8,7.5 s 8,-2.5 8,7.5 v 5 H 29.5 l -6,4 -3,0 -6,-4 H 8 a 8,8 0 0,1 -8,-8 z&#10;"/><path class="blocklyPath" fill="#a5429d" d="m 0,0 H 15 l 6,4 3,0 6,-4 H 161.19066524505615 v 5 c 0,10 -8,-8 -8,7.5 s 8,-2.5 8,7.5 v 5 H 29.5 l -6,4 -3,0 -6,-4 H 8 a 8,8 0 0,1 -8,-8 z&#10;"/><path class="blocklyPathLight" stroke="#c07bba" d="m 0.5,0.5 H 15 l 6,4 3,0 6,-4 H 160.69066524505615 M 160.69066524505615,0.5 M 156.19066524505615,19.3 l 3.68,-2.1 M 2.6966991411008934,22.303300858899107 A 7.5,7.5 0 0,1 0.5,17 V 0.5&#10;"/><g transform="translate(162.19066524505615,0)"><path class="blocklyPathDark" transform="translate(1,1)" fill="#b3c7db" d="m 0,0 H 28.15253734588623 v 25 H 0 V 20 c 0,-10 -8,8 -8,-7.5 s 8,2.5 8,-7.5 z&#10;"/><path class="blocklyPath" fill="#b3c7db" d="m 0,0 H 28.15253734588623 v 25 H 0 V 20 c 0,-10 -8,8 -8,-7.5 s 8,2.5 8,-7.5 z&#10;"/><path class="blocklyPathLight" d="m 0.5,0.5 H 27.65253734588623 M 27.65253734588623,0.5 M 0.5,24.5 V 18.5 m -7.36,-0.5 q -1.52,-5.5 0,-11 m 7.36,1 V 0.5 H 1&#10;" style="display: none;"/><g class="blocklyEditableText" transform="translate(10,5)" style="cursor: text;"><rect rx="4" ry="4" x="-5" y="0" height="16" width="18.15253734588623"/><text class="blocklyText" y="12.5">0</text></g></g><text class="blocklyText" y="12.5" transform="translate(10,5)">establecer</text><g class="blocklyEditableText" transform="translate(87.63239288330078,5)" style="cursor: default;"><rect rx="4" ry="4" x="-5" y="0" height="16" width="47.40573501586914"/><text class="blocklyText" y="12.5" text-anchor="start" x="0">turn<tspan style="fill: rgb(165, 66, 157);"> ▾</tspan></text></g><text class="blocklyText" y="12.5" transform="translate(135.03812789916992,5)">a</text></g><text class="blocklyText" y="12.5" transform="translate(10,5)">si</text><text class="blocklyText" y="12.5" transform="translate(10,41)">entonces</text><text class="blocklyText" y="12.5" transform="translate(10,107)">si no</text></g><text class="blocklyText" y="12.5" transform="translate(10,10)">esperar</text><g class="blocklyEditableText" transform="translate(128.08031272888184,10)" style="cursor: default;"><rect rx="4" ry="4" x="-5" y="0" height="16" width="85.72052001953125"/><text class="blocklyText" y="12.5" text-anchor="start" x="0">segundos<tspan style="fill: rgb(66, 165, 99);"> ▾</tspan></text></g></g><text class="blocklyText" y="12.5" transform="translate(10,5)">si</text><text class="blocklyText" y="12.5" transform="translate(10,41)">entonces</text><text class="blocklyText" y="12.5" transform="translate(10,107)">si no</text></g><text class="blocklyText" y="12.5" transform="translate(10,5)">esperar</text><g class="blocklyEditableText" transform="translate(69.70256042480469,5)" style="cursor: default;"><rect rx="4" ry="4" x="-5" y="0" height="16" width="58.00617599487305"/><text class="blocklyText" y="12.5" text-anchor="start" x="0">hasta<tspan style="fill: rgb(66, 165, 99);"> ▾</tspan></text></g><text class="blocklyText" y="12.5" transform="translate(127.70873641967773,5)">que</text></g><text class="blocklyText" y="12.5" transform="translate(10,5)">repetir por siempre</text></g><text class="blocklyText" y="12.5" transform="translate(10,10)">mover servo en pin</text><text class="blocklyText" y="12.5" transform="translate(213.5423069000244,10)">grados</text></g><text class="blocklyText" y="12.5" transform="translate(10,10)">mover servo en pin</text><text class="blocklyText" y="12.5" transform="translate(213.5423069000244,10)">grados</text></g><text class="blocklyText" y="12.5" transform="translate(10,5)">tarea llamada</text><g class="blocklyEditableText" transform="translate(108.8189468383789,5)" style="cursor: text;"><rect rx="4" ry="4" x="-5" y="0" height="16" width="66.22312545776367"/><text class="blocklyText" y="12.5">turn sign</text></g></g></g></svg>