<svg version="1.1" xmlns="http://www.w3.org/2000/svg" xmlns:xlink="http://www.w3.org/1999/xlink" width="741.995361328125" height="588" viewBox=" -7 1.0452789068222046 741.995361328125 588"><defs><style type="text/css" xmlns="http://www.w3.org/1999/xhtml"><![CDATA[.blocklySvg {background-color: #fff;outline: none;overflow: hidden;position: absolute;display: block;}.blocklyWidgetDiv {display: none;position: absolute;z-index: 99999;}.injectionDiv {height: 100%;position: relative;overflow: hidden;}.blocklyNonSelectable {user-select: none;-moz-user-select: none;-webkit-user-select: none;-ms-user-select: none;}.blocklyWsDragSurface {display: none;position: absolute;overflow: visible;top: 0;left: 0;}.blocklyBlockDragSurface {display: none;position: absolute;top: 0;left: 0;right: 0;bottom: 0;overflow: visible !important;z-index: 50;}.blocklyTooltipDiv {background-color: #ffffc7;border: 1px solid #ddc;box-shadow: 4px 4px 20px 1px rgba(0,0,0,.15);color: #000;display: none;font-family: sans-serif;font-size: 9pt;opacity: 0.9;padding: 2px;position: absolute;z-index: 100000;}.blocklyResizeSE {cursor: se-resize;fill: #aaa;}.blocklyResizeSW {cursor: sw-resize;fill: #aaa;}.blocklyResizeLine {stroke: #888;stroke-width: 1;}.blocklyHighlightedConnectionPath {fill: none;stroke: #fc3;stroke-width: 4px;}.blocklyPathLight {fill: none;stroke-linecap: round;stroke-width: 1;}.blocklySelected>.blocklyPath {stroke: #fc3;stroke-width: 3px;}.blocklySelected>.blocklyPathLight {display: none;}.blocklyDraggable {cursor: url("<<<PATH>>>/handopen.cur"), auto;cursor: grab;cursor: -webkit-grab;cursor: -moz-grab;}.blocklyDragging {cursor: url("<<<PATH>>>/handclosed.cur"), auto;cursor: grabbing;cursor: -webkit-grabbing;cursor: -moz-grabbing;}.blocklyDraggable:active {cursor: url("<<<PATH>>>/handclosed.cur"), auto;cursor: grabbing;cursor: -webkit-grabbing;cursor: -moz-grabbing;}.blocklyBlockDragSurface .blocklyDraggable {cursor: url("<<<PATH>>>/handclosed.cur"), auto;cursor: grabbing;cursor: -webkit-grabbing;cursor: -moz-grabbing;}.blocklyDragging.blocklyDraggingDelete {cursor: url("<<<PATH>>>/handdelete.cur"), auto;}.blocklyToolboxDelete {cursor: url("<<<PATH>>>/handdelete.cur"), auto;}.blocklyDragging>.blocklyPath,.blocklyDragging>.blocklyPathLight {fill-opacity: .8;stroke-opacity: .8;}.blocklyDragging>.blocklyPathDark {display: none;}.blocklyDisabled>.blocklyPath {fill-opacity: .5;stroke-opacity: .5;}.blocklyDisabled>.blocklyPathLight,.blocklyDisabled>.blocklyPathDark {display: none;}.blocklyText {cursor: default;fill: #fff;font-family: sans-serif;font-size: 11pt;}.blocklyNonEditableText>text {pointer-events: none;}.blocklyNonEditableText>rect,.blocklyEditableText>rect {fill: #fff;fill-opacity: .6;}.blocklyNonEditableText>text,.blocklyEditableText>text {fill: #000;}.blocklyEditableText:hover>rect {stroke: #fff;stroke-width: 2;}.blocklyBubbleText {fill: #000;}.blocklyFlyout {position: absolute;z-index: 20;}.blocklyFlyoutButton {fill: #888;cursor: default;}.blocklyFlyoutButtonShadow {fill: #666;}.blocklyFlyoutButton:hover {fill: #aaa;}.blocklyFlyoutLabel {cursor: default;}.blocklyFlyoutLabelBackground {opacity: 0;}.blocklyFlyoutLabelText {fill: #000;}.blocklySvg text, .blocklyBlockDragSurface text {user-select: none;-moz-user-select: none;-webkit-user-select: none;cursor: inherit;}.blocklyHidden {display: none;}.blocklyFieldDropdown:not(.blocklyHidden) {display: block;}.blocklyIconGroup {cursor: default;}.blocklyIconGroup:not(:hover),.blocklyIconGroupReadonly {opacity: .6;}.blocklyIconShape {fill: #00f;stroke: #fff;stroke-width: 1px;}.blocklyIconSymbol {fill: #fff;}.blocklyMinimalBody {margin: 0;padding: 0;}.blocklyCommentTextarea {background-color: #ffc;border: 0;margin: 0;padding: 2px;resize: none;}.blocklyHtmlInput {border: none;border-radius: 4px;font-family: sans-serif;height: 100%;margin: 0;outline: none;padding: 0 1px;width: 100%}.blocklyMainBackground {stroke-width: 1;stroke: #c6c6c6;}.blocklyMutatorBackground {fill: #fff;stroke: #ddd;stroke-width: 1;}.blocklyFlyoutBackground {fill: #ddd;fill-opacity: .8;}.blocklyMainWorkspaceScrollbar {z-index: 20;}.blocklyFlyoutScrollbar {z-index: 30;}.blocklyScrollbarHorizontal, .blocklyScrollbarVertical {position: absolute;outline: none;}.blocklyScrollbarBackground {opacity: 0;}.blocklyScrollbarHandle {fill: #ccc;}.blocklyScrollbarBackground:hover+.blocklyScrollbarHandle,.blocklyScrollbarHandle:hover {fill: #bbb;}.blocklyZoom>image {opacity: .4;}.blocklyZoom>image:hover {opacity: .6;}.blocklyZoom>image:active {opacity: .8;}.blocklyFlyout .blocklyScrollbarHandle {fill: #bbb;}.blocklyFlyout .blocklyScrollbarBackground:hover+.blocklyScrollbarHandle,.blocklyFlyout .blocklyScrollbarHandle:hover {fill: #aaa;}.blocklyInvalidInput {background: #faa;}.blocklyAngleCircle {stroke: #444;stroke-width: 1;fill: #ddd;fill-opacity: .8;}.blocklyAngleMarks {stroke: #444;stroke-width: 1;}.blocklyAngleGauge {fill: #f88;fill-opacity: .8;}.blocklyAngleLine {stroke: #f00;stroke-width: 2;stroke-linecap: round;pointer-events: none;}.blocklyContextMenu {border-radius: 4px;}.blocklyDropdownMenu {padding: 0 !important;}.blocklyWidgetDiv .goog-option-selected .goog-menuitem-checkbox,.blocklyWidgetDiv .goog-option-selected .goog-menuitem-icon {background: url(<<<PATH>>>/sprites.png) no-repeat -48px -16px !important;}.blocklyToolboxDiv {background-color: #ddd;overflow-x: visible;overflow-y: auto;position: absolute;z-index: 70;}.blocklyTreeRoot {padding: 4px 0;}.blocklyTreeRoot:focus {outline: none;}.blocklyTreeRow {height: 22px;line-height: 22px;margin-bottom: 3px;padding-right: 8px;white-space: nowrap;}.blocklyHorizontalTree {float: left;margin: 1px 5px 8px 0;}.blocklyHorizontalTreeRtl {float: right;margin: 1px 0 8px 5px;}.blocklyToolboxDiv[dir="RTL"] .blocklyTreeRow {margin-left: 8px;}.blocklyTreeRow:not(.blocklyTreeSelected):hover {background-color: #e4e4e4;}.blocklyTreeSeparator {border-bottom: solid #e5e5e5 1px;height: 0;margin: 5px 0;}.blocklyTreeSeparatorHorizontal {border-right: solid #e5e5e5 1px;width: 0;padding: 5px 0;margin: 0 5px;}.blocklyTreeIcon {background-image: url(<<<PATH>>>/sprites.png);height: 16px;vertical-align: middle;width: 16px;}.blocklyTreeIconClosedLtr {background-position: -32px -1px;}.blocklyTreeIconClosedRtl {background-position: 0px -1px;}.blocklyTreeIconOpen {background-position: -16px -1px;}.blocklyTreeSelected>.blocklyTreeIconClosedLtr {background-position: -32px -17px;}.blocklyTreeSelected>.blocklyTreeIconClosedRtl {background-position: 0px -17px;}.blocklyTreeSelected>.blocklyTreeIconOpen {background-position: -16px -17px;}.blocklyTreeIconNone,.blocklyTreeSelected>.blocklyTreeIconNone {background-position: -48px -1px;}.blocklyTreeLabel {cursor: default;font-family: sans-serif;font-size: 16px;padding: 0 3px;vertical-align: middle;}.blocklyTreeSelected .blocklyTreeLabel {color: #fff;}.blocklyWidgetDiv .goog-palette {outline: none;cursor: default;}.blocklyWidgetDiv .goog-palette-table {border: 1px solid #666;border-collapse: collapse;}.blocklyWidgetDiv .goog-palette-cell {height: 13px;width: 15px;margin: 0;border: 0;text-align: center;vertical-align: middle;border-right: 1px solid #666;font-size: 1px;}.blocklyWidgetDiv .goog-palette-colorswatch {position: relative;height: 13px;width: 15px;border: 1px solid #666;}.blocklyWidgetDiv .goog-palette-cell-hover .goog-palette-colorswatch {border: 1px solid #FFF;}.blocklyWidgetDiv .goog-palette-cell-selected .goog-palette-colorswatch {border: 1px solid #000;color: #fff;}.blocklyWidgetDiv .goog-menu {background: #fff;border-color: #ccc #666 #666 #ccc;border-style: solid;border-width: 1px;cursor: default;font: normal 13px Arial, sans-serif;margin: 0;outline: none;padding: 4px 0;position: absolute;overflow-y: auto;overflow-x: hidden;max-height: 100%;z-index: 20000;}.blocklyWidgetDiv .goog-menuitem {color: #000;font: normal 13px Arial, sans-serif;list-style: none;margin: 0;padding: 4px 7em 4px 28px;white-space: nowrap;}.blocklyWidgetDiv .goog-menuitem.goog-menuitem-rtl {padding-left: 7em;padding-right: 28px;}.blocklyWidgetDiv .goog-menu-nocheckbox .goog-menuitem,.blocklyWidgetDiv .goog-menu-noicon .goog-menuitem {padding-left: 12px;}.blocklyWidgetDiv .goog-menu-noaccel .goog-menuitem {padding-right: 20px;}.blocklyWidgetDiv .goog-menuitem-content {color: #000;font: normal 13px Arial, sans-serif;}.blocklyWidgetDiv .goog-menuitem-disabled .goog-menuitem-accel,.blocklyWidgetDiv .goog-menuitem-disabled .goog-menuitem-content {color: #ccc !important;}.blocklyWidgetDiv .goog-menuitem-disabled .goog-menuitem-icon {opacity: 0.3;-moz-opacity: 0.3;filter: alpha(opacity=30);}.blocklyWidgetDiv .goog-menuitem-highlight,.blocklyWidgetDiv .goog-menuitem-hover {background-color: #d6e9f8;border-color: #d6e9f8;border-style: dotted;border-width: 1px 0;padding-bottom: 3px;padding-top: 3px;}.blocklyWidgetDiv .goog-menuitem-checkbox,.blocklyWidgetDiv .goog-menuitem-icon {background-repeat: no-repeat;height: 16px;left: 6px;position: absolute;right: auto;vertical-align: middle;width: 16px;}.blocklyWidgetDiv .goog-menuitem-rtl .goog-menuitem-checkbox,.blocklyWidgetDiv .goog-menuitem-rtl .goog-menuitem-icon {left: auto;right: 6px;}.blocklyWidgetDiv .goog-option-selected .goog-menuitem-checkbox,.blocklyWidgetDiv .goog-option-selected .goog-menuitem-icon {background: url(//ssl.gstatic.com/editor/editortoolbar.png) no-repeat -512px 0;}.blocklyWidgetDiv .goog-menuitem-accel {color: #999;direction: ltr;left: auto;padding: 0 6px;position: absolute;right: 0;text-align: right;}.blocklyWidgetDiv .goog-menuitem-rtl .goog-menuitem-accel {left: 0;right: auto;text-align: left;}.blocklyWidgetDiv .goog-menuitem-mnemonic-hint {text-decoration: underline;}.blocklyWidgetDiv .goog-menuitem-mnemonic-separator {color: #999;font-size: 12px;padding-left: 4px;}.blocklyWidgetDiv .goog-menuseparator {border-top: 1px solid #ccc;margin: 4px 0;padding: 0;}]]></style></defs>"><g xmlns="http://www.w3.org/2000/svg" class="blocklyBlockCanvas"><g class="blocklyDraggable" transform="translate(-7,7)"><path class="blocklyPathDark" transform="translate(1,1)" fill="#35847e" d="m 0,8 A 8,8 0 0,1 8,0 H 234.9840545654297 v 25 v 25 v 25 H 50 l -6,4 -3,0 -6,-4 h -7 a 8,8 0 0,0 -8,8 v 256 a 8,8 0 0,0 8,8 H 234.9840545654297 v 10 H 8 a 8,8 0 0,1 -8,-8 z&#10;"/><path class="blocklyPath" fill="#42a59d" d="m 0,8 A 8,8 0 0,1 8,0 H 234.9840545654297 v 25 v 25 v 25 H 50 l -6,4 -3,0 -6,-4 h -7 a 8,8 0 0,0 -8,8 v 256 a 8,8 0 0,0 8,8 H 234.9840545654297 v 10 H 8 a 8,8 0 0,1 -8,-8 z&#10;"/><path class="blocklyPathLight" stroke="#7bc0ba" d="m 0.5,7.5 A 7.5,7.5 0 0,1 8,0.5 H 234.4840545654297 M 234.4840545654297,0.5 M 234.4840545654297,25.5 M 234.4840545654297,50.5 M 234.4840545654297,75.5 M 21.989592359914347,345.01040764008565 a 8.5,8.5 0 0,0 6.0104076400856545,2.4895923599143455 H 234.4840545654297 M 2.6966991411008934,354.3033008588991 A 7.5,7.5 0 0,1 0.5,349 V 8&#10;"/><g class="blocklyDraggable" transform="translate(21,76)"><path class="blocklyPathDark" transform="translate(1,1)" fill="#35844f" d="m 0,8 A 8,8 0 0,1 8,0 H 15 l 6,4 3,0 6,-4 H 103.13429069519043 v 5 c 0,10 -8,-8 -8,7.5 s 8,-2.5 8,7.5 v 5 H 29.5 l -6,4 -3,0 -6,-4 H 0 z&#10;"/><path class="blocklyPath" fill="#42a563" d="m 0,8 A 8,8 0 0,1 8,0 H 15 l 6,4 3,0 6,-4 H 103.13429069519043 v 5 c 0,10 -8,-8 -8,7.5 s 8,-2.5 8,7.5 v 5 H 29.5 l -6,4 -3,0 -6,-4 H 0 z&#10;"/><path class="blocklyPathLight" stroke="#7bc092" d="m 0.5,7.5 A 7.5,7.5 0 0,1 8,0.5 H 15 l 6,4 3,0 6,-4 H 102.63429069519043 M 102.63429069519043,0.5 M 98.13429069519043,19.3 l 3.68,-2.1 M 0.5,24.5 V 8&#10;"/><g class="blocklyDraggable" transform="translate(104.13429069519043,0)"><path class="blocklyPathDark" transform="translate(1,1)" fill="#84357e" d="m 0,0 H 59.0548095703125 v 25 H 0 V 20 c 0,-10 -8,8 -8,-7.5 s 8,2.5 8,-7.5 z&#10;"/><path class="blocklyPath" fill="#a5429d" d="m 0,0 H 59.0548095703125 v 25 H 0 V 20 c 0,-10 -8,8 -8,-7.5 s 8,2.5 8,-7.5 z&#10;"/><path class="blocklyPathLight" stroke="#c07bba" d="m 0.5,0.5 H 58.5548095703125 M 58.5548095703125,0.5 M 0.5,24.5 V 18.5 m -7.36,-0.5 q -1.52,-5.5 0,-11 m 7.36,1 V 0.5 H 1&#10;"/><g class="blocklyEditableText" transform="translate(10,5)" style="cursor: default;"><rect rx="4" ry="4" x="-5" y="0" height="16" width="49.0548095703125"/><text class="blocklyText" y="12.5" text-anchor="start" x="0">play<tspan style="fill: rgb(165, 66, 157);"> ▾</tspan></text></g></g><g class="blocklyDraggable" transform="translate(0,26)"><path class="blocklyPathDark" transform="translate(1,1)" fill="#35844f" d="m 0,0 H 15 l 6,4 3,0 6,-4 H 50 H 353.269757270813 v 36 H 50 l -6,4 -3,0 -6,-4 h -7 a 8,8 0 0,0 -8,8 v 51 a 8,8 0 0,0 8,8 H 50 v 10 H 29.5 l -6,4 -3,0 -6,-4 H 0 z&#10;M 195.08208656311035,5 h -38.312225341796875 v 5 c 0,10 -8,-8 -8,7.5 s 8,-2.5 8,7.5 v 7 h 38.312225341796875 z M 271.6249008178711,5 h -38.312225341796875 v 5 c 0,10 -8,-8 -8,7.5 s 8,-2.5 8,7.5 v 7 h 38.312225341796875 z M 343.269757270813,5 h -30.156112670898438 v 5 c 0,10 -8,-8 -8,7.5 s 8,-2.5 8,7.5 v 7 h 30.156112670898438 z"/><path class="blocklyPath" fill="#42a563" d="m 0,0 H 15 l 6,4 3,0 6,-4 H 50 H 353.269757270813 v 36 H 50 l -6,4 -3,0 -6,-4 h -7 a 8,8 0 0,0 -8,8 v 51 a 8,8 0 0,0 8,8 H 50 v 10 H 29.5 l -6,4 -3,0 -6,-4 H 0 z&#10;M 195.08208656311035,5 h -38.312225341796875 v 5 c 0,10 -8,-8 -8,7.5 s 8,-2.5 8,7.5 v 7 h 38.312225341796875 z M 271.6249008178711,5 h -38.312225341796875 v 5 c 0,10 -8,-8 -8,7.5 s 8,-2.5 8,7.5 v 7 h 38.312225341796875 z M 343.269757270813,5 h -30.156112670898438 v 5 c 0,10 -8,-8 -8,7.5 s 8,-2.5 8,7.5 v 7 h 30.156112670898438 z"/><path class="blocklyPathLight" stroke="#7bc092" d="m 0.5,0.5 H 15 l 6,4 3,0 6,-4 H 49.5 M 49.5,0.5 H 352.769757270813 M 49.5,36.5 M 21.989592359914347,101.01040764008566 a 8.5,8.5 0 0,0 6.0104076400856545,2.4895923599143455 H 49.5 M 0.5,112.5 V 0.5&#10;M 195.58208656311035,5.5 v 27 h -38.312225341796875 M 151.66986122131348,24.3 l 3.68,-2.1 M 272.1249008178711,5.5 v 27 h -38.312225341796875 M 228.21267547607422,24.3 l 3.68,-2.1 M 343.769757270813,5.5 v 27 h -30.156112670898438 M 308.0136445999145,24.3 l 3.68,-2.1"/><g transform="translate(157.76986122131348,6)"><path class="blocklyPathDark" transform="translate(1,1)" fill="#b3c7db" d="m 0,0 H 36.312225341796875 v 25 H 0 V 20 c 0,-10 -8,8 -8,-7.5 s 8,2.5 8,-7.5 z&#10;"/><path class="blocklyPath" fill="#b3c7db" d="m 0,0 H 36.312225341796875 v 25 H 0 V 20 c 0,-10 -8,8 -8,-7.5 s 8,2.5 8,-7.5 z&#10;"/><path class="blocklyPathLight" d="m 0.5,0.5 H 35.812225341796875 M 35.812225341796875,0.5 M 0.5,24.5 V 18.5 m -7.36,-0.5 q -1.52,-5.5 0,-11 m 7.36,1 V 0.5 H 1&#10;" style="display: none;"/><g class="blocklyEditableText" transform="translate(10,5)" style="cursor: text;"><rect rx="4" ry="4" x="-5" y="0" height="16" width="26.312225341796875"/><text class="blocklyText" y="12.5">10</text></g></g><g transform="translate(234.31267547607422,6)"><path class="blocklyPathDark" transform="translate(1,1)" fill="#b3c7db" d="m 0,0 H 36.312225341796875 v 25 H 0 V 20 c 0,-10 -8,8 -8,-7.5 s 8,2.5 8,-7.5 z&#10;"/><path class="blocklyPath" fill="#b3c7db" d="m 0,0 H 36.312225341796875 v 25 H 0 V 20 c 0,-10 -8,8 -8,-7.5 s 8,2.5 8,-7.5 z&#10;"/><path class="blocklyPathLight" d="m 0.5,0.5 H 35.812225341796875 M 35.812225341796875,0.5 M 0.5,24.5 V 18.5 m -7.36,-0.5 q -1.52,-5.5 0,-11 m 7.36,1 V 0.5 H 1&#10;" style="display: none;"/><g class="blocklyEditableText" transform="translate(10,5)" style="cursor: text;"><rect rx="4" ry="4" x="-5" y="0" height="16" width="26.312225341796875"/><text class="blocklyText" y="12.5">12</text></g></g><g transform="translate(314.11364459991455,6)"><path class="blocklyPathDark" transform="translate(1,1)" fill="#b3c7db" d="m 0,0 H 28.156112670898438 v 25 H 0 V 20 c 0,-10 -8,8 -8,-7.5 s 8,2.5 8,-7.5 z&#10;"/><path class="blocklyPath" fill="#b3c7db" d="m 0,0 H 28.156112670898438 v 25 H 0 V 20 c 0,-10 -8,8 -8,-7.5 s 8,2.5 8,-7.5 z&#10;"/><path class="blocklyPathLight" d="m 0.5,0.5 H 27.656112670898438 M 27.656112670898438,0.5 M 0.5,24.5 V 18.5 m -7.36,-0.5 q -1.52,-5.5 0,-11 m 7.36,1 V 0.5 H 1&#10;" style="display: none;"/><g class="blocklyEditableText" transform="translate(10,5)" style="cursor: text;"><rect rx="4" ry="4" x="-5" y="0" height="16" width="18.156112670898438"/><text class="blocklyText" y="12.5">1</text></g></g><g class="blocklyDraggable" transform="translate(21,37)"><path class="blocklyPathDark" transform="translate(1,1)" fill="#35844f" d="m 0,8 A 8,8 0 0,1 8,0 H 15 l 6,4 3,0 6,-4 H 40 H 169.00976371765137 v 36 H 29.5 l -6,4 -3,0 -6,-4 H 0 z&#10;M 82.23560905456543,5 h -30.156112670898438 v 5 c 0,10 -8,-8 -8,7.5 s 8,-2.5 8,7.5 v 7 h 30.156112670898438 z"/><path class="blocklyPath" fill="#42a563" d="m 0,8 A 8,8 0 0,1 8,0 H 15 l 6,4 3,0 6,-4 H 40 H 169.00976371765137 v 36 H 29.5 l -6,4 -3,0 -6,-4 H 0 z&#10;M 82.23560905456543,5 h -30.156112670898438 v 5 c 0,10 -8,-8 -8,7.5 s 8,-2.5 8,7.5 v 7 h 30.156112670898438 z"/><path class="blocklyPathLight" stroke="#7bc092" d="m 0.5,7.5 A 7.5,7.5 0 0,1 8,0.5 H 15 l 6,4 3,0 6,-4 H 39.5 M 39.5,0.5 H 168.50976371765137 M 0.5,35.5 V 8&#10;M 82.73560905456543,5.5 v 27 h -30.156112670898438 M 46.97949638366699,24.3 l 3.68,-2.1"/><g transform="translate(53.07949638366699,6)"><path class="blocklyPathDark" transform="translate(1,1)" fill="#b3c7db" d="m 0,0 H 28.156112670898438 v 25 H 0 V 20 c 0,-10 -8,8 -8,-7.5 s 8,2.5 8,-7.5 z&#10;"/><path class="blocklyPath" fill="#b3c7db" d="m 0,0 H 28.156112670898438 v 25 H 0 V 20 c 0,-10 -8,8 -8,-7.5 s 8,2.5 8,-7.5 z&#10;"/><path class="blocklyPathLight" d="m 0.5,0.5 H 27.656112670898438 M 27.656112670898438,0.5 M 0.5,24.5 V 18.5 m -7.36,-0.5 q -1.52,-5.5 0,-11 m 7.36,1 V 0.5 H 1&#10;" style="display: none;"/><g class="blocklyEditableText" transform="translate(10,5)" style="cursor: text;"><rect rx="4" ry="4" x="-5" y="0" height="16" width="18.156112670898438"/><text class="blocklyText" y="12.5">1</text></g></g><g class="blocklyDraggable" transform="translate(0,37)"><path class="blocklyPathDark" transform="translate(1,1)" fill="#843549" d="m 0,0 H 15 l 6,4 3,0 6,-4 H 121.30474281311035 v 5 c 0,10 -8,-8 -8,7.5 s 8,-2.5 8,7.5 v 5 H 29.5 l -6,4 -3,0 -6,-4 H 8 a 8,8 0 0,1 -8,-8 z&#10;"/><path class="blocklyPath" fill="#a5425b" d="m 0,0 H 15 l 6,4 3,0 6,-4 H 121.30474281311035 v 5 c 0,10 -8,-8 -8,7.5 s 8,-2.5 8,7.5 v 5 H 29.5 l -6,4 -3,0 -6,-4 H 8 a 8,8 0 0,1 -8,-8 z&#10;"/><path class="blocklyPathLight" stroke="#c07b8c" d="m 0.5,0.5 H 15 l 6,4 3,0 6,-4 H 120.80474281311035 M 120.80474281311035,0.5 M 116.30474281311035,19.3 l 3.68,-2.1 M 2.6966991411008934,22.303300858899107 A 7.5,7.5 0 0,1 0.5,17 V 0.5&#10;"/><g class="blocklyDraggable" transform="translate(122.30474281311035,0)"><path class="blocklyPathDark" transform="translate(1,1)" fill="#84357e" d="m 0,0 H 35.40995216369629 v 25 H 0 V 20 c 0,-10 -8,8 -8,-7.5 s 8,2.5 8,-7.5 z&#10;"/><path class="blocklyPath" fill="#a5429d" d="m 0,0 H 35.40995216369629 v 25 H 0 V 20 c 0,-10 -8,8 -8,-7.5 s 8,2.5 8,-7.5 z&#10;"/><path class="blocklyPathLight" stroke="#c07bba" d="m 0.5,0.5 H 34.90995216369629 M 34.90995216369629,0.5 M 0.5,24.5 V 18.5 m -7.36,-0.5 q -1.52,-5.5 0,-11 m 7.36,1 V 0.5 H 1&#10;"/><g class="blocklyEditableText" transform="translate(10,5)" style="cursor: default;"><rect rx="4" ry="4" x="-5" y="0" height="16" width="25.40995216369629"/><text class="blocklyText" y="12.5" text-anchor="start" x="0">i<tspan style="fill: rgb(165, 66, 157);"> ▾</tspan></text></g></g><text class="blocklyText" y="12.5" transform="translate(10,5)">turn</text><g class="blocklyEditableText" transform="translate(45.27033805847168,5)" style="cursor: default;"><rect rx="4" ry="4" x="-5" y="0" height="16" width="38.46403884887695"/><text class="blocklyText" y="12.5" text-anchor="start" x="0">on<tspan style="fill: rgb(165, 66, 91);"> ▾</tspan></text></g><text class="blocklyText" y="12.5" transform="translate(83.73437690734863,5)">pin</text></g><text class="blocklyText" y="12.5" transform="translate(10,10)">wait</text><g class="blocklyEditableText" transform="translate(92.23560905456543,10)" style="cursor: default;"><rect rx="4" ry="4" x="-5" y="0" height="16" width="76.77415466308594"/><text class="blocklyText" y="12.5" text-anchor="start" x="0">seconds<tspan style="fill: rgb(66, 165, 99);"> ▾</tspan></text></g></g><g class="blocklyDraggable" transform="translate(0,114)"><path class="blocklyPathDark" transform="translate(1,1)" fill="#703584" d="m 0,0 H 15 l 6,4 3,0 6,-4 H 40 H 153.8597869873047 v 25 H 29.5 l -6,4 -3,0 -6,-4 H 0 z&#10;"/><path class="blocklyPath" fill="#8c42a5" d="m 0,0 H 15 l 6,4 3,0 6,-4 H 40 H 153.8597869873047 v 25 H 29.5 l -6,4 -3,0 -6,-4 H 0 z&#10;"/><path class="blocklyPathLight" stroke="#af7bc0" d="m 0.5,0.5 H 15 l 6,4 3,0 6,-4 H 39.5 M 39.5,0.5 H 153.3597869873047 M 0.5,24.5 V 0.5&#10;"/><g class="blocklyDraggable" transform="translate(0,26)"><path class="blocklyPathDark" transform="translate(1,1)" fill="#35844f" d="m 0,0 H 15 l 6,4 3,0 6,-4 H 50 H 358.15339279174805 v 36 H 50 l -6,4 -3,0 -6,-4 h -7 a 8,8 0 0,0 -8,8 v 14 a 8,8 0 0,0 8,8 H 50 v 10 H 29.5 l -6,4 -3,0 -6,-4 H 0 z&#10;M 195.08208656311035,5 h -38.312225341796875 v 5 c 0,10 -8,-8 -8,7.5 s 8,-2.5 8,7.5 v 7 h 38.312225341796875 z M 271.6249008178711,5 h -38.312225341796875 v 5 c 0,10 -8,-8 -8,7.5 s 8,-2.5 8,7.5 v 7 h 38.312225341796875 z M 348.15339279174805,5 h -35.039748191833496 v 5 c 0,10 -8,-8 -8,7.5 s 8,-2.5 8,7.5 v 7 h 35.039748191833496 z"/><path class="blocklyPath" fill="#42a563" d="m 0,0 H 15 l 6,4 3,0 6,-4 H 50 H 358.15339279174805 v 36 H 50 l -6,4 -3,0 -6,-4 h -7 a 8,8 0 0,0 -8,8 v 14 a 8,8 0 0,0 8,8 H 50 v 10 H 29.5 l -6,4 -3,0 -6,-4 H 0 z&#10;M 195.08208656311035,5 h -38.312225341796875 v 5 c 0,10 -8,-8 -8,7.5 s 8,-2.5 8,7.5 v 7 h 38.312225341796875 z M 271.6249008178711,5 h -38.312225341796875 v 5 c 0,10 -8,-8 -8,7.5 s 8,-2.5 8,7.5 v 7 h 38.312225341796875 z M 348.15339279174805,5 h -35.039748191833496 v 5 c 0,10 -8,-8 -8,7.5 s 8,-2.5 8,7.5 v 7 h 35.039748191833496 z"/><path class="blocklyPathLight" stroke="#7bc092" d="m 0.5,0.5 H 15 l 6,4 3,0 6,-4 H 49.5 M 49.5,0.5 H 357.65339279174805 M 49.5,36.5 M 21.989592359914347,64.01040764008566 a 8.5,8.5 0 0,0 6.0104076400856545,2.4895923599143455 H 49.5 M 0.5,75.5 V 0.5&#10;M 195.58208656311035,5.5 v 27 h -38.312225341796875 M 151.66986122131348,24.3 l 3.68,-2.1 M 272.1249008178711,5.5 v 27 h -38.312225341796875 M 228.21267547607422,24.3 l 3.68,-2.1 M 348.65339279174805,5.5 v 27 h -35.039748191833496 M 308.0136445999145,24.3 l 3.68,-2.1"/><g transform="translate(157.76986122131348,6)"><path class="blocklyPathDark" transform="translate(1,1)" fill="#b3c7db" d="m 0,0 H 36.312225341796875 v 25 H 0 V 20 c 0,-10 -8,8 -8,-7.5 s 8,2.5 8,-7.5 z&#10;"/><path class="blocklyPath" fill="#b3c7db" d="m 0,0 H 36.312225341796875 v 25 H 0 V 20 c 0,-10 -8,8 -8,-7.5 s 8,2.5 8,-7.5 z&#10;"/><path class="blocklyPathLight" d="m 0.5,0.5 H 35.812225341796875 M 35.812225341796875,0.5 M 0.5,24.5 V 18.5 m -7.36,-0.5 q -1.52,-5.5 0,-11 m 7.36,1 V 0.5 H 1&#10;" style="display: none;"/><g class="blocklyEditableText" transform="translate(10,5)" style="cursor: text;"><rect rx="4" ry="4" x="-5" y="0" height="16" width="26.312225341796875"/><text class="blocklyText" y="12.5">12</text></g></g><g transform="translate(234.31267547607422,6)"><path class="blocklyPathDark" transform="translate(1,1)" fill="#b3c7db" d="m 0,0 H 36.312225341796875 v 25 H 0 V 20 c 0,-10 -8,8 -8,-7.5 s 8,2.5 8,-7.5 z&#10;"/><path class="blocklyPath" fill="#b3c7db" d="m 0,0 H 36.312225341796875 v 25 H 0 V 20 c 0,-10 -8,8 -8,-7.5 s 8,2.5 8,-7.5 z&#10;"/><path class="blocklyPathLight" d="m 0.5,0.5 H 35.812225341796875 M 35.812225341796875,0.5 M 0.5,24.5 V 18.5 m -7.36,-0.5 q -1.52,-5.5 0,-11 m 7.36,1 V 0.5 H 1&#10;" style="display: none;"/><g class="blocklyEditableText" transform="translate(10,5)" style="cursor: text;"><rect rx="4" ry="4" x="-5" y="0" height="16" width="26.312225341796875"/><text class="blocklyText" y="12.5">10</text></g></g><g transform="translate(314.11364459991455,6)"><path class="blocklyPathDark" transform="translate(1,1)" fill="#b3c7db" d="m 0,0 H 33.039748191833496 v 25 H 0 V 20 c 0,-10 -8,8 -8,-7.5 s 8,2.5 8,-7.5 z&#10;"/><path class="blocklyPath" fill="#b3c7db" d="m 0,0 H 33.039748191833496 v 25 H 0 V 20 c 0,-10 -8,8 -8,-7.5 s 8,2.5 8,-7.5 z&#10;"/><path class="blocklyPathLight" d="m 0.5,0.5 H 32.539748191833496 M 32.539748191833496,0.5 M 0.5,24.5 V 18.5 m -7.36,-0.5 q -1.52,-5.5 0,-11 m 7.36,1 V 0.5 H 1&#10;" style="display: none;"/><g class="blocklyEditableText" transform="translate(10,5)" style="cursor: text;"><rect rx="4" ry="4" x="-5" y="0" height="16" width="23.039748191833496"/><text class="blocklyText" y="12.5">-1</text></g></g><g class="blocklyDraggable" transform="translate(21,37)"><path class="blocklyPathDark" transform="translate(1,1)" fill="#843549" d="m 0,8 A 8,8 0 0,1 8,0 H 15 l 6,4 3,0 6,-4 H 121.03262519836426 v 5 c 0,10 -8,-8 -8,7.5 s 8,-2.5 8,7.5 v 5 H 29.5 l -6,4 -3,0 -6,-4 H 8 a 8,8 0 0,1 -8,-8 z&#10;"/><path class="blocklyPath" fill="#a5425b" d="m 0,8 A 8,8 0 0,1 8,0 H 15 l 6,4 3,0 6,-4 H 121.03262519836426 v 5 c 0,10 -8,-8 -8,7.5 s 8,-2.5 8,7.5 v 5 H 29.5 l -6,4 -3,0 -6,-4 H 8 a 8,8 0 0,1 -8,-8 z&#10;"/><path class="blocklyPathLight" stroke="#c07b8c" d="m 0.5,7.5 A 7.5,7.5 0 0,1 8,0.5 H 15 l 6,4 3,0 6,-4 H 120.53262519836426 M 120.53262519836426,0.5 M 116.03262519836426,19.3 l 3.68,-2.1 M 2.6966991411008934,22.303300858899107 A 7.5,7.5 0 0,1 0.5,17 V 8&#10;"/><g class="blocklyDraggable" transform="translate(122.03262519836426,0)"><path class="blocklyPathDark" transform="translate(1,1)" fill="#84357e" d="m 0,0 H 35.40995216369629 v 25 H 0 V 20 c 0,-10 -8,8 -8,-7.5 s 8,2.5 8,-7.5 z&#10;"/><path class="blocklyPath" fill="#a5429d" d="m 0,0 H 35.40995216369629 v 25 H 0 V 20 c 0,-10 -8,8 -8,-7.5 s 8,2.5 8,-7.5 z&#10;"/><path class="blocklyPathLight" stroke="#c07bba" d="m 0.5,0.5 H 34.90995216369629 M 34.90995216369629,0.5 M 0.5,24.5 V 18.5 m -7.36,-0.5 q -1.52,-5.5 0,-11 m 7.36,1 V 0.5 H 1&#10;"/><g class="blocklyEditableText" transform="translate(10,5)" style="cursor: default;"><rect rx="4" ry="4" x="-5" y="0" height="16" width="25.40995216369629"/><text class="blocklyText" y="12.5" text-anchor="start" x="0">i<tspan style="fill: rgb(165, 66, 157);"> ▾</tspan></text></g></g><text class="blocklyText" y="12.5" transform="translate(10,5)">turn</text><g class="blocklyEditableText" transform="translate(45.27033805847168,5)" style="cursor: default;"><rect rx="4" ry="4" x="-5" y="0" height="16" width="38.19192123413086"/><text class="blocklyText" y="12.5" text-anchor="start" x="0">off<tspan style="fill: rgb(165, 66, 91);"> ▾</tspan></text></g><text class="blocklyText" y="12.5" transform="translate(83.46225929260254,5)">pin</text></g><g class="blocklyDraggable" transform="translate(0,77)"><path class="blocklyPathDark" transform="translate(1,1)" fill="#84357e" d="m 0,0 H 15 l 6,4 3,0 6,-4 H 118.84861755371094 v 5 c 0,10 -8,-8 -8,7.5 s 8,-2.5 8,7.5 v 5 H 29.5 l -6,4 -3,0 -6,-4 H 8 a 8,8 0 0,1 -8,-8 z&#10;"/><path class="blocklyPath" fill="#a5429d" d="m 0,0 H 15 l 6,4 3,0 6,-4 H 118.84861755371094 v 5 c 0,10 -8,-8 -8,7.5 s 8,-2.5 8,7.5 v 5 H 29.5 l -6,4 -3,0 -6,-4 H 8 a 8,8 0 0,1 -8,-8 z&#10;"/><path class="blocklyPathLight" stroke="#c07bba" d="m 0.5,0.5 H 15 l 6,4 3,0 6,-4 H 118.34861755371094 M 118.34861755371094,0.5 M 113.84861755371094,19.3 l 3.68,-2.1 M 2.6966991411008934,22.303300858899107 A 7.5,7.5 0 0,1 0.5,17 V 0.5&#10;"/><g transform="translate(119.84861755371094,0)"><path class="blocklyPathDark" transform="translate(1,1)" fill="#b3c7db" d="m 0,0 H 28.156112670898438 v 25 H 0 V 20 c 0,-10 -8,8 -8,-7.5 s 8,2.5 8,-7.5 z&#10;"/><path class="blocklyPath" fill="#b3c7db" d="m 0,0 H 28.156112670898438 v 25 H 0 V 20 c 0,-10 -8,8 -8,-7.5 s 8,2.5 8,-7.5 z&#10;"/><path class="blocklyPathLight" d="m 0.5,0.5 H 27.656112670898438 M 27.656112670898438,0.5 M 0.5,24.5 V 18.5 m -7.36,-0.5 q -1.52,-5.5 0,-11 m 7.36,1 V 0.5 H 1&#10;" style="display: none;"/><g class="blocklyEditableText" transform="translate(10,5)" style="cursor: text;"><rect rx="4" ry="4" x="-5" y="0" height="16" width="18.156112670898438"/><text class="blocklyText" y="12.5">0</text></g></g><text class="blocklyText" y="12.5" transform="translate(10,5)">set</text><g class="blocklyEditableText" transform="translate(39.56321907043457,5)" style="cursor: default;"><rect rx="4" ry="4" x="-5" y="0" height="16" width="49.0548095703125"/><text class="blocklyText" y="12.5" text-anchor="start" x="0">play<tspan style="fill: rgb(165, 66, 157);"> ▾</tspan></text></g><text class="blocklyText" y="12.5" transform="translate(88.61802864074707,5)">to</text></g><text class="blocklyText" y="12.5" transform="translate(10,10)">count with</text><g class="blocklyEditableText" transform="translate(86.0294189453125,10)" style="cursor: default;"><rect rx="4" ry="4" x="-5" y="0" height="16" width="25.40995216369629"/><text class="blocklyText" y="12.5" text-anchor="start" x="0">i<tspan style="fill: rgb(66, 165, 99);"> ▾</tspan></text></g><text class="blocklyText" y="12.5" transform="translate(111.43937110900879,10)">from</text><text class="blocklyText" y="12.5" transform="translate(205.08208656311035,10)">to</text><text class="blocklyText" y="12.5" transform="translate(281.6249008178711,10)">by</text></g><text class="blocklyText" y="12.5" transform="translate(10,5)">execute</text><g class="blocklyEditableText" transform="translate(71.36418914794922,5)" style="cursor: default;"><rect rx="4" ry="4" x="-5" y="0" height="16" width="82.49559783935547"/><text class="blocklyText" y="12.5" text-anchor="start" x="0">go sound<tspan style="fill: rgb(140, 66, 165);"> ▾</tspan></text></g></g><text class="blocklyText" y="12.5" transform="translate(10,10)">count with</text><g class="blocklyEditableText" transform="translate(86.0294189453125,10)" style="cursor: default;"><rect rx="4" ry="4" x="-5" y="0" height="16" width="25.40995216369629"/><text class="blocklyText" y="12.5" text-anchor="start" x="0">i<tspan style="fill: rgb(66, 165, 99);"> ▾</tspan></text></g><text class="blocklyText" y="12.5" transform="translate(111.43937110900879,10)">from</text><text class="blocklyText" y="12.5" transform="translate(205.08208656311035,10)">to</text><text class="blocklyText" y="12.5" transform="translate(281.6249008178711,10)">by</text></g><text class="blocklyText" y="12.5" transform="translate(10,5)">wait</text><g class="blocklyEditableText" transform="translate(46.07949638366699,5)" style="cursor: default;"><rect rx="4" ry="4" x="-5" y="0" height="16" width="49.05479431152344"/><text class="blocklyText" y="12.5" text-anchor="start" x="0">until<tspan style="fill: rgb(66, 165, 99);"> ▾</tspan></text></g></g><text class="blocklyText" y="12.5" transform="translate(10,5)">timer named</text><g class="blocklyEditableText" transform="translate(101.50382232666016,5)" style="cursor: text;"><rect rx="4" ry="4" x="-5" y="0" height="16" width="83.36920928955078"/><text class="blocklyText" y="12.5">semaphore</text></g><text class="blocklyText" y="12.5" transform="translate(10,30)">running</text><g class="blocklyEditableText" transform="translate(68.9223403930664,30)" style="cursor: text;"><rect rx="4" ry="4" x="-5" y="0" height="16" width="26.312225341796875"/><text class="blocklyText" y="12.5">10</text></g><text class="blocklyText" y="12.5" transform="translate(95.23456573486328,30)">times per</text><g class="blocklyEditableText" transform="translate(165.5425262451172,30)" style="cursor: default;"><rect rx="4" ry="4" x="-5" y="0" height="16" width="69.4415283203125"/><text class="blocklyText" y="12.5" text-anchor="start" x="0">second<tspan style="fill: rgb(66, 165, 157);"> ▾</tspan></text></g><text class="blocklyText" y="12.5" transform="translate(10,55)">initial state</text><g class="blocklyEditableText" transform="translate(89.28754425048828,55)" style="cursor: default;"><rect rx="4" ry="4" x="-5" y="0" height="16" width="66.98537063598633"/><text class="blocklyText" y="12.5" text-anchor="start" x="0">started<tspan style="fill: rgb(66, 165, 157);"> ▾</tspan></text></g></g><g class="blocklyDraggable" transform="translate(-2,386)"><path class="blocklyPathDark" transform="translate(1,1)" fill="#703584" d="m 0,8 A 8,8 0 0,1 8,0 H 205.29555892944336 v 25 H 50 l -6,4 -3,0 -6,-4 h -7 a 8,8 0 0,0 -8,8 v 139 a 8,8 0 0,0 8,8 H 205.29555892944336 v 10 H 8 a 8,8 0 0,1 -8,-8 z&#10;"/><path class="blocklyPath" fill="#8c42a5" d="m 0,8 A 8,8 0 0,1 8,0 H 205.29555892944336 v 25 H 50 l -6,4 -3,0 -6,-4 h -7 a 8,8 0 0,0 -8,8 v 139 a 8,8 0 0,0 8,8 H 205.29555892944336 v 10 H 8 a 8,8 0 0,1 -8,-8 z&#10;"/><path class="blocklyPathLight" stroke="#af7bc0" d="m 0.5,7.5 A 7.5,7.5 0 0,1 8,0.5 H 204.79555892944336 M 204.79555892944336,0.5 M 204.79555892944336,25.5 M 21.989592359914347,178.01040764008565 a 8.5,8.5 0 0,0 6.0104076400856545,2.4895923599143455 H 204.79555892944336 M 2.6966991411008934,187.3033008588991 A 7.5,7.5 0 0,1 0.5,182 V 8&#10;"/><g class="blocklyDraggable" transform="translate(21,26)"><path class="blocklyPathDark" transform="translate(1,1)" fill="#845d35" d="m 0,8 A 8,8 0 0,1 8,0 H 15 l 6,4 3,0 6,-4 H 179.19238471984863 v 5 c 0,10 -8,-8 -8,7.5 s 8,-2.5 8,7.5 v 5 H 29.5 l -6,4 -3,0 -6,-4 H 0 z&#10;"/><path class="blocklyPath" fill="#a57442" d="m 0,8 A 8,8 0 0,1 8,0 H 15 l 6,4 3,0 6,-4 H 179.19238471984863 v 5 c 0,10 -8,-8 -8,7.5 s 8,-2.5 8,7.5 v 5 H 29.5 l -6,4 -3,0 -6,-4 H 0 z&#10;"/><path class="blocklyPathLight" stroke="#c09e7b" d="m 0.5,7.5 A 7.5,7.5 0 0,1 8,0.5 H 15 l 6,4 3,0 6,-4 H 178.69238471984863 M 178.69238471984863,0.5 M 174.19238471984863,19.3 l 3.68,-2.1 M 0.5,24.5 V 8&#10;"/><g transform="translate(180.19238471984863,0)"><path class="blocklyPathDark" transform="translate(1,1)" fill="#dbb3bd" d="m 0,0 H 50.89869689941406 v 25 H 0 V 20 c 0,-10 -8,8 -8,-7.5 s 8,2.5 8,-7.5 z&#10;"/><path class="blocklyPath" fill="#dbb3bd" d="m 0,0 H 50.89869689941406 v 25 H 0 V 20 c 0,-10 -8,8 -8,-7.5 s 8,2.5 8,-7.5 z&#10;"/><path class="blocklyPathLight" d="m 0.5,0.5 H 50.39869689941406 M 50.39869689941406,0.5 M 0.5,24.5 V 18.5 m -7.36,-0.5 q -1.52,-5.5 0,-11 m 7.36,1 V 0.5 H 1&#10;" style="display: none;"/><g class="blocklyEditableText" transform="translate(10,5)" style="cursor: default;"><rect rx="4" ry="4" x="-5" y="0" height="16" width="40.89869689941406"/><text class="blocklyText" y="12.5" text-anchor="start" x="0">D8<tspan style="fill: rgb(165, 66, 91);"> ▾</tspan></text></g></g><g class="blocklyDraggable" transform="translate(0,26)"><path class="blocklyPathDark" transform="translate(1,1)" fill="#35844f" d="m 0,0 H 15 l 6,4 3,0 6,-4 H 40 H 202.414701461792 v 36 H 29.5 l -6,4 -3,0 -6,-4 H 0 z&#10;M 90.39172172546387,5 h -38.312225341796875 v 5 c 0,10 -8,-8 -8,7.5 s 8,-2.5 8,7.5 v 7 h 38.312225341796875 z"/><path class="blocklyPath" fill="#42a563" d="m 0,0 H 15 l 6,4 3,0 6,-4 H 40 H 202.414701461792 v 36 H 29.5 l -6,4 -3,0 -6,-4 H 0 z&#10;M 90.39172172546387,5 h -38.312225341796875 v 5 c 0,10 -8,-8 -8,7.5 s 8,-2.5 8,7.5 v 7 h 38.312225341796875 z"/><path class="blocklyPathLight" stroke="#7bc092" d="m 0.5,0.5 H 15 l 6,4 3,0 6,-4 H 39.5 M 39.5,0.5 H 201.914701461792 M 0.5,35.5 V 0.5&#10;M 90.89172172546387,5.5 v 27 h -38.312225341796875 M 46.97949638366699,24.3 l 3.68,-2.1"/><g transform="translate(53.07949638366699,6)"><path class="blocklyPathDark" transform="translate(1,1)" fill="#b3c7db" d="m 0,0 H 36.312225341796875 v 25 H 0 V 20 c 0,-10 -8,8 -8,-7.5 s 8,2.5 8,-7.5 z&#10;"/><path class="blocklyPath" fill="#b3c7db" d="m 0,0 H 36.312225341796875 v 25 H 0 V 20 c 0,-10 -8,8 -8,-7.5 s 8,2.5 8,-7.5 z&#10;"/><path class="blocklyPathLight" d="m 0.5,0.5 H 35.812225341796875 M 35.812225341796875,0.5 M 0.5,24.5 V 18.5 m -7.36,-0.5 q -1.52,-5.5 0,-11 m 7.36,1 V 0.5 H 1&#10;" style="display: none;"/><g class="blocklyEditableText" transform="translate(10,5)" style="cursor: text;"><rect rx="4" ry="4" x="-5" y="0" height="16" width="26.312225341796875"/><text class="blocklyText" y="12.5">50</text></g></g><g class="blocklyDraggable" transform="translate(0,37)"><path class="blocklyPathDark" transform="translate(1,1)" fill="#845d35" d="m 0,0 H 15 l 6,4 3,0 6,-4 H 178.37604904174805 v 5 c 0,10 -8,-8 -8,7.5 s 8,-2.5 8,7.5 v 5 H 29.5 l -6,4 -3,0 -6,-4 H 0 z&#10;"/><path class="blocklyPath" fill="#a57442" d="m 0,0 H 15 l 6,4 3,0 6,-4 H 178.37604904174805 v 5 c 0,10 -8,-8 -8,7.5 s 8,-2.5 8,7.5 v 5 H 29.5 l -6,4 -3,0 -6,-4 H 0 z&#10;"/><path class="blocklyPathLight" stroke="#c09e7b" d="m 0.5,0.5 H 15 l 6,4 3,0 6,-4 H 177.87604904174805 M 177.87604904174805,0.5 M 173.37604904174805,19.3 l 3.68,-2.1 M 0.5,24.5 V 0.5&#10;"/><g transform="translate(179.37604904174805,0)"><path class="blocklyPathDark" transform="translate(1,1)" fill="#dbb3bd" d="m 0,0 H 50.89869689941406 v 25 H 0 V 20 c 0,-10 -8,8 -8,-7.5 s 8,2.5 8,-7.5 z&#10;"/><path class="blocklyPath" fill="#dbb3bd" d="m 0,0 H 50.89869689941406 v 25 H 0 V 20 c 0,-10 -8,8 -8,-7.5 s 8,2.5 8,-7.5 z&#10;"/><path class="blocklyPathLight" d="m 0.5,0.5 H 50.39869689941406 M 50.39869689941406,0.5 M 0.5,24.5 V 18.5 m -7.36,-0.5 q -1.52,-5.5 0,-11 m 7.36,1 V 0.5 H 1&#10;" style="display: none;"/><g class="blocklyEditableText" transform="translate(10,5)" style="cursor: default;"><rect rx="4" ry="4" x="-5" y="0" height="16" width="40.89869689941406"/><text class="blocklyText" y="12.5" text-anchor="start" x="0">D8<tspan style="fill: rgb(165, 66, 91);"> ▾</tspan></text></g></g><g class="blocklyDraggable" transform="translate(0,26)"><path class="blocklyPathDark" transform="translate(1,1)" fill="#35844f" d="m 0,0 H 15 l 6,4 3,0 6,-4 H 40 H 218.72692680358887 v 36 H 29.5 l -6,4 -3,0 -6,-4 H 0 z&#10;M 106.70394706726074,5 h -54.62445068359375 v 5 c 0,10 -8,-8 -8,7.5 s 8,-2.5 8,7.5 v 7 h 54.62445068359375 z"/><path class="blocklyPath" fill="#42a563" d="m 0,0 H 15 l 6,4 3,0 6,-4 H 40 H 218.72692680358887 v 36 H 29.5 l -6,4 -3,0 -6,-4 H 0 z&#10;M 106.70394706726074,5 h -54.62445068359375 v 5 c 0,10 -8,-8 -8,7.5 s 8,-2.5 8,7.5 v 7 h 54.62445068359375 z"/><path class="blocklyPathLight" stroke="#7bc092" d="m 0.5,0.5 H 15 l 6,4 3,0 6,-4 H 39.5 M 39.5,0.5 H 218.22692680358887 M 0.5,35.5 V 0.5&#10;M 107.20394706726074,5.5 v 27 h -54.62445068359375 M 46.97949638366699,24.3 l 3.68,-2.1"/><g transform="translate(53.07949638366699,6)"><path class="blocklyPathDark" transform="translate(1,1)" fill="#b3c7db" d="m 0,0 H 52.62445068359375 v 25 H 0 V 20 c 0,-10 -8,8 -8,-7.5 s 8,2.5 8,-7.5 z&#10;"/><path class="blocklyPath" fill="#b3c7db" d="m 0,0 H 52.62445068359375 v 25 H 0 V 20 c 0,-10 -8,8 -8,-7.5 s 8,2.5 8,-7.5 z&#10;"/><path class="blocklyPathLight" d="m 0.5,0.5 H 52.12445068359375 M 52.12445068359375,0.5 M 0.5,24.5 V 18.5 m -7.36,-0.5 q -1.52,-5.5 0,-11 m 7.36,1 V 0.5 H 1&#10;" style="display: none;"/><g class="blocklyEditableText" transform="translate(10,5)" style="cursor: text;"><rect rx="4" ry="4" x="-5" y="0" height="16" width="42.62445068359375"/><text class="blocklyText" y="12.5">1000</text></g></g><g class="blocklyDraggable" transform="translate(0,37)"><path class="blocklyPathDark" transform="translate(1,1)" fill="#845d35" d="m 0,0 H 15 l 6,4 3,0 6,-4 H 132.3681640625 v 5 c 0,10 -8,-8 -8,7.5 s 8,-2.5 8,7.5 v 5 H 29.5 l -6,4 -3,0 -6,-4 H 8 a 8,8 0 0,1 -8,-8 z&#10;"/><path class="blocklyPath" fill="#a57442" d="m 0,0 H 15 l 6,4 3,0 6,-4 H 132.3681640625 v 5 c 0,10 -8,-8 -8,7.5 s 8,-2.5 8,7.5 v 5 H 29.5 l -6,4 -3,0 -6,-4 H 8 a 8,8 0 0,1 -8,-8 z&#10;"/><path class="blocklyPathLight" stroke="#c09e7b" d="m 0.5,0.5 H 15 l 6,4 3,0 6,-4 H 131.8681640625 M 131.8681640625,0.5 M 127.3681640625,19.3 l 3.68,-2.1 M 2.6966991411008934,22.303300858899107 A 7.5,7.5 0 0,1 0.5,17 V 0.5&#10;"/><g transform="translate(133.3681640625,0)"><path class="blocklyPathDark" transform="translate(1,1)" fill="#dbb3bd" d="m 0,0 H 50.89869689941406 v 25 H 0 V 20 c 0,-10 -8,8 -8,-7.5 s 8,2.5 8,-7.5 z&#10;"/><path class="blocklyPath" fill="#dbb3bd" d="m 0,0 H 50.89869689941406 v 25 H 0 V 20 c 0,-10 -8,8 -8,-7.5 s 8,2.5 8,-7.5 z&#10;"/><path class="blocklyPathLight" d="m 0.5,0.5 H 50.39869689941406 M 50.39869689941406,0.5 M 0.5,24.5 V 18.5 m -7.36,-0.5 q -1.52,-5.5 0,-11 m 7.36,1 V 0.5 H 1&#10;" style="display: none;"/><g class="blocklyEditableText" transform="translate(10,5)" style="cursor: default;"><rect rx="4" ry="4" x="-5" y="0" height="16" width="40.89869689941406"/><text class="blocklyText" y="12.5" text-anchor="start" x="0">D8<tspan style="fill: rgb(165, 66, 91);"> ▾</tspan></text></g></g><text class="blocklyText" y="12.5" transform="translate(10,5)">stop tone on pin</text></g><text class="blocklyText" y="12.5" transform="translate(10,10)">wait</text><g class="blocklyEditableText" transform="translate(116.70394706726074,10)" style="cursor: default;"><rect rx="4" ry="4" x="-5" y="0" height="16" width="102.02297973632812"/><text class="blocklyText" y="12.5" text-anchor="start" x="0">milliseconds<tspan style="fill: rgb(66, 165, 99);"> ▾</tspan></text></g></g><text class="blocklyText" y="12.5" transform="translate(10,5)">play note</text><g class="blocklyEditableText" transform="translate(79.5202865600586,5)" style="cursor: default;"><rect rx="4" ry="4" x="-5" y="0" height="16" width="40.89869689941406"/><text class="blocklyText" y="12.5" text-anchor="start" x="0">C5<tspan style="fill: rgb(165, 116, 66);"> ▾</tspan></text></g><text class="blocklyText" y="12.5" transform="translate(120.41898345947266,5)">on pin</text></g><text class="blocklyText" y="12.5" transform="translate(10,10)">wait</text><g class="blocklyEditableText" transform="translate(100.39172172546387,10)" style="cursor: default;"><rect rx="4" ry="4" x="-5" y="0" height="16" width="102.02297973632812"/><text class="blocklyText" y="12.5" text-anchor="start" x="0">milliseconds<tspan style="fill: rgb(66, 165, 99);"> ▾</tspan></text></g></g><text class="blocklyText" y="12.5" transform="translate(10,5)">play note</text><g class="blocklyEditableText" transform="translate(79.5202865600586,5)" style="cursor: default;"><rect rx="4" ry="4" x="-5" y="0" height="16" width="41.71503257751465"/><text class="blocklyText" y="12.5" text-anchor="start" x="0">G4<tspan style="fill: rgb(165, 116, 66);"> ▾</tspan></text></g><text class="blocklyText" y="12.5" transform="translate(121.23531913757324,5)">on pin</text></g><text class="blocklyText" y="12.5" transform="translate(10,5)">procedure named</text><g class="blocklyEditableText" transform="translate(134.95177459716797,5)" style="cursor: text;"><rect rx="4" ry="4" x="-5" y="0" height="16" width="70.34378433227539"/><text class="blocklyText" y="12.5">go sound</text></g></g><g class="blocklyDraggable" transform="translate(395.1154166025064,1.0452788799008106)"><path class="blocklyPathDark" transform="translate(1,1)" fill="#35847e" d="m 0,8 A 8,8 0 0,1 8,0 H 162.05885314941406 v 25 H 50 l -6,4 -3,0 -6,-4 h -7 a 8,8 0 0,0 -8,8 v 536 a 8,8 0 0,0 8,8 H 162.05885314941406 v 10 H 8 a 8,8 0 0,1 -8,-8 z&#10;"/><path class="blocklyPath" fill="#42a59d" d="m 0,8 A 8,8 0 0,1 8,0 H 162.05885314941406 v 25 H 50 l -6,4 -3,0 -6,-4 h -7 a 8,8 0 0,0 -8,8 v 536 a 8,8 0 0,0 8,8 H 162.05885314941406 v 10 H 8 a 8,8 0 0,1 -8,-8 z&#10;"/><path class="blocklyPathLight" stroke="#7bc0ba" d="m 0.5,7.5 A 7.5,7.5 0 0,1 8,0.5 H 161.55885314941406 M 161.55885314941406,0.5 M 161.55885314941406,25.5 M 21.989592359914347,575.0104076400856 a 8.5,8.5 0 0,0 6.0104076400856545,2.4895923599143455 H 161.55885314941406 M 2.6966991411008934,584.3033008588991 A 7.5,7.5 0 0,1 0.5,579 V 8&#10;"/><g class="blocklyDraggable" transform="translate(21,26)"><path class="blocklyPathDark" transform="translate(1,1)" fill="#843535" d="m 0,8 A 8,8 0 0,1 8,0 H 15 l 6,4 3,0 6,-4 H 40 H 317.8799018859863 v 36 H 29.5 l -6,4 -3,0 -6,-4 H 0 z&#10;M 198.72695922851562,5 h -52.89869689941406 v 5 c 0,10 -8,-8 -8,7.5 s 8,-2.5 8,7.5 v 7 h 52.89869689941406 z M 307.8799018859863,5 h -30.156112670898438 v 5 c 0,10 -8,-8 -8,7.5 s 8,-2.5 8,7.5 v 7 h 30.156112670898438 z"/><path class="blocklyPath" fill="#a54242" d="m 0,8 A 8,8 0 0,1 8,0 H 15 l 6,4 3,0 6,-4 H 40 H 317.8799018859863 v 36 H 29.5 l -6,4 -3,0 -6,-4 H 0 z&#10;M 198.72695922851562,5 h -52.89869689941406 v 5 c 0,10 -8,-8 -8,7.5 s 8,-2.5 8,7.5 v 7 h 52.89869689941406 z M 307.8799018859863,5 h -30.156112670898438 v 5 c 0,10 -8,-8 -8,7.5 s 8,-2.5 8,7.5 v 7 h 30.156112670898438 z"/><path class="blocklyPathLight" stroke="#c07b7b" d="m 0.5,7.5 A 7.5,7.5 0 0,1 8,0.5 H 15 l 6,4 3,0 6,-4 H 39.5 M 39.5,0.5 H 317.3799018859863 M 0.5,35.5 V 8&#10;M 199.22695922851562,5.5 v 27 h -52.89869689941406 M 140.72826232910157,24.3 l 3.68,-2.1 M 308.3799018859863,5.5 v 27 h -30.156112670898438 M 272.62378921508787,24.3 l 3.68,-2.1"/><g transform="translate(146.82826232910156,5.999999999999993)"><path class="blocklyPathDark" transform="translate(1,1)" fill="#dbb3bd" d="m 0,0 H 50.89869689941406 v 25 H 0 V 20 c 0,-10 -8,8 -8,-7.5 s 8,2.5 8,-7.5 z&#10;"/><path class="blocklyPath" fill="#dbb3bd" d="m 0,0 H 50.89869689941406 v 25 H 0 V 20 c 0,-10 -8,8 -8,-7.5 s 8,2.5 8,-7.5 z&#10;"/><path class="blocklyPathLight" d="m 0.5,0.5 H 50.39869689941406 M 50.39869689941406,0.5 M 0.5,24.5 V 18.5 m -7.36,-0.5 q -1.52,-5.5 0,-11 m 7.36,1 V 0.5 H 1&#10;" style="display: none;"/><g class="blocklyEditableText" transform="translate(10,5)" style="cursor: default;"><rect rx="4" ry="4" x="-5" y="0" height="16" width="40.89869689941406"/><text class="blocklyText" y="12.5" text-anchor="start" x="0">D3<tspan style="fill: rgb(165, 66, 91);"> ▾</tspan></text></g></g><g transform="translate(278.7237892150879,5.999999999999993)"><path class="blocklyPathDark" transform="translate(1,1)" fill="#b3c7db" d="m 0,0 H 28.156112670898438 v 25 H 0 V 20 c 0,-10 -8,8 -8,-7.5 s 8,2.5 8,-7.5 z&#10;"/><path class="blocklyPath" fill="#b3c7db" d="m 0,0 H 28.156112670898438 v 25 H 0 V 20 c 0,-10 -8,8 -8,-7.5 s 8,2.5 8,-7.5 z&#10;"/><path class="blocklyPathLight" d="m 0.5,0.5 H 27.656112670898438 M 27.656112670898438,0.5 M 0.5,24.5 V 18.5 m -7.36,-0.5 q -1.52,-5.5 0,-11 m 7.36,1 V 0.5 H 1&#10;" style="display: none;"/><g class="blocklyEditableText" transform="translate(10,5)" style="cursor: text;"><rect rx="4" ry="4" x="-5" y="0" height="16" width="18.156112670898438"/><text class="blocklyText" y="12.5">0</text></g></g><g class="blocklyDraggable" transform="translate(0,37)"><path class="blocklyPathDark" transform="translate(1,1)" fill="#843535" d="m 0,0 H 15 l 6,4 3,0 6,-4 H 40 H 317.8799018859863 v 36 H 29.5 l -6,4 -3,0 -6,-4 H 0 z&#10;M 198.72695922851562,5 h -52.89869689941406 v 5 c 0,10 -8,-8 -8,7.5 s 8,-2.5 8,7.5 v 7 h 52.89869689941406 z M 307.8799018859863,5 h -30.156112670898438 v 5 c 0,10 -8,-8 -8,7.5 s 8,-2.5 8,7.5 v 7 h 30.156112670898438 z"/><path class="blocklyPath" fill="#a54242" d="m 0,0 H 15 l 6,4 3,0 6,-4 H 40 H 317.8799018859863 v 36 H 29.5 l -6,4 -3,0 -6,-4 H 0 z&#10;M 198.72695922851562,5 h -52.89869689941406 v 5 c 0,10 -8,-8 -8,7.5 s 8,-2.5 8,7.5 v 7 h 52.89869689941406 z M 307.8799018859863,5 h -30.156112670898438 v 5 c 0,10 -8,-8 -8,7.5 s 8,-2.5 8,7.5 v 7 h 30.156112670898438 z"/><path class="blocklyPathLight" stroke="#c07b7b" d="m 0.5,0.5 H 15 l 6,4 3,0 6,-4 H 39.5 M 39.5,0.5 H 317.3799018859863 M 0.5,35.5 V 0.5&#10;M 199.22695922851562,5.5 v 27 h -52.89869689941406 M 140.72826232910157,24.3 l 3.68,-2.1 M 308.3799018859863,5.5 v 27 h -30.156112670898438 M 272.62378921508787,24.3 l 3.68,-2.1"/><g transform="translate(146.82826232910156,6)"><path class="blocklyPathDark" transform="translate(1,1)" fill="#dbb3bd" d="m 0,0 H 50.89869689941406 v 25 H 0 V 20 c 0,-10 -8,8 -8,-7.5 s 8,2.5 8,-7.5 z&#10;"/><path class="blocklyPath" fill="#dbb3bd" d="m 0,0 H 50.89869689941406 v 25 H 0 V 20 c 0,-10 -8,8 -8,-7.5 s 8,2.5 8,-7.5 z&#10;"/><path class="blocklyPathLight" d="m 0.5,0.5 H 50.39869689941406 M 50.39869689941406,0.5 M 0.5,24.5 V 18.5 m -7.36,-0.5 q -1.52,-5.5 0,-11 m 7.36,1 V 0.5 H 1&#10;" style="display: none;"/><g class="blocklyEditableText" transform="translate(10,5)" style="cursor: default;"><rect rx="4" ry="4" x="-5" y="0" height="16" width="40.89869689941406"/><text class="blocklyText" y="12.5" text-anchor="start" x="0">D4<tspan style="fill: rgb(165, 66, 91);"> ▾</tspan></text></g></g><g transform="translate(278.7237892150879,6)"><path class="blocklyPathDark" transform="translate(1,1)" fill="#b3c7db" d="m 0,0 H 28.156112670898438 v 25 H 0 V 20 c 0,-10 -8,8 -8,-7.5 s 8,2.5 8,-7.5 z&#10;"/><path class="blocklyPath" fill="#b3c7db" d="m 0,0 H 28.156112670898438 v 25 H 0 V 20 c 0,-10 -8,8 -8,-7.5 s 8,2.5 8,-7.5 z&#10;"/><path class="blocklyPathLight" d="m 0.5,0.5 H 27.656112670898438 M 27.656112670898438,0.5 M 0.5,24.5 V 18.5 m -7.36,-0.5 q -1.52,-5.5 0,-11 m 7.36,1 V 0.5 H 1&#10;" style="display: none;"/><g class="blocklyEditableText" transform="translate(10,5)" style="cursor: text;"><rect rx="4" ry="4" x="-5" y="0" height="16" width="18.156112670898438"/><text class="blocklyText" y="12.5">0</text></g></g><g class="blocklyDraggable" transform="translate(0,37)"><path class="blocklyPathDark" transform="translate(1,1)" fill="#35844f" d="m 0,0 H 15 l 6,4 3,0 6,-4 H 111.29975891113281 v 25 H 50 l -6,4 -3,0 -6,-4 h -7 a 8,8 0 0,0 -8,8 v 423 a 8,8 0 0,0 8,8 H 111.29975891113281 v 10 H 29.5 l -6,4 -3,0 -6,-4 H 8 a 8,8 0 0,1 -8,-8 z&#10;"/><path class="blocklyPath" fill="#42a563" d="m 0,0 H 15 l 6,4 3,0 6,-4 H 111.29975891113281 v 25 H 50 l -6,4 -3,0 -6,-4 h -7 a 8,8 0 0,0 -8,8 v 423 a 8,8 0 0,0 8,8 H 111.29975891113281 v 10 H 29.5 l -6,4 -3,0 -6,-4 H 8 a 8,8 0 0,1 -8,-8 z&#10;"/><path class="blocklyPathLight" stroke="#7bc092" d="m 0.5,0.5 H 15 l 6,4 3,0 6,-4 H 110.79975891113281 M 110.79975891113281,0.5 M 110.79975891113281,25.5 M 21.989592359914347,462.01040764008565 a 8.5,8.5 0 0,0 6.0104076400856545,2.4895923599143455 H 110.79975891113281 M 2.6966991411008934,471.3033008588991 A 7.5,7.5 0 0,1 0.5,466 V 0.5&#10;"/><g class="blocklyDraggable" transform="translate(21,26)"><path class="blocklyPathDark" transform="translate(1,1)" fill="#35844f" d="m 0,8 A 8,8 0 0,1 8,0 H 15 l 6,4 3,0 6,-4 H 103.13429069519043 v 5 c 0,10 -8,-8 -8,7.5 s 8,-2.5 8,7.5 v 16 H 29.5 l -6,4 -3,0 -6,-4 H 0 z&#10;"/><path class="blocklyPath" fill="#42a563" d="m 0,8 A 8,8 0 0,1 8,0 H 15 l 6,4 3,0 6,-4 H 103.13429069519043 v 5 c 0,10 -8,-8 -8,7.5 s 8,-2.5 8,7.5 v 16 H 29.5 l -6,4 -3,0 -6,-4 H 0 z&#10;"/><path class="blocklyPathLight" stroke="#7bc092" d="m 0.5,7.5 A 7.5,7.5 0 0,1 8,0.5 H 15 l 6,4 3,0 6,-4 H 102.63429069519043 M 102.63429069519043,0.5 M 98.13429069519043,19.3 l 3.68,-2.1 M 0.5,35.5 V 8&#10;"/><g class="blocklyDraggable" transform="translate(104.13429069519043,0)"><path class="blocklyPathDark" transform="translate(1,1)" fill="#35844f" d="m 0,0 H 20 H 161.77878379821777 v 36 H 0 V 20 c 0,-10 -8,8 -8,-7.5 s 8,2.5 8,-7.5 z&#10;M 75.42214965820312,5 h -59.422149658203125 v 5 c 0,10 -8,-8 -8,7.5 s 8,-2.5 8,7.5 v 7 h 59.422149658203125 z M 151.77878379821777,5 h -30.156112670898438 v 5 c 0,10 -8,-8 -8,7.5 s 8,-2.5 8,7.5 v 7 h 30.156112670898438 z"/><path class="blocklyPath" fill="#42a563" d="m 0,0 H 20 H 161.77878379821777 v 36 H 0 V 20 c 0,-10 -8,8 -8,-7.5 s 8,2.5 8,-7.5 z&#10;M 75.42214965820312,5 h -59.422149658203125 v 5 c 0,10 -8,-8 -8,7.5 s 8,-2.5 8,7.5 v 7 h 59.422149658203125 z M 151.77878379821777,5 h -30.156112670898438 v 5 c 0,10 -8,-8 -8,7.5 s 8,-2.5 8,7.5 v 7 h 30.156112670898438 z"/><path class="blocklyPathLight" stroke="#7bc092" d="m 0.5,0.5 H 19.5 M 19.5,0.5 H 161.27878379821777 M 0.5,35.5 V 18.5 m -7.36,-0.5 q -1.52,-5.5 0,-11 m 7.36,1 V 0.5 H 1&#10;M 75.92214965820312,5.5 v 27 h -59.422149658203125 M 10.9,24.3 l 3.68,-2.1 M 152.27878379821777,5.5 v 27 h -30.156112670898438 M 116.52267112731934,24.3 l 3.68,-2.1"/><g class="blocklyDraggable" transform="translate(17,6)"><path class="blocklyPathDark" transform="translate(1,1)" fill="#84357e" d="m 0,0 H 57.422149658203125 v 25 H 0 V 20 c 0,-10 -8,8 -8,-7.5 s 8,2.5 8,-7.5 z&#10;"/><path class="blocklyPath" fill="#a5429d" d="m 0,0 H 57.422149658203125 v 25 H 0 V 20 c 0,-10 -8,8 -8,-7.5 s 8,2.5 8,-7.5 z&#10;"/><path class="blocklyPathLight" stroke="#c07bba" d="m 0.5,0.5 H 56.922149658203125 M 56.922149658203125,0.5 M 0.5,24.5 V 18.5 m -7.36,-0.5 q -1.52,-5.5 0,-11 m 7.36,1 V 0.5 H 1&#10;"/><g class="blocklyEditableText" transform="translate(10,5)" style="cursor: default;"><rect rx="4" ry="4" x="-5" y="0" height="16" width="47.422149658203125"/><text class="blocklyText" y="12.5" text-anchor="start" x="0">turn<tspan style="fill: rgb(165, 66, 157);"> ▾</tspan></text></g></g><g transform="translate(122.62267112731934,6)"><path class="blocklyPathDark" transform="translate(1,1)" fill="#b3c7db" d="m 0,0 H 28.156112670898438 v 25 H 0 V 20 c 0,-10 -8,8 -8,-7.5 s 8,2.5 8,-7.5 z&#10;"/><path class="blocklyPath" fill="#b3c7db" d="m 0,0 H 28.156112670898438 v 25 H 0 V 20 c 0,-10 -8,8 -8,-7.5 s 8,2.5 8,-7.5 z&#10;"/><path class="blocklyPathLight" d="m 0.5,0.5 H 27.656112670898438 M 27.656112670898438,0.5 M 0.5,24.5 V 18.5 m -7.36,-0.5 q -1.52,-5.5 0,-11 m 7.36,1 V 0.5 H 1&#10;" style="display: none;"/><g class="blocklyEditableText" transform="translate(10,5)" style="cursor: text;"><rect rx="4" ry="4" x="-5" y="0" height="16" width="18.156112670898438"/><text class="blocklyText" y="12.5">0</text></g></g><g class="blocklyEditableText" transform="translate(85.42214965820312,10)" style="cursor: default;"><rect rx="4" ry="4" x="-5" y="0" height="16" width="30.20052146911621"/><text class="blocklyText" y="12.5" text-anchor="start" x="0">≠<tspan style="fill: rgb(66, 165, 99);"> ▾</tspan></text></g></g><g class="blocklyDraggable" transform="translate(0,37)"><path class="blocklyPathDark" transform="translate(1,1)" fill="#35844f" d="m 0,0 H 15 l 6,4 3,0 6,-4 H 78.54281425476074 v 5 c 0,10 -8,-8 -8,7.5 s 8,-2.5 8,7.5 v 16 H 78.54281425476074 l -6,4 -3,0 -6,-4 h -7 a 8,8 0 0,0 -8,8 v 40 a 8,8 0 0,0 8,8 H 78.54281425476074 v 10 H 78.54281425476074 l -6,4 -3,0 -6,-4 h -7 a 8,8 0 0,0 -8,8 v 39 a 8,8 0 0,0 8,8 H 78.54281425476074 v 10 H 29.5 l -6,4 -3,0 -6,-4 H 0 z&#10;"/><path class="blocklyPath" fill="#42a563" d="m 0,0 H 15 l 6,4 3,0 6,-4 H 78.54281425476074 v 5 c 0,10 -8,-8 -8,7.5 s 8,-2.5 8,7.5 v 16 H 78.54281425476074 l -6,4 -3,0 -6,-4 h -7 a 8,8 0 0,0 -8,8 v 40 a 8,8 0 0,0 8,8 H 78.54281425476074 v 10 H 78.54281425476074 l -6,4 -3,0 -6,-4 h -7 a 8,8 0 0,0 -8,8 v 39 a 8,8 0 0,0 8,8 H 78.54281425476074 v 10 H 29.5 l -6,4 -3,0 -6,-4 H 0 z&#10;"/><path class="blocklyPathLight" stroke="#7bc092" d="m 0.5,0.5 H 15 l 6,4 3,0 6,-4 H 78.04281425476074 M 78.04281425476074,0.5 M 73.54281425476074,19.3 l 3.68,-2.1 M 78.04281425476074,36.5 M 50.53240661467509,90.01040764008566 a 8.5,8.5 0 0,0 6.0104076400856545,2.4895923599143455 H 78.04281425476074 M 78.04281425476074,102.5 M 50.53240661467509,155.01040764008565 a 8.5,8.5 0 0,0 6.0104076400856545,2.4895923599143455 H 78.04281425476074 M 0.5,166.5 V 0.5&#10;"/><g class="blocklyDraggable" transform="translate(79.54281425476074,0)"><path class="blocklyPathDark" transform="translate(1,1)" fill="#35844f" d="m 0,0 H 20 H 162.2943572998047 v 36 H 0 V 20 c 0,-10 -8,8 -8,-7.5 s 8,2.5 8,-7.5 z&#10;M 75.42214965820312,5 h -59.422149658203125 v 5 c 0,10 -8,-8 -8,7.5 s 8,-2.5 8,7.5 v 7 h 59.422149658203125 z M 152.2943572998047,5 h -30.156112670898438 v 5 c 0,10 -8,-8 -8,7.5 s 8,-2.5 8,7.5 v 7 h 30.156112670898438 z"/><path class="blocklyPath" fill="#42a563" d="m 0,0 H 20 H 162.2943572998047 v 36 H 0 V 20 c 0,-10 -8,8 -8,-7.5 s 8,2.5 8,-7.5 z&#10;M 75.42214965820312,5 h -59.422149658203125 v 5 c 0,10 -8,-8 -8,7.5 s 8,-2.5 8,7.5 v 7 h 59.422149658203125 z M 152.2943572998047,5 h -30.156112670898438 v 5 c 0,10 -8,-8 -8,7.5 s 8,-2.5 8,7.5 v 7 h 30.156112670898438 z"/><path class="blocklyPathLight" stroke="#7bc092" d="m 0.5,0.5 H 19.5 M 19.5,0.5 H 161.7943572998047 M 0.5,35.5 V 18.5 m -7.36,-0.5 q -1.52,-5.5 0,-11 m 7.36,1 V 0.5 H 1&#10;M 75.92214965820312,5.5 v 27 h -59.422149658203125 M 10.9,24.3 l 3.68,-2.1 M 152.7943572998047,5.5 v 27 h -30.156112670898438 M 117.03824462890626,24.3 l 3.68,-2.1"/><g class="blocklyDraggable" transform="translate(17,6)"><path class="blocklyPathDark" transform="translate(1,1)" fill="#84357e" d="m 0,0 H 57.422149658203125 v 25 H 0 V 20 c 0,-10 -8,8 -8,-7.5 s 8,2.5 8,-7.5 z&#10;"/><path class="blocklyPath" fill="#a5429d" d="m 0,0 H 57.422149658203125 v 25 H 0 V 20 c 0,-10 -8,8 -8,-7.5 s 8,2.5 8,-7.5 z&#10;"/><path class="blocklyPathLight" stroke="#c07bba" d="m 0.5,0.5 H 56.922149658203125 M 56.922149658203125,0.5 M 0.5,24.5 V 18.5 m -7.36,-0.5 q -1.52,-5.5 0,-11 m 7.36,1 V 0.5 H 1&#10;"/><g class="blocklyEditableText" transform="translate(10,5)" style="cursor: default;"><rect rx="4" ry="4" x="-5" y="0" height="16" width="47.422149658203125"/><text class="blocklyText" y="12.5" text-anchor="start" x="0">turn<tspan style="fill: rgb(165, 66, 157);"> ▾</tspan></text></g></g><g transform="translate(123.13824462890625,6)"><path class="blocklyPathDark" transform="translate(1,1)" fill="#b3c7db" d="m 0,0 H 28.156112670898438 v 25 H 0 V 20 c 0,-10 -8,8 -8,-7.5 s 8,2.5 8,-7.5 z&#10;"/><path class="blocklyPath" fill="#b3c7db" d="m 0,0 H 28.156112670898438 v 25 H 0 V 20 c 0,-10 -8,8 -8,-7.5 s 8,2.5 8,-7.5 z&#10;"/><path class="blocklyPathLight" d="m 0.5,0.5 H 27.656112670898438 M 27.656112670898438,0.5 M 0.5,24.5 V 18.5 m -7.36,-0.5 q -1.52,-5.5 0,-11 m 7.36,1 V 0.5 H 1&#10;" style="display: none;"/><g class="blocklyEditableText" transform="translate(10,5)" style="cursor: text;"><rect rx="4" ry="4" x="-5" y="0" height="16" width="18.156112670898438"/><text class="blocklyText" y="12.5">0</text></g></g><g class="blocklyEditableText" transform="translate(85.42214965820312,10)" style="cursor: default;"><rect rx="4" ry="4" x="-5" y="0" height="16" width="30.716094970703125"/><text class="blocklyText" y="12.5" text-anchor="start" x="0">&gt;<tspan style="fill: rgb(66, 165, 99);"> ▾</tspan></text></g></g><g class="blocklyDraggable" transform="translate(49.54281425476074,37)"><path class="blocklyPathDark" transform="translate(1,1)" fill="#843535" d="m 0,8 A 8,8 0 0,1 8,0 H 15 l 6,4 3,0 6,-4 H 147.82826232910156 v 5 c 0,10 -8,-8 -8,7.5 s 8,-2.5 8,7.5 v 6 v 5 c 0,10 -8,-8 -8,7.5 s 8,-2.5 8,7.5 v 5 H 29.5 l -6,4 -3,0 -6,-4 H 8 a 8,8 0 0,1 -8,-8 z&#10;"/><path class="blocklyPath" fill="#a54242" d="m 0,8 A 8,8 0 0,1 8,0 H 15 l 6,4 3,0 6,-4 H 147.82826232910156 v 5 c 0,10 -8,-8 -8,7.5 s 8,-2.5 8,7.5 v 6 v 5 c 0,10 -8,-8 -8,7.5 s 8,-2.5 8,7.5 v 5 H 29.5 l -6,4 -3,0 -6,-4 H 8 a 8,8 0 0,1 -8,-8 z&#10;"/><path class="blocklyPathLight" stroke="#c07b7b" d="m 0.5,7.5 A 7.5,7.5 0 0,1 8,0.5 H 15 l 6,4 3,0 6,-4 H 147.32826232910156 M 147.32826232910156,0.5 M 142.82826232910156,19.3 l 3.68,-2.1 M 147.32826232910156,26.5 M 142.82826232910156,45.3 l 3.68,-2.1 M 2.6966991411008934,48.30330085889911 A 7.5,7.5 0 0,1 0.5,43 V 8&#10;"/><g transform="translate(148.82826232910156,0)"><path class="blocklyPathDark" transform="translate(1,1)" fill="#dbb3bd" d="m 0,0 H 50.89869689941406 v 25 H 0 V 20 c 0,-10 -8,8 -8,-7.5 s 8,2.5 8,-7.5 z&#10;"/><path class="blocklyPath" fill="#dbb3bd" d="m 0,0 H 50.89869689941406 v 25 H 0 V 20 c 0,-10 -8,8 -8,-7.5 s 8,2.5 8,-7.5 z&#10;"/><path class="blocklyPathLight" d="m 0.5,0.5 H 50.39869689941406 M 50.39869689941406,0.5 M 0.5,24.5 V 18.5 m -7.36,-0.5 q -1.52,-5.5 0,-11 m 7.36,1 V 0.5 H 1&#10;" style="display: none;"/><g class="blocklyEditableText" transform="translate(10,5)" style="cursor: default;"><rect rx="4" ry="4" x="-5" y="0" height="16" width="40.89869689941406"/><text class="blocklyText" y="12.5" text-anchor="start" x="0">D3<tspan style="fill: rgb(165, 66, 91);"> ▾</tspan></text></g></g><g transform="translate(148.82826232910156,26)"><path class="blocklyPathDark" transform="translate(1,1)" fill="#b3c7db" d="m 0,0 H 36.312225341796875 v 25 H 0 V 20 c 0,-10 -8,8 -8,-7.5 s 8,2.5 8,-7.5 z&#10;"/><path class="blocklyPath" fill="#b3c7db" d="m 0,0 H 36.312225341796875 v 25 H 0 V 20 c 0,-10 -8,8 -8,-7.5 s 8,2.5 8,-7.5 z&#10;"/><path class="blocklyPathLight" d="m 0.5,0.5 H 35.812225341796875 M 35.812225341796875,0.5 M 0.5,24.5 V 18.5 m -7.36,-0.5 q -1.52,-5.5 0,-11 m 7.36,1 V 0.5 H 1&#10;" style="display: none;"/><g class="blocklyEditableText" transform="translate(10,5)" style="cursor: text;"><rect rx="4" ry="4" x="-5" y="0" height="16" width="26.312225341796875"/><text class="blocklyText" y="12.5">90</text></g></g><text class="blocklyText" y="12.5" transform="translate(10,5)">move servo on pin</text><text class="blocklyText" y="12.5" transform="translate(10,31)">degrees</text></g><g class="blocklyDraggable" transform="translate(49.54281425476074,103)"><path class="blocklyPathDark" transform="translate(1,1)" fill="#843535" d="m 0,8 A 8,8 0 0,1 8,0 H 15 l 6,4 3,0 6,-4 H 147.82826232910156 v 5 c 0,10 -8,-8 -8,7.5 s 8,-2.5 8,7.5 v 6 v 5 c 0,10 -8,-8 -8,7.5 s 8,-2.5 8,7.5 v 5 H 29.5 l -6,4 -3,0 -6,-4 H 8 a 8,8 0 0,1 -8,-8 z&#10;"/><path class="blocklyPath" fill="#a54242" d="m 0,8 A 8,8 0 0,1 8,0 H 15 l 6,4 3,0 6,-4 H 147.82826232910156 v 5 c 0,10 -8,-8 -8,7.5 s 8,-2.5 8,7.5 v 6 v 5 c 0,10 -8,-8 -8,7.5 s 8,-2.5 8,7.5 v 5 H 29.5 l -6,4 -3,0 -6,-4 H 8 a 8,8 0 0,1 -8,-8 z&#10;"/><path class="blocklyPathLight" stroke="#c07b7b" d="m 0.5,7.5 A 7.5,7.5 0 0,1 8,0.5 H 15 l 6,4 3,0 6,-4 H 147.32826232910156 M 147.32826232910156,0.5 M 142.82826232910156,19.3 l 3.68,-2.1 M 147.32826232910156,26.5 M 142.82826232910156,45.3 l 3.68,-2.1 M 2.6966991411008934,48.30330085889911 A 7.5,7.5 0 0,1 0.5,43 V 8&#10;"/><g transform="translate(148.82826232910156,0)"><path class="blocklyPathDark" transform="translate(1,1)" fill="#dbb3bd" d="m 0,0 H 50.89869689941406 v 25 H 0 V 20 c 0,-10 -8,8 -8,-7.5 s 8,2.5 8,-7.5 z&#10;"/><path class="blocklyPath" fill="#dbb3bd" d="m 0,0 H 50.89869689941406 v 25 H 0 V 20 c 0,-10 -8,8 -8,-7.5 s 8,2.5 8,-7.5 z&#10;"/><path class="blocklyPathLight" d="m 0.5,0.5 H 50.39869689941406 M 50.39869689941406,0.5 M 0.5,24.5 V 18.5 m -7.36,-0.5 q -1.52,-5.5 0,-11 m 7.36,1 V 0.5 H 1&#10;" style="display: none;"/><g class="blocklyEditableText" transform="translate(10,5)" style="cursor: default;"><rect rx="4" ry="4" x="-5" y="0" height="16" width="40.89869689941406"/><text class="blocklyText" y="12.5" text-anchor="start" x="0">D4<tspan style="fill: rgb(165, 66, 91);"> ▾</tspan></text></g></g><g transform="translate(148.82826232910156,26)"><path class="blocklyPathDark" transform="translate(1,1)" fill="#b3c7db" d="m 0,0 H 36.312225341796875 v 25 H 0 V 20 c 0,-10 -8,8 -8,-7.5 s 8,2.5 8,-7.5 z&#10;"/><path class="blocklyPath" fill="#b3c7db" d="m 0,0 H 36.312225341796875 v 25 H 0 V 20 c 0,-10 -8,8 -8,-7.5 s 8,2.5 8,-7.5 z&#10;"/><path class="blocklyPathLight" d="m 0.5,0.5 H 35.812225341796875 M 35.812225341796875,0.5 M 0.5,24.5 V 18.5 m -7.36,-0.5 q -1.52,-5.5 0,-11 m 7.36,1 V 0.5 H 1&#10;" style="display: none;"/><g class="blocklyEditableText" transform="translate(10,5)" style="cursor: text;"><rect rx="4" ry="4" x="-5" y="0" height="16" width="26.312225341796875"/><text class="blocklyText" y="12.5">90</text></g></g><text class="blocklyText" y="12.5" transform="translate(10,5)">move servo on pin</text><text class="blocklyText" y="12.5" transform="translate(10,31)">degrees</text></g><g class="blocklyDraggable" transform="translate(0,168)"><path class="blocklyPathDark" transform="translate(1,1)" fill="#35844f" d="m 0,0 H 15 l 6,4 3,0 6,-4 H 40 H 181.24035263061523 v 36 H 29.5 l -6,4 -3,0 -6,-4 H 0 z&#10;M 94.4661979675293,5 h -42.386701583862305 v 5 c 0,10 -8,-8 -8,7.5 s 8,-2.5 8,7.5 v 7 h 42.386701583862305 z"/><path class="blocklyPath" fill="#42a563" d="m 0,0 H 15 l 6,4 3,0 6,-4 H 40 H 181.24035263061523 v 36 H 29.5 l -6,4 -3,0 -6,-4 H 0 z&#10;M 94.4661979675293,5 h -42.386701583862305 v 5 c 0,10 -8,-8 -8,7.5 s 8,-2.5 8,7.5 v 7 h 42.386701583862305 z"/><path class="blocklyPathLight" stroke="#7bc092" d="m 0.5,0.5 H 15 l 6,4 3,0 6,-4 H 39.5 M 39.5,0.5 H 180.74035263061523 M 0.5,35.5 V 0.5&#10;M 94.9661979675293,5.5 v 27 h -42.386701583862305 M 46.97949638366699,24.3 l 3.68,-2.1"/><g transform="translate(53.07949638366699,6)"><path class="blocklyPathDark" transform="translate(1,1)" fill="#b3c7db" d="m 0,0 H 40.386701583862305 v 25 H 0 V 20 c 0,-10 -8,8 -8,-7.5 s 8,2.5 8,-7.5 z&#10;"/><path class="blocklyPath" fill="#b3c7db" d="m 0,0 H 40.386701583862305 v 25 H 0 V 20 c 0,-10 -8,8 -8,-7.5 s 8,2.5 8,-7.5 z&#10;"/><path class="blocklyPathLight" d="m 0.5,0.5 H 39.886701583862305 M 39.886701583862305,0.5 M 0.5,24.5 V 18.5 m -7.36,-0.5 q -1.52,-5.5 0,-11 m 7.36,1 V 0.5 H 1&#10;" style="display: none;"/><g class="blocklyEditableText" transform="translate(10,5)" style="cursor: text;"><rect rx="4" ry="4" x="-5" y="0" height="16" width="30.386701583862305"/><text class="blocklyText" y="12.5">1.5</text></g></g><g class="blocklyDraggable" transform="translate(0,37)"><path class="blocklyPathDark" transform="translate(1,1)" fill="#35844f" d="m 0,0 H 15 l 6,4 3,0 6,-4 H 78.54281425476074 v 5 c 0,10 -8,-8 -8,7.5 s 8,-2.5 8,7.5 v 16 H 78.54281425476074 l -6,4 -3,0 -6,-4 h -7 a 8,8 0 0,0 -8,8 v 40 a 8,8 0 0,0 8,8 H 78.54281425476074 v 10 H 78.54281425476074 l -6,4 -3,0 -6,-4 h -7 a 8,8 0 0,0 -8,8 v 39 a 8,8 0 0,0 8,8 H 78.54281425476074 v 10 H 29.5 l -6,4 -3,0 -6,-4 H 0 z&#10;"/><path class="blocklyPath" fill="#42a563" d="m 0,0 H 15 l 6,4 3,0 6,-4 H 78.54281425476074 v 5 c 0,10 -8,-8 -8,7.5 s 8,-2.5 8,7.5 v 16 H 78.54281425476074 l -6,4 -3,0 -6,-4 h -7 a 8,8 0 0,0 -8,8 v 40 a 8,8 0 0,0 8,8 H 78.54281425476074 v 10 H 78.54281425476074 l -6,4 -3,0 -6,-4 h -7 a 8,8 0 0,0 -8,8 v 39 a 8,8 0 0,0 8,8 H 78.54281425476074 v 10 H 29.5 l -6,4 -3,0 -6,-4 H 0 z&#10;"/><path class="blocklyPathLight" stroke="#7bc092" d="m 0.5,0.5 H 15 l 6,4 3,0 6,-4 H 78.04281425476074 M 78.04281425476074,0.5 M 73.54281425476074,19.3 l 3.68,-2.1 M 78.04281425476074,36.5 M 50.53240661467509,90.01040764008566 a 8.5,8.5 0 0,0 6.0104076400856545,2.4895923599143455 H 78.04281425476074 M 78.04281425476074,102.5 M 50.53240661467509,155.01040764008565 a 8.5,8.5 0 0,0 6.0104076400856545,2.4895923599143455 H 78.04281425476074 M 0.5,166.5 V 0.5&#10;"/><g class="blocklyDraggable" transform="translate(79.54281425476074,0)"><path class="blocklyPathDark" transform="translate(1,1)" fill="#35844f" d="m 0,0 H 20 H 162.2943572998047 v 36 H 0 V 20 c 0,-10 -8,8 -8,-7.5 s 8,2.5 8,-7.5 z&#10;M 75.42214965820312,5 h -59.422149658203125 v 5 c 0,10 -8,-8 -8,7.5 s 8,-2.5 8,7.5 v 7 h 59.422149658203125 z M 152.2943572998047,5 h -30.156112670898438 v 5 c 0,10 -8,-8 -8,7.5 s 8,-2.5 8,7.5 v 7 h 30.156112670898438 z"/><path class="blocklyPath" fill="#42a563" d="m 0,0 H 20 H 162.2943572998047 v 36 H 0 V 20 c 0,-10 -8,8 -8,-7.5 s 8,2.5 8,-7.5 z&#10;M 75.42214965820312,5 h -59.422149658203125 v 5 c 0,10 -8,-8 -8,7.5 s 8,-2.5 8,7.5 v 7 h 59.422149658203125 z M 152.2943572998047,5 h -30.156112670898438 v 5 c 0,10 -8,-8 -8,7.5 s 8,-2.5 8,7.5 v 7 h 30.156112670898438 z"/><path class="blocklyPathLight" stroke="#7bc092" d="m 0.5,0.5 H 19.5 M 19.5,0.5 H 161.7943572998047 M 0.5,35.5 V 18.5 m -7.36,-0.5 q -1.52,-5.5 0,-11 m 7.36,1 V 0.5 H 1&#10;M 75.92214965820312,5.5 v 27 h -59.422149658203125 M 10.9,24.3 l 3.68,-2.1 M 152.7943572998047,5.5 v 27 h -30.156112670898438 M 117.03824462890626,24.3 l 3.68,-2.1"/><g class="blocklyDraggable" transform="translate(17,6)"><path class="blocklyPathDark" transform="translate(1,1)" fill="#84357e" d="m 0,0 H 57.422149658203125 v 25 H 0 V 20 c 0,-10 -8,8 -8,-7.5 s 8,2.5 8,-7.5 z&#10;"/><path class="blocklyPath" fill="#a5429d" d="m 0,0 H 57.422149658203125 v 25 H 0 V 20 c 0,-10 -8,8 -8,-7.5 s 8,2.5 8,-7.5 z&#10;"/><path class="blocklyPathLight" stroke="#c07bba" d="m 0.5,0.5 H 56.922149658203125 M 56.922149658203125,0.5 M 0.5,24.5 V 18.5 m -7.36,-0.5 q -1.52,-5.5 0,-11 m 7.36,1 V 0.5 H 1&#10;"/><g class="blocklyEditableText" transform="translate(10,5)" style="cursor: default;"><rect rx="4" ry="4" x="-5" y="0" height="16" width="47.422149658203125"/><text class="blocklyText" y="12.5" text-anchor="start" x="0">turn<tspan style="fill: rgb(165, 66, 157);"> ▾</tspan></text></g></g><g transform="translate(123.13824462890625,6)"><path class="blocklyPathDark" transform="translate(1,1)" fill="#b3c7db" d="m 0,0 H 28.156112670898438 v 25 H 0 V 20 c 0,-10 -8,8 -8,-7.5 s 8,2.5 8,-7.5 z&#10;"/><path class="blocklyPath" fill="#b3c7db" d="m 0,0 H 28.156112670898438 v 25 H 0 V 20 c 0,-10 -8,8 -8,-7.5 s 8,2.5 8,-7.5 z&#10;"/><path class="blocklyPathLight" d="m 0.5,0.5 H 27.656112670898438 M 27.656112670898438,0.5 M 0.5,24.5 V 18.5 m -7.36,-0.5 q -1.52,-5.5 0,-11 m 7.36,1 V 0.5 H 1&#10;" style="display: none;"/><g class="blocklyEditableText" transform="translate(10,5)" style="cursor: text;"><rect rx="4" ry="4" x="-5" y="0" height="16" width="18.156112670898438"/><text class="blocklyText" y="12.5">0</text></g></g><g class="blocklyEditableText" transform="translate(85.42214965820312,10)" style="cursor: default;"><rect rx="4" ry="4" x="-5" y="0" height="16" width="30.716094970703125"/><text class="blocklyText" y="12.5" text-anchor="start" x="0">&gt;<tspan style="fill: rgb(66, 165, 99);"> ▾</tspan></text></g></g><g class="blocklyDraggable" transform="translate(49.54281425476074,37)"><path class="blocklyPathDark" transform="translate(1,1)" fill="#843535" d="m 0,8 A 8,8 0 0,1 8,0 H 15 l 6,4 3,0 6,-4 H 147.82826232910156 v 5 c 0,10 -8,-8 -8,7.5 s 8,-2.5 8,7.5 v 6 v 5 c 0,10 -8,-8 -8,7.5 s 8,-2.5 8,7.5 v 5 H 29.5 l -6,4 -3,0 -6,-4 H 8 a 8,8 0 0,1 -8,-8 z&#10;"/><path class="blocklyPath" fill="#a54242" d="m 0,8 A 8,8 0 0,1 8,0 H 15 l 6,4 3,0 6,-4 H 147.82826232910156 v 5 c 0,10 -8,-8 -8,7.5 s 8,-2.5 8,7.5 v 6 v 5 c 0,10 -8,-8 -8,7.5 s 8,-2.5 8,7.5 v 5 H 29.5 l -6,4 -3,0 -6,-4 H 8 a 8,8 0 0,1 -8,-8 z&#10;"/><path class="blocklyPathLight" stroke="#c07b7b" d="m 0.5,7.5 A 7.5,7.5 0 0,1 8,0.5 H 15 l 6,4 3,0 6,-4 H 147.32826232910156 M 147.32826232910156,0.5 M 142.82826232910156,19.3 l 3.68,-2.1 M 147.32826232910156,26.5 M 142.82826232910156,45.3 l 3.68,-2.1 M 2.6966991411008934,48.30330085889911 A 7.5,7.5 0 0,1 0.5,43 V 8&#10;"/><g transform="translate(148.82826232910156,0)"><path class="blocklyPathDark" transform="translate(1,1)" fill="#dbb3bd" d="m 0,0 H 50.89869689941406 v 25 H 0 V 20 c 0,-10 -8,8 -8,-7.5 s 8,2.5 8,-7.5 z&#10;"/><path class="blocklyPath" fill="#dbb3bd" d="m 0,0 H 50.89869689941406 v 25 H 0 V 20 c 0,-10 -8,8 -8,-7.5 s 8,2.5 8,-7.5 z&#10;"/><path class="blocklyPathLight" d="m 0.5,0.5 H 50.39869689941406 M 50.39869689941406,0.5 M 0.5,24.5 V 18.5 m -7.36,-0.5 q -1.52,-5.5 0,-11 m 7.36,1 V 0.5 H 1&#10;" style="display: none;"/><g class="blocklyEditableText" transform="translate(10,5)" style="cursor: default;"><rect rx="4" ry="4" x="-5" y="0" height="16" width="40.89869689941406"/><text class="blocklyText" y="12.5" text-anchor="start" x="0">D3<tspan style="fill: rgb(165, 66, 91);"> ▾</tspan></text></g></g><g transform="translate(148.82826232910156,26)"><path class="blocklyPathDark" transform="translate(1,1)" fill="#b3c7db" d="m 0,0 H 28.156112670898438 v 25 H 0 V 20 c 0,-10 -8,8 -8,-7.5 s 8,2.5 8,-7.5 z&#10;"/><path class="blocklyPath" fill="#b3c7db" d="m 0,0 H 28.156112670898438 v 25 H 0 V 20 c 0,-10 -8,8 -8,-7.5 s 8,2.5 8,-7.5 z&#10;"/><path class="blocklyPathLight" d="m 0.5,0.5 H 27.656112670898438 M 27.656112670898438,0.5 M 0.5,24.5 V 18.5 m -7.36,-0.5 q -1.52,-5.5 0,-11 m 7.36,1 V 0.5 H 1&#10;" style="display: none;"/><g class="blocklyEditableText" transform="translate(10,5)" style="cursor: text;"><rect rx="4" ry="4" x="-5" y="0" height="16" width="18.156112670898438"/><text class="blocklyText" y="12.5">0</text></g></g><text class="blocklyText" y="12.5" transform="translate(10,5)">move servo on pin</text><text class="blocklyText" y="12.5" transform="translate(10,31)">degrees</text></g><g class="blocklyDraggable blocklySelected" transform="translate(49.54281425476074,103)"><path class="blocklyPathDark" transform="translate(1,1)" fill="#843535" d="m 0,8 A 8,8 0 0,1 8,0 H 15 l 6,4 3,0 6,-4 H 147.82826232910156 v 5 c 0,10 -8,-8 -8,7.5 s 8,-2.5 8,7.5 v 6 v 5 c 0,10 -8,-8 -8,7.5 s 8,-2.5 8,7.5 v 5 H 29.5 l -6,4 -3,0 -6,-4 H 8 a 8,8 0 0,1 -8,-8 z&#10;"/><path class="blocklyPath" fill="#a54242" d="m 0,8 A 8,8 0 0,1 8,0 H 15 l 6,4 3,0 6,-4 H 147.82826232910156 v 5 c 0,10 -8,-8 -8,7.5 s 8,-2.5 8,7.5 v 6 v 5 c 0,10 -8,-8 -8,7.5 s 8,-2.5 8,7.5 v 5 H 29.5 l -6,4 -3,0 -6,-4 H 8 a 8,8 0 0,1 -8,-8 z&#10;"/><path class="blocklyPathLight" stroke="#c07b7b" d="m 0.5,7.5 A 7.5,7.5 0 0,1 8,0.5 H 15 l 6,4 3,0 6,-4 H 147.32826232910156 M 147.32826232910156,0.5 M 142.82826232910156,19.3 l 3.68,-2.1 M 147.32826232910156,26.5 M 142.82826232910156,45.3 l 3.68,-2.1 M 2.6966991411008934,48.30330085889911 A 7.5,7.5 0 0,1 0.5,43 V 8&#10;"/><g transform="translate(148.82826232910156,0)"><path class="blocklyPathDark" transform="translate(1,1)" fill="#dbb3bd" d="m 0,0 H 50.89869689941406 v 25 H 0 V 20 c 0,-10 -8,8 -8,-7.5 s 8,2.5 8,-7.5 z&#10;"/><path class="blocklyPath" fill="#dbb3bd" d="m 0,0 H 50.89869689941406 v 25 H 0 V 20 c 0,-10 -8,8 -8,-7.5 s 8,2.5 8,-7.5 z&#10;"/><path class="blocklyPathLight" d="m 0.5,0.5 H 50.39869689941406 M 50.39869689941406,0.5 M 0.5,24.5 V 18.5 m -7.36,-0.5 q -1.52,-5.5 0,-11 m 7.36,1 V 0.5 H 1&#10;" style="display: none;"/><g class="blocklyEditableText" transform="translate(10,5)" style="cursor: default;"><rect rx="4" ry="4" x="-5" y="0" height="16" width="40.89869689941406"/><text class="blocklyText" y="12.5" text-anchor="start" x="0">D4<tspan style="fill: rgb(165, 66, 91);"> ▾</tspan></text></g></g><g transform="translate(148.82826232910156,26)"><path class="blocklyPathDark" transform="translate(1,1)" fill="#b3c7db" d="m 0,0 H 28.156112670898438 v 25 H 0 V 20 c 0,-10 -8,8 -8,-7.5 s 8,2.5 8,-7.5 z&#10;"/><path class="blocklyPath" fill="#b3c7db" d="m 0,0 H 28.156112670898438 v 25 H 0 V 20 c 0,-10 -8,8 -8,-7.5 s 8,2.5 8,-7.5 z&#10;"/><path class="blocklyPathLight" d="m 0.5,0.5 H 27.656112670898438 M 27.656112670898438,0.5 M 0.5,24.5 V 18.5 m -7.36,-0.5 q -1.52,-5.5 0,-11 m 7.36,1 V 0.5 H 1&#10;" style="display: none;"/><g class="blocklyEditableText" transform="translate(10,5)" style="cursor: text;"><rect rx="4" ry="4" x="-5" y="0" height="16" width="18.156112670898438"/><text class="blocklyText" y="12.5">0</text></g></g><text class="blocklyText" y="12.5" transform="translate(10,5)">move servo on pin</text><text class="blocklyText" y="12.5" transform="translate(10,31)">degrees</text></g><g class="blocklyDraggable" transform="translate(0,168)"><path class="blocklyPathDark" transform="translate(1,1)" fill="#84357e" d="m 0,0 H 15 l 6,4 3,0 6,-4 H 117.21595764160156 v 5 c 0,10 -8,-8 -8,7.5 s 8,-2.5 8,7.5 v 5 H 29.5 l -6,4 -3,0 -6,-4 H 8 a 8,8 0 0,1 -8,-8 z&#10;"/><path class="blocklyPath" fill="#a5429d" d="m 0,0 H 15 l 6,4 3,0 6,-4 H 117.21595764160156 v 5 c 0,10 -8,-8 -8,7.5 s 8,-2.5 8,7.5 v 5 H 29.5 l -6,4 -3,0 -6,-4 H 8 a 8,8 0 0,1 -8,-8 z&#10;"/><path class="blocklyPathLight" stroke="#c07bba" d="m 0.5,0.5 H 15 l 6,4 3,0 6,-4 H 116.71595764160156 M 116.71595764160156,0.5 M 112.21595764160156,19.3 l 3.68,-2.1 M 2.6966991411008934,22.303300858899107 A 7.5,7.5 0 0,1 0.5,17 V 0.5&#10;"/><g transform="translate(118.21595764160156,0)"><path class="blocklyPathDark" transform="translate(1,1)" fill="#b3c7db" d="m 0,0 H 28.156112670898438 v 25 H 0 V 20 c 0,-10 -8,8 -8,-7.5 s 8,2.5 8,-7.5 z&#10;"/><path class="blocklyPath" fill="#b3c7db" d="m 0,0 H 28.156112670898438 v 25 H 0 V 20 c 0,-10 -8,8 -8,-7.5 s 8,2.5 8,-7.5 z&#10;"/><path class="blocklyPathLight" d="m 0.5,0.5 H 27.656112670898438 M 27.656112670898438,0.5 M 0.5,24.5 V 18.5 m -7.36,-0.5 q -1.52,-5.5 0,-11 m 7.36,1 V 0.5 H 1&#10;" style="display: none;"/><g class="blocklyEditableText" transform="translate(10,5)" style="cursor: text;"><rect rx="4" ry="4" x="-5" y="0" height="16" width="18.156112670898438"/><text class="blocklyText" y="12.5">0</text></g></g><text class="blocklyText" y="12.5" transform="translate(10,5)">set</text><g class="blocklyEditableText" transform="translate(39.56321907043457,5)" style="cursor: default;"><rect rx="4" ry="4" x="-5" y="0" height="16" width="47.422149658203125"/><text class="blocklyText" y="12.5" text-anchor="start" x="0">turn<tspan style="fill: rgb(165, 66, 157);"> ▾</tspan></text></g><text class="blocklyText" y="12.5" transform="translate(86.9853687286377,5)">to</text></g><text class="blocklyText" y="12.5" transform="translate(10,5)">if</text><text class="blocklyText" y="12.5" transform="translate(10,41)">then</text><text class="blocklyText" y="12.5" transform="translate(10,107)">else</text></g><text class="blocklyText" y="12.5" transform="translate(10,10)">wait</text><g class="blocklyEditableText" transform="translate(104.4661979675293,10)" style="cursor: default;"><rect rx="4" ry="4" x="-5" y="0" height="16" width="76.77415466308594"/><text class="blocklyText" y="12.5" text-anchor="start" x="0">seconds<tspan style="fill: rgb(66, 165, 99);"> ▾</tspan></text></g></g><text class="blocklyText" y="12.5" transform="translate(10,5)">if</text><text class="blocklyText" y="12.5" transform="translate(10,41)">then</text><text class="blocklyText" y="12.5" transform="translate(10,107)">else</text></g><text class="blocklyText" y="12.5" transform="translate(10,5)">wait</text><g class="blocklyEditableText" transform="translate(46.07949638366699,5)" style="cursor: default;"><rect rx="4" ry="4" x="-5" y="0" height="16" width="49.05479431152344"/><text class="blocklyText" y="12.5" text-anchor="start" x="0">until<tspan style="fill: rgb(66, 165, 99);"> ▾</tspan></text></g></g><text class="blocklyText" y="12.5" transform="translate(10,5)">repeat forever</text></g><text class="blocklyText" y="12.5" transform="translate(10,10)">move servo on pin</text><text class="blocklyText" y="12.5" transform="translate(208.72695922851562,10)">degrees</text></g><text class="blocklyText" y="12.5" transform="translate(10,10)">move servo on pin</text><text class="blocklyText" y="12.5" transform="translate(208.72695922851562,10)">degrees</text></g><text class="blocklyText" y="12.5" transform="translate(10,5)">task named</text><g class="blocklyEditableText" transform="translate(95.81104278564453,5)" style="cursor: text;"><rect rx="4" ry="4" x="-5" y="0" height="16" width="66.24781036376953"/><text class="blocklyText" y="12.5">turn sign</text></g></g></g></svg>