<svg version="1.1" xmlns="http://www.w3.org/2000/svg" xmlns:xlink="http://www.w3.org/1999/xlink" width="499.0618896484375" height="369" viewBox=" 86 65 499.0618896484375 369"><defs><style type="text/css" xmlns="http://www.w3.org/1999/xhtml"><![CDATA[.blocklySvg {background-color: #fff;outline: none;overflow: hidden;position: absolute;display: block;}.blocklyWidgetDiv {display: none;position: absolute;z-index: 99999;}.injectionDiv {height: 100%;position: relative;overflow: hidden;}.blocklyNonSelectable {user-select: none;-moz-user-select: none;-webkit-user-select: none;-ms-user-select: none;}.blocklyWsDragSurface {display: none;position: absolute;overflow: visible;top: 0;left: 0;}.blocklyBlockDragSurface {display: none;position: absolute;top: 0;left: 0;right: 0;bottom: 0;overflow: visible !important;z-index: 50;}.blocklyTooltipDiv {background-color: #ffffc7;border: 1px solid #ddc;box-shadow: 4px 4px 20px 1px rgba(0,0,0,.15);color: #000;display: none;font-family: sans-serif;font-size: 9pt;opacity: 0.9;padding: 2px;position: absolute;z-index: 100000;}.blocklyResizeSE {cursor: se-resize;fill: #aaa;}.blocklyResizeSW {cursor: sw-resize;fill: #aaa;}.blocklyResizeLine {stroke: #888;stroke-width: 1;}.blocklyHighlightedConnectionPath {fill: none;stroke: #fc3;stroke-width: 4px;}.blocklyPathLight {fill: none;stroke-linecap: round;stroke-width: 1;}.blocklySelected>.blocklyPath {stroke: #fc3;stroke-width: 3px;}.blocklySelected>.blocklyPathLight {display: none;}.blocklyDraggable {cursor: url("<<<PATH>>>/handopen.cur"), auto;cursor: grab;cursor: -webkit-grab;cursor: -moz-grab;}.blocklyDragging {cursor: url("<<<PATH>>>/handclosed.cur"), auto;cursor: grabbing;cursor: -webkit-grabbing;cursor: -moz-grabbing;}.blocklyDraggable:active {cursor: url("<<<PATH>>>/handclosed.cur"), auto;cursor: grabbing;cursor: -webkit-grabbing;cursor: -moz-grabbing;}.blocklyBlockDragSurface .blocklyDraggable {cursor: url("<<<PATH>>>/handclosed.cur"), auto;cursor: grabbing;cursor: -webkit-grabbing;cursor: -moz-grabbing;}.blocklyDragging.blocklyDraggingDelete {cursor: url("<<<PATH>>>/handdelete.cur"), auto;}.blocklyToolboxDelete {cursor: url("<<<PATH>>>/handdelete.cur"), auto;}.blocklyDragging>.blocklyPath,.blocklyDragging>.blocklyPathLight {fill-opacity: .8;stroke-opacity: .8;}.blocklyDragging>.blocklyPathDark {display: none;}.blocklyDisabled>.blocklyPath {fill-opacity: .5;stroke-opacity: .5;}.blocklyDisabled>.blocklyPathLight,.blocklyDisabled>.blocklyPathDark {display: none;}.blocklyText {cursor: default;fill: #fff;font-family: sans-serif;font-size: 11pt;}.blocklyNonEditableText>text {pointer-events: none;}.blocklyNonEditableText>rect,.blocklyEditableText>rect {fill: #fff;fill-opacity: .6;}.blocklyNonEditableText>text,.blocklyEditableText>text {fill: #000;}.blocklyEditableText:hover>rect {stroke: #fff;stroke-width: 2;}.blocklyBubbleText {fill: #000;}.blocklyFlyout {position: absolute;z-index: 20;}.blocklyFlyoutButton {fill: #888;cursor: default;}.blocklyFlyoutButtonShadow {fill: #666;}.blocklyFlyoutButton:hover {fill: #aaa;}.blocklyFlyoutLabel {cursor: default;}.blocklyFlyoutLabelBackground {opacity: 0;}.blocklyFlyoutLabelText {fill: #000;}.blocklySvg text, .blocklyBlockDragSurface text {user-select: none;-moz-user-select: none;-webkit-user-select: none;cursor: inherit;}.blocklyHidden {display: none;}.blocklyFieldDropdown:not(.blocklyHidden) {display: block;}.blocklyIconGroup {cursor: default;}.blocklyIconGroup:not(:hover),.blocklyIconGroupReadonly {opacity: .6;}.blocklyIconShape {fill: #00f;stroke: #fff;stroke-width: 1px;}.blocklyIconSymbol {fill: #fff;}.blocklyMinimalBody {margin: 0;padding: 0;}.blocklyCommentTextarea {background-color: #ffc;border: 0;margin: 0;padding: 2px;resize: none;}.blocklyHtmlInput {border: none;border-radius: 4px;font-family: sans-serif;height: 100%;margin: 0;outline: none;padding: 0 1px;width: 100%}.blocklyMainBackground {stroke-width: 1;stroke: #c6c6c6;}.blocklyMutatorBackground {fill: #fff;stroke: #ddd;stroke-width: 1;}.blocklyFlyoutBackground {fill: #ddd;fill-opacity: .8;}.blocklyMainWorkspaceScrollbar {z-index: 20;}.blocklyFlyoutScrollbar {z-index: 30;}.blocklyScrollbarHorizontal, .blocklyScrollbarVertical {position: absolute;outline: none;}.blocklyScrollbarBackground {opacity: 0;}.blocklyScrollbarHandle {fill: #ccc;}.blocklyScrollbarBackground:hover+.blocklyScrollbarHandle,.blocklyScrollbarHandle:hover {fill: #bbb;}.blocklyZoom>image {opacity: .4;}.blocklyZoom>image:hover {opacity: .6;}.blocklyZoom>image:active {opacity: .8;}.blocklyFlyout .blocklyScrollbarHandle {fill: #bbb;}.blocklyFlyout .blocklyScrollbarBackground:hover+.blocklyScrollbarHandle,.blocklyFlyout .blocklyScrollbarHandle:hover {fill: #aaa;}.blocklyInvalidInput {background: #faa;}.blocklyAngleCircle {stroke: #444;stroke-width: 1;fill: #ddd;fill-opacity: .8;}.blocklyAngleMarks {stroke: #444;stroke-width: 1;}.blocklyAngleGauge {fill: #f88;fill-opacity: .8;}.blocklyAngleLine {stroke: #f00;stroke-width: 2;stroke-linecap: round;pointer-events: none;}.blocklyContextMenu {border-radius: 4px;}.blocklyDropdownMenu {padding: 0 !important;}.blocklyWidgetDiv .goog-option-selected .goog-menuitem-checkbox,.blocklyWidgetDiv .goog-option-selected .goog-menuitem-icon {background: url(<<<PATH>>>/sprites.png) no-repeat -48px -16px !important;}.blocklyToolboxDiv {background-color: #ddd;overflow-x: visible;overflow-y: auto;position: absolute;z-index: 70;}.blocklyTreeRoot {padding: 4px 0;}.blocklyTreeRoot:focus {outline: none;}.blocklyTreeRow {height: 22px;line-height: 22px;margin-bottom: 3px;padding-right: 8px;white-space: nowrap;}.blocklyHorizontalTree {float: left;margin: 1px 5px 8px 0;}.blocklyHorizontalTreeRtl {float: right;margin: 1px 0 8px 5px;}.blocklyToolboxDiv[dir="RTL"] .blocklyTreeRow {margin-left: 8px;}.blocklyTreeRow:not(.blocklyTreeSelected):hover {background-color: #e4e4e4;}.blocklyTreeSeparator {border-bottom: solid #e5e5e5 1px;height: 0;margin: 5px 0;}.blocklyTreeSeparatorHorizontal {border-right: solid #e5e5e5 1px;width: 0;padding: 5px 0;margin: 0 5px;}.blocklyTreeIcon {background-image: url(<<<PATH>>>/sprites.png);height: 16px;vertical-align: middle;width: 16px;}.blocklyTreeIconClosedLtr {background-position: -32px -1px;}.blocklyTreeIconClosedRtl {background-position: 0px -1px;}.blocklyTreeIconOpen {background-position: -16px -1px;}.blocklyTreeSelected>.blocklyTreeIconClosedLtr {background-position: -32px -17px;}.blocklyTreeSelected>.blocklyTreeIconClosedRtl {background-position: 0px -17px;}.blocklyTreeSelected>.blocklyTreeIconOpen {background-position: -16px -17px;}.blocklyTreeIconNone,.blocklyTreeSelected>.blocklyTreeIconNone {background-position: -48px -1px;}.blocklyTreeLabel {cursor: default;font-family: sans-serif;font-size: 16px;padding: 0 3px;vertical-align: middle;}.blocklyTreeSelected .blocklyTreeLabel {color: #fff;}.blocklyWidgetDiv .goog-palette {outline: none;cursor: default;}.blocklyWidgetDiv .goog-palette-table {border: 1px solid #666;border-collapse: collapse;}.blocklyWidgetDiv .goog-palette-cell {height: 13px;width: 15px;margin: 0;border: 0;text-align: center;vertical-align: middle;border-right: 1px solid #666;font-size: 1px;}.blocklyWidgetDiv .goog-palette-colorswatch {position: relative;height: 13px;width: 15px;border: 1px solid #666;}.blocklyWidgetDiv .goog-palette-cell-hover .goog-palette-colorswatch {border: 1px solid #FFF;}.blocklyWidgetDiv .goog-palette-cell-selected .goog-palette-colorswatch {border: 1px solid #000;color: #fff;}.blocklyWidgetDiv .goog-menu {background: #fff;border-color: #ccc #666 #666 #ccc;border-style: solid;border-width: 1px;cursor: default;font: normal 13px Arial, sans-serif;margin: 0;outline: none;padding: 4px 0;position: absolute;overflow-y: auto;overflow-x: hidden;max-height: 100%;z-index: 20000;}.blocklyWidgetDiv .goog-menuitem {color: #000;font: normal 13px Arial, sans-serif;list-style: none;margin: 0;padding: 4px 7em 4px 28px;white-space: nowrap;}.blocklyWidgetDiv .goog-menuitem.goog-menuitem-rtl {padding-left: 7em;padding-right: 28px;}.blocklyWidgetDiv .goog-menu-nocheckbox .goog-menuitem,.blocklyWidgetDiv .goog-menu-noicon .goog-menuitem {padding-left: 12px;}.blocklyWidgetDiv .goog-menu-noaccel .goog-menuitem {padding-right: 20px;}.blocklyWidgetDiv .goog-menuitem-content {color: #000;font: normal 13px Arial, sans-serif;}.blocklyWidgetDiv .goog-menuitem-disabled .goog-menuitem-accel,.blocklyWidgetDiv .goog-menuitem-disabled .goog-menuitem-content {color: #ccc !important;}.blocklyWidgetDiv .goog-menuitem-disabled .goog-menuitem-icon {opacity: 0.3;-moz-opacity: 0.3;filter: alpha(opacity=30);}.blocklyWidgetDiv .goog-menuitem-highlight,.blocklyWidgetDiv .goog-menuitem-hover {background-color: #d6e9f8;border-color: #d6e9f8;border-style: dotted;border-width: 1px 0;padding-bottom: 3px;padding-top: 3px;}.blocklyWidgetDiv .goog-menuitem-checkbox,.blocklyWidgetDiv .goog-menuitem-icon {background-repeat: no-repeat;height: 16px;left: 6px;position: absolute;right: auto;vertical-align: middle;width: 16px;}.blocklyWidgetDiv .goog-menuitem-rtl .goog-menuitem-checkbox,.blocklyWidgetDiv .goog-menuitem-rtl .goog-menuitem-icon {left: auto;right: 6px;}.blocklyWidgetDiv .goog-option-selected .goog-menuitem-checkbox,.blocklyWidgetDiv .goog-option-selected .goog-menuitem-icon {background: url(//ssl.gstatic.com/editor/editortoolbar.png) no-repeat -512px 0;}.blocklyWidgetDiv .goog-menuitem-accel {color: #999;direction: ltr;left: auto;padding: 0 6px;position: absolute;right: 0;text-align: right;}.blocklyWidgetDiv .goog-menuitem-rtl .goog-menuitem-accel {left: 0;right: auto;text-align: left;}.blocklyWidgetDiv .goog-menuitem-mnemonic-hint {text-decoration: underline;}.blocklyWidgetDiv .goog-menuitem-mnemonic-separator {color: #999;font-size: 12px;padding-left: 4px;}.blocklyWidgetDiv .goog-menuseparator {border-top: 1px solid #ccc;margin: 4px 0;padding: 0;}]]></style></defs>"><g xmlns="http://www.w3.org/2000/svg" class="blocklyBlockCanvas"><g class="blocklyDraggable" transform="translate(86,65)"><path class="blocklyPathDark" transform="translate(1,1)" fill="#35847e" d="m 0,8 A 8,8 0 0,1 8,0 H 301.7623176574707 v 25 v 25 v 25 H 50 l -6,4 -3,0 -6,-4 h -7 a 8,8 0 0,0 -8,8 v 267 a 8,8 0 0,0 8,8 H 301.7623176574707 v 10 H 8 a 8,8 0 0,1 -8,-8 z&#10;"/><path class="blocklyPath" fill="#42a59d" d="m 0,8 A 8,8 0 0,1 8,0 H 301.7623176574707 v 25 v 25 v 25 H 50 l -6,4 -3,0 -6,-4 h -7 a 8,8 0 0,0 -8,8 v 267 a 8,8 0 0,0 8,8 H 301.7623176574707 v 10 H 8 a 8,8 0 0,1 -8,-8 z&#10;"/><path class="blocklyPathLight" stroke="#7bc0ba" d="m 0.5,7.5 A 7.5,7.5 0 0,1 8,0.5 H 301.2623176574707 M 301.2623176574707,0.5 M 301.2623176574707,25.5 M 301.2623176574707,50.5 M 301.2623176574707,75.5 M 21.989592359914347,356.01040764008565 a 8.5,8.5 0 0,0 6.0104076400856545,2.4895923599143455 H 301.2623176574707 M 2.6966991411008934,365.3033008588991 A 7.5,7.5 0 0,1 0.5,360 V 8&#10;"/><g class="blocklyDraggable" transform="translate(21,76)"><path class="blocklyPathDark" transform="translate(1,1)" fill="#84357e" d="m 0,8 A 8,8 0 0,1 8,0 H 15 l 6,4 3,0 6,-4 H 175.0478162765503 v 5 c 0,10 -8,-8 -8,7.5 s 8,-2.5 8,7.5 v 5 H 29.5 l -6,4 -3,0 -6,-4 H 0 z&#10;"/><path class="blocklyPath" fill="#a5429d" d="m 0,8 A 8,8 0 0,1 8,0 H 15 l 6,4 3,0 6,-4 H 175.0478162765503 v 5 c 0,10 -8,-8 -8,7.5 s 8,-2.5 8,7.5 v 5 H 29.5 l -6,4 -3,0 -6,-4 H 0 z&#10;"/><path class="blocklyPathLight" stroke="#c07bba" d="m 0.5,7.5 A 7.5,7.5 0 0,1 8,0.5 H 15 l 6,4 3,0 6,-4 H 174.5478162765503 M 174.5478162765503,0.5 M 170.0478162765503,19.3 l 3.68,-2.1 M 0.5,24.5 V 8&#10;"/><g class="blocklyDraggable" transform="translate(176.0478162765503,0)"><path class="blocklyPathDark" transform="translate(1,1)" fill="#35844f" d="m 0,0 H 63.1103515625 v 25 H 0 V 20 c 0,-10 -8,8 -8,-7.5 s 8,2.5 8,-7.5 z&#10;"/><path class="blocklyPath" fill="#42a563" d="m 0,0 H 63.1103515625 v 25 H 0 V 20 c 0,-10 -8,8 -8,-7.5 s 8,2.5 8,-7.5 z&#10;"/><path class="blocklyPathLight" stroke="#7bc092" d="m 0.5,0.5 H 62.6103515625 M 62.6103515625,0.5 M 0.5,24.5 V 18.5 m -7.36,-0.5 q -1.52,-5.5 0,-11 m 7.36,1 V 0.5 H 1&#10;"/><g class="blocklyEditableText" transform="translate(10,5)" style="cursor: default;"><rect rx="4" ry="4" x="-5" y="0" height="16" width="53.1103515625"/><text class="blocklyText" y="12.5" text-anchor="start" x="0">falso<tspan style="fill: rgb(66, 165, 99);"> ▾</tspan></text></g></g><g class="blocklyDraggable" transform="translate(0,26)"><path class="blocklyPathDark" transform="translate(1,1)" fill="#35844f" d="m 0,0 H 15 l 6,4 3,0 6,-4 H 109.49417877197266 v 5 c 0,10 -8,-8 -8,7.5 s 8,-2.5 8,7.5 v 5 H 109.49417877197266 l -6,4 -3,0 -6,-4 h -7 a 8,8 0 0,0 -8,8 v 13 a 8,8 0 0,0 8,8 H 109.49417877197266 v 10 H 29.5 l -6,4 -3,0 -6,-4 H 0 z&#10;"/><path class="blocklyPath" fill="#42a563" d="m 0,0 H 15 l 6,4 3,0 6,-4 H 109.49417877197266 v 5 c 0,10 -8,-8 -8,7.5 s 8,-2.5 8,7.5 v 5 H 109.49417877197266 l -6,4 -3,0 -6,-4 h -7 a 8,8 0 0,0 -8,8 v 13 a 8,8 0 0,0 8,8 H 109.49417877197266 v 10 H 29.5 l -6,4 -3,0 -6,-4 H 0 z&#10;"/><path class="blocklyPathLight" stroke="#7bc092" d="m 0.5,0.5 H 15 l 6,4 3,0 6,-4 H 108.99417877197266 M 108.99417877197266,0.5 M 104.49417877197266,19.3 l 3.68,-2.1 M 108.99417877197266,25.5 M 81.483771131887,52.01040764008565 a 8.5,8.5 0 0,0 6.0104076400856545,2.4895923599143455 H 108.99417877197266 M 0.5,63.5 V 0.5&#10;"/><g class="blocklyDraggable" transform="translate(110.49417877197266,0)"><path class="blocklyPathDark" transform="translate(1,1)" fill="#844935" d="m 0,0 H 272.0479106903076 v 5 c 0,10 -8,-8 -8,7.5 s 8,-2.5 8,7.5 v 5 H 0 V 20 c 0,-10 -8,8 -8,-7.5 s 8,2.5 8,-7.5 z&#10;"/><path class="blocklyPath" fill="#a55b42" d="m 0,0 H 272.0479106903076 v 5 c 0,10 -8,-8 -8,7.5 s 8,-2.5 8,7.5 v 5 H 0 V 20 c 0,-10 -8,8 -8,-7.5 s 8,2.5 8,-7.5 z&#10;"/><path class="blocklyPathLight" stroke="#c08c7b" d="m 0.5,0.5 H 271.5479106903076 M 271.5479106903076,0.5 M 267.0479106903076,19.3 l 3.68,-2.1 M 0.5,24.5 V 18.5 m -7.36,-0.5 q -1.52,-5.5 0,-11 m 7.36,1 V 0.5 H 1&#10;"/><g transform="translate(273.0479106903076,0)"><path class="blocklyPathDark" transform="translate(1,1)" fill="#dbb3bd" d="m 0,0 H 50.88513374328613 v 25 H 0 V 20 c 0,-10 -8,8 -8,-7.5 s 8,2.5 8,-7.5 z&#10;"/><path class="blocklyPath" fill="#dbb3bd" d="m 0,0 H 50.88513374328613 v 25 H 0 V 20 c 0,-10 -8,8 -8,-7.5 s 8,2.5 8,-7.5 z&#10;"/><path class="blocklyPathLight" d="m 0.5,0.5 H 50.38513374328613 M 50.38513374328613,0.5 M 0.5,24.5 V 18.5 m -7.36,-0.5 q -1.52,-5.5 0,-11 m 7.36,1 V 0.5 H 1&#10;" style="display: none;"/><g class="blocklyEditableText" transform="translate(10,5)" style="cursor: default;"><rect rx="4" ry="4" x="-5" y="0" height="16" width="40.88513374328613"/><text class="blocklyText" y="12.5" text-anchor="start" x="0">D7<tspan style="fill: rgb(165, 66, 91);"> ▾</tspan></text></g></g><text class="blocklyText" y="12.5" transform="translate(10,5)">está</text><g class="blocklyEditableText" transform="translate(47.7071590423584,5)" style="cursor: default;"><rect rx="4" ry="4" x="-5" y="0" height="16" width="94.68185424804688"/><text class="blocklyText" y="12.5" text-anchor="start" x="0">presionado<tspan style="fill: rgb(165, 91, 66);"> ▾</tspan></text></g><text class="blocklyText" y="12.5" transform="translate(142.38901329040527,5)">el botón en el pin</text></g><g class="blocklyDraggable" transform="translate(80.49417877197266,26)"><path class="blocklyPathDark" transform="translate(1,1)" fill="#84357e" d="m 0,8 A 8,8 0 0,1 8,0 H 15 l 6,4 3,0 6,-4 H 175.0478162765503 v 5 c 0,10 -8,-8 -8,7.5 s 8,-2.5 8,7.5 v 5 H 29.5 l -6,4 -3,0 -6,-4 H 8 a 8,8 0 0,1 -8,-8 z&#10;"/><path class="blocklyPath" fill="#a5429d" d="m 0,8 A 8,8 0 0,1 8,0 H 15 l 6,4 3,0 6,-4 H 175.0478162765503 v 5 c 0,10 -8,-8 -8,7.5 s 8,-2.5 8,7.5 v 5 H 29.5 l -6,4 -3,0 -6,-4 H 8 a 8,8 0 0,1 -8,-8 z&#10;"/><path class="blocklyPathLight" stroke="#c07bba" d="m 0.5,7.5 A 7.5,7.5 0 0,1 8,0.5 H 15 l 6,4 3,0 6,-4 H 174.5478162765503 M 174.5478162765503,0.5 M 170.0478162765503,19.3 l 3.68,-2.1 M 2.6966991411008934,22.303300858899107 A 7.5,7.5 0 0,1 0.5,17 V 8&#10;"/><g class="blocklyDraggable" transform="translate(176.0478162765503,0)"><path class="blocklyPathDark" transform="translate(1,1)" fill="#35844f" d="m 0,0 H 98.15411376953125 v 25 H 0 V 20 c 0,-10 -8,8 -8,-7.5 s 8,2.5 8,-7.5 z&#10;"/><path class="blocklyPath" fill="#42a563" d="m 0,0 H 98.15411376953125 v 25 H 0 V 20 c 0,-10 -8,8 -8,-7.5 s 8,2.5 8,-7.5 z&#10;"/><path class="blocklyPathLight" stroke="#7bc092" d="m 0.5,0.5 H 97.65411376953125 M 97.65411376953125,0.5 M 0.5,24.5 V 18.5 m -7.36,-0.5 q -1.52,-5.5 0,-11 m 7.36,1 V 0.5 H 1&#10;"/><g class="blocklyEditableText" transform="translate(10,5)" style="cursor: default;"><rect rx="4" ry="4" x="-5" y="0" height="16" width="88.15411376953125"/><text class="blocklyText" y="12.5" text-anchor="start" x="0">verdadero<tspan style="fill: rgb(66, 165, 99);"> ▾</tspan></text></g></g><text class="blocklyText" y="12.5" transform="translate(10,5)">establecer</text><g class="blocklyEditableText" transform="translate(87.63239288330078,5)" style="cursor: default;"><rect rx="4" ry="4" x="-5" y="0" height="16" width="61.26288604736328"/><text class="blocklyText" y="12.5" text-anchor="start" x="0">action<tspan style="fill: rgb(165, 66, 157);"> ▾</tspan></text></g><text class="blocklyText" y="12.5" transform="translate(148.89527893066406,5)">a</text></g><g class="blocklyDraggable" transform="translate(0,65)"><path class="blocklyPathDark" transform="translate(1,1)" fill="#35844f" d="m 0,0 H 15 l 6,4 3,0 6,-4 H 109.49417877197266 v 5 c 0,10 -8,-8 -8,7.5 s 8,-2.5 8,7.5 v 16 H 109.49417877197266 l -6,4 -3,0 -6,-4 h -7 a 8,8 0 0,0 -8,8 v 13 a 8,8 0 0,0 8,8 H 109.49417877197266 v 10 H 29.5 l -6,4 -3,0 -6,-4 H 0 z&#10;"/><path class="blocklyPath" fill="#42a563" d="m 0,0 H 15 l 6,4 3,0 6,-4 H 109.49417877197266 v 5 c 0,10 -8,-8 -8,7.5 s 8,-2.5 8,7.5 v 16 H 109.49417877197266 l -6,4 -3,0 -6,-4 h -7 a 8,8 0 0,0 -8,8 v 13 a 8,8 0 0,0 8,8 H 109.49417877197266 v 10 H 29.5 l -6,4 -3,0 -6,-4 H 0 z&#10;"/><path class="blocklyPathLight" stroke="#7bc092" d="m 0.5,0.5 H 15 l 6,4 3,0 6,-4 H 108.99417877197266 M 108.99417877197266,0.5 M 104.49417877197266,19.3 l 3.68,-2.1 M 108.99417877197266,36.5 M 81.483771131887,63.01040764008565 a 8.5,8.5 0 0,0 6.0104076400856545,2.4895923599143455 H 108.99417877197266 M 0.5,74.5 V 0.5&#10;"/><g class="blocklyDraggable" transform="translate(110.49417877197266,0)"><path class="blocklyPathDark" transform="translate(1,1)" fill="#35844f" d="m 0,0 H 20 H 331.0151596069336 v 36 H 0 V 20 c 0,-10 -8,8 -8,-7.5 s 8,2.5 8,-7.5 z&#10;M 145.15407943725586,5 h -129.15407943725586 v 5 c 0,10 -8,-8 -8,7.5 s 8,-2.5 8,7.5 v 7 h 129.15407943725586 z M 321.0151596069336,5 h -129.15407943725586 v 5 c 0,10 -8,-8 -8,7.5 s 8,-2.5 8,7.5 v 7 h 129.15407943725586 z"/><path class="blocklyPath" fill="#42a563" d="m 0,0 H 20 H 331.0151596069336 v 36 H 0 V 20 c 0,-10 -8,8 -8,-7.5 s 8,2.5 8,-7.5 z&#10;M 145.15407943725586,5 h -129.15407943725586 v 5 c 0,10 -8,-8 -8,7.5 s 8,-2.5 8,7.5 v 7 h 129.15407943725586 z M 321.0151596069336,5 h -129.15407943725586 v 5 c 0,10 -8,-8 -8,7.5 s 8,-2.5 8,7.5 v 7 h 129.15407943725586 z"/><path class="blocklyPathLight" stroke="#7bc092" d="m 0.5,0.5 H 19.5 M 19.5,0.5 H 330.5151596069336 M 0.5,35.5 V 18.5 m -7.36,-0.5 q -1.52,-5.5 0,-11 m 7.36,1 V 0.5 H 1&#10;M 145.65407943725586,5.5 v 27 h -129.15407943725586 M 10.9,24.3 l 3.68,-2.1 M 321.5151596069336,5.5 v 27 h -129.15407943725586 M 186.76108016967774,24.3 l 3.68,-2.1"/><g class="blocklyDraggable" transform="translate(17,6)"><path class="blocklyPathDark" transform="translate(1,1)" fill="#843549" d="m 0,0 H 76.07775115966797 v 5 c 0,10 -8,-8 -8,7.5 s 8,-2.5 8,7.5 v 5 H 0 V 20 c 0,-10 -8,8 -8,-7.5 s 8,2.5 8,-7.5 z&#10;"/><path class="blocklyPath" fill="#a5425b" d="m 0,0 H 76.07775115966797 v 5 c 0,10 -8,-8 -8,7.5 s 8,-2.5 8,7.5 v 5 H 0 V 20 c 0,-10 -8,8 -8,-7.5 s 8,2.5 8,-7.5 z&#10;"/><path class="blocklyPathLight" stroke="#c07b8c" d="m 0.5,0.5 H 75.57775115966797 M 75.57775115966797,0.5 M 71.07775115966797,19.3 l 3.68,-2.1 M 0.5,24.5 V 18.5 m -7.36,-0.5 q -1.52,-5.5 0,-11 m 7.36,1 V 0.5 H 1&#10;"/><g transform="translate(77.07775115966797,0)"><path class="blocklyPathDark" transform="translate(1,1)" fill="#dbb3bd" d="m 0,0 H 50.07632827758789 v 25 H 0 V 20 c 0,-10 -8,8 -8,-7.5 s 8,2.5 8,-7.5 z&#10;"/><path class="blocklyPath" fill="#dbb3bd" d="m 0,0 H 50.07632827758789 v 25 H 0 V 20 c 0,-10 -8,8 -8,-7.5 s 8,2.5 8,-7.5 z&#10;"/><path class="blocklyPathLight" d="m 0.5,0.5 H 49.57632827758789 M 49.57632827758789,0.5 M 0.5,24.5 V 18.5 m -7.36,-0.5 q -1.52,-5.5 0,-11 m 7.36,1 V 0.5 H 1&#10;" style="display: none;"/><g class="blocklyEditableText" transform="translate(10,5)" style="cursor: default;"><rect rx="4" ry="4" x="-5" y="0" height="16" width="40.07632827758789"/><text class="blocklyText" y="12.5" text-anchor="start" x="0">A5<tspan style="fill: rgb(165, 66, 91);"> ▾</tspan></text></g></g><text class="blocklyText" y="12.5" transform="translate(10,5)">leer pin</text></g><g class="blocklyDraggable" transform="translate(192.86108016967773,6)"><path class="blocklyPathDark" transform="translate(1,1)" fill="#843549" d="m 0,0 H 76.07775115966797 v 5 c 0,10 -8,-8 -8,7.5 s 8,-2.5 8,7.5 v 5 H 0 V 20 c 0,-10 -8,8 -8,-7.5 s 8,2.5 8,-7.5 z&#10;"/><path class="blocklyPath" fill="#a5425b" d="m 0,0 H 76.07775115966797 v 5 c 0,10 -8,-8 -8,7.5 s 8,-2.5 8,7.5 v 5 H 0 V 20 c 0,-10 -8,8 -8,-7.5 s 8,2.5 8,-7.5 z&#10;"/><path class="blocklyPathLight" stroke="#c07b8c" d="m 0.5,0.5 H 75.57775115966797 M 75.57775115966797,0.5 M 71.07775115966797,19.3 l 3.68,-2.1 M 0.5,24.5 V 18.5 m -7.36,-0.5 q -1.52,-5.5 0,-11 m 7.36,1 V 0.5 H 1&#10;"/><g transform="translate(77.07775115966797,0)"><path class="blocklyPathDark" transform="translate(1,1)" fill="#dbb3bd" d="m 0,0 H 50.07632827758789 v 25 H 0 V 20 c 0,-10 -8,8 -8,-7.5 s 8,2.5 8,-7.5 z&#10;"/><path class="blocklyPath" fill="#dbb3bd" d="m 0,0 H 50.07632827758789 v 25 H 0 V 20 c 0,-10 -8,8 -8,-7.5 s 8,2.5 8,-7.5 z&#10;"/><path class="blocklyPathLight" d="m 0.5,0.5 H 49.57632827758789 M 49.57632827758789,0.5 M 0.5,24.5 V 18.5 m -7.36,-0.5 q -1.52,-5.5 0,-11 m 7.36,1 V 0.5 H 1&#10;" style="display: none;"/><g class="blocklyEditableText" transform="translate(10,5)" style="cursor: default;"><rect rx="4" ry="4" x="-5" y="0" height="16" width="40.07632827758789"/><text class="blocklyText" y="12.5" text-anchor="start" x="0">A4<tspan style="fill: rgb(165, 66, 91);"> ▾</tspan></text></g></g><text class="blocklyText" y="12.5" transform="translate(10,5)">leer pin</text></g><g class="blocklyEditableText" transform="translate(155.15407943725586,10)" style="cursor: default;"><rect rx="4" ry="4" x="-5" y="0" height="16" width="30.707000732421875"/><text class="blocklyText" y="12.5" text-anchor="start" x="0">&gt;<tspan style="fill: rgb(66, 165, 99);"> ▾</tspan></text></g></g><g class="blocklyDraggable" transform="translate(80.49417877197266,37)"><path class="blocklyPathDark" transform="translate(1,1)" fill="#84357e" d="m 0,8 A 8,8 0 0,1 8,0 H 15 l 6,4 3,0 6,-4 H 175.0478162765503 v 5 c 0,10 -8,-8 -8,7.5 s 8,-2.5 8,7.5 v 5 H 29.5 l -6,4 -3,0 -6,-4 H 8 a 8,8 0 0,1 -8,-8 z&#10;"/><path class="blocklyPath" fill="#a5429d" d="m 0,8 A 8,8 0 0,1 8,0 H 15 l 6,4 3,0 6,-4 H 175.0478162765503 v 5 c 0,10 -8,-8 -8,7.5 s 8,-2.5 8,7.5 v 5 H 29.5 l -6,4 -3,0 -6,-4 H 8 a 8,8 0 0,1 -8,-8 z&#10;"/><path class="blocklyPathLight" stroke="#c07bba" d="m 0.5,7.5 A 7.5,7.5 0 0,1 8,0.5 H 15 l 6,4 3,0 6,-4 H 174.5478162765503 M 174.5478162765503,0.5 M 170.0478162765503,19.3 l 3.68,-2.1 M 2.6966991411008934,22.303300858899107 A 7.5,7.5 0 0,1 0.5,17 V 8&#10;"/><g class="blocklyDraggable" transform="translate(176.0478162765503,0)"><path class="blocklyPathDark" transform="translate(1,1)" fill="#35844f" d="m 0,0 H 98.15411376953125 v 25 H 0 V 20 c 0,-10 -8,8 -8,-7.5 s 8,2.5 8,-7.5 z&#10;"/><path class="blocklyPath" fill="#42a563" d="m 0,0 H 98.15411376953125 v 25 H 0 V 20 c 0,-10 -8,8 -8,-7.5 s 8,2.5 8,-7.5 z&#10;"/><path class="blocklyPathLight" stroke="#7bc092" d="m 0.5,0.5 H 97.65411376953125 M 97.65411376953125,0.5 M 0.5,24.5 V 18.5 m -7.36,-0.5 q -1.52,-5.5 0,-11 m 7.36,1 V 0.5 H 1&#10;"/><g class="blocklyEditableText" transform="translate(10,5)" style="cursor: default;"><rect rx="4" ry="4" x="-5" y="0" height="16" width="88.15411376953125"/><text class="blocklyText" y="12.5" text-anchor="start" x="0">verdadero<tspan style="fill: rgb(66, 165, 99);"> ▾</tspan></text></g></g><text class="blocklyText" y="12.5" transform="translate(10,5)">establecer</text><g class="blocklyEditableText" transform="translate(87.63239288330078,5)" style="cursor: default;"><rect rx="4" ry="4" x="-5" y="0" height="16" width="61.26288604736328"/><text class="blocklyText" y="12.5" text-anchor="start" x="0">action<tspan style="fill: rgb(165, 66, 157);"> ▾</tspan></text></g><text class="blocklyText" y="12.5" transform="translate(148.89527893066406,5)">a</text></g><g class="blocklyDraggable" transform="translate(0,76)"><path class="blocklyPathDark" transform="translate(1,1)" fill="#35844f" d="m 0,0 H 15 l 6,4 3,0 6,-4 H 109.49417877197266 v 5 c 0,10 -8,-8 -8,7.5 s 8,-2.5 8,7.5 v 16 H 109.49417877197266 l -6,4 -3,0 -6,-4 h -7 a 8,8 0 0,0 -8,8 v 13 a 8,8 0 0,0 8,8 H 109.49417877197266 v 10 H 29.5 l -6,4 -3,0 -6,-4 H 0 z&#10;"/><path class="blocklyPath" fill="#42a563" d="m 0,0 H 15 l 6,4 3,0 6,-4 H 109.49417877197266 v 5 c 0,10 -8,-8 -8,7.5 s 8,-2.5 8,7.5 v 16 H 109.49417877197266 l -6,4 -3,0 -6,-4 h -7 a 8,8 0 0,0 -8,8 v 13 a 8,8 0 0,0 8,8 H 109.49417877197266 v 10 H 29.5 l -6,4 -3,0 -6,-4 H 0 z&#10;"/><path class="blocklyPathLight" stroke="#7bc092" d="m 0.5,0.5 H 15 l 6,4 3,0 6,-4 H 108.99417877197266 M 108.99417877197266,0.5 M 104.49417877197266,19.3 l 3.68,-2.1 M 108.99417877197266,36.5 M 81.483771131887,63.01040764008565 a 8.5,8.5 0 0,0 6.0104076400856545,2.4895923599143455 H 108.99417877197266 M 0.5,74.5 V 0.5&#10;"/><g class="blocklyDraggable" transform="translate(110.49417877197266,0)"><path class="blocklyPathDark" transform="translate(1,1)" fill="#35844f" d="m 0,0 H 20 H 366.56772804260254 v 36 H 0 V 20 c 0,-10 -8,8 -8,-7.5 s 8,2.5 8,-7.5 z&#10;M 271.5556526184082,5 h -255.5556526184082 v 5 c 0,10 -8,-8 -8,7.5 s 8,-2.5 8,7.5 v 7 h 255.5556526184082 z M 356.56772804260254,5 h -38.30507469177246 v 5 c 0,10 -8,-8 -8,7.5 s 8,-2.5 8,7.5 v 7 h 38.30507469177246 z"/><path class="blocklyPath" fill="#42a563" d="m 0,0 H 20 H 366.56772804260254 v 36 H 0 V 20 c 0,-10 -8,8 -8,-7.5 s 8,2.5 8,-7.5 z&#10;M 271.5556526184082,5 h -255.5556526184082 v 5 c 0,10 -8,-8 -8,7.5 s 8,-2.5 8,7.5 v 7 h 255.5556526184082 z M 356.56772804260254,5 h -38.30507469177246 v 5 c 0,10 -8,-8 -8,7.5 s 8,-2.5 8,7.5 v 7 h 38.30507469177246 z"/><path class="blocklyPathLight" stroke="#7bc092" d="m 0.5,0.5 H 19.5 M 19.5,0.5 H 366.06772804260254 M 0.5,35.5 V 18.5 m -7.36,-0.5 q -1.52,-5.5 0,-11 m 7.36,1 V 0.5 H 1&#10;M 272.0556526184082,5.5 v 27 h -255.5556526184082 M 10.9,24.3 l 3.68,-2.1 M 357.06772804260254,5.5 v 27 h -38.30507469177246 M 313.16265335083006,24.3 l 3.68,-2.1"/><g class="blocklyDraggable" transform="translate(17,6)"><path class="blocklyPathDark" transform="translate(1,1)" fill="#844935" d="m 0,0 H 253.5556526184082 v 25 H 0 V 20 c 0,-10 -8,8 -8,-7.5 s 8,2.5 8,-7.5 z&#10;"/><path class="blocklyPath" fill="#a55b42" d="m 0,0 H 253.5556526184082 v 25 H 0 V 20 c 0,-10 -8,8 -8,-7.5 s 8,2.5 8,-7.5 z&#10;"/><path class="blocklyPathLight" stroke="#c08c7b" d="m 0.5,0.5 H 253.0556526184082 M 253.0556526184082,0.5 M 0.5,24.5 V 18.5 m -7.36,-0.5 q -1.52,-5.5 0,-11 m 7.36,1 V 0.5 H 1&#10;"/><text class="blocklyText" y="12.5" transform="translate(10,5)">leer distancia de</text><g class="blocklyEditableText" transform="translate(126.748779296875,5)" style="cursor: default;"><rect rx="4" ry="4" x="-5" y="0" height="16" width="58.81500244140625"/><text class="blocklyText" y="12.5" text-anchor="start" x="0">sonar<tspan style="fill: rgb(165, 91, 66);"> ▾</tspan></text></g><text class="blocklyText" y="12.5" transform="translate(185.56378173828125,5)">en</text><g class="blocklyEditableText" transform="translate(211.8688564300537,5)" style="cursor: default;"><rect rx="4" ry="4" x="-5" y="0" height="16" width="41.68679618835449"/><text class="blocklyText" y="12.5" text-anchor="start" x="0">cm<tspan style="fill: rgb(165, 91, 66);"> ▾</tspan></text></g></g><g transform="translate(319.2626533508301,6)"><path class="blocklyPathDark" transform="translate(1,1)" fill="#b3c7db" d="m 0,0 H 36.30507469177246 v 25 H 0 V 20 c 0,-10 -8,8 -8,-7.5 s 8,2.5 8,-7.5 z&#10;"/><path class="blocklyPath" fill="#b3c7db" d="m 0,0 H 36.30507469177246 v 25 H 0 V 20 c 0,-10 -8,8 -8,-7.5 s 8,2.5 8,-7.5 z&#10;"/><path class="blocklyPathLight" d="m 0.5,0.5 H 35.80507469177246 M 35.80507469177246,0.5 M 0.5,24.5 V 18.5 m -7.36,-0.5 q -1.52,-5.5 0,-11 m 7.36,1 V 0.5 H 1&#10;" style="display: none;"/><g class="blocklyEditableText" transform="translate(10,5)" style="cursor: text;"><rect rx="4" ry="4" x="-5" y="0" height="16" width="26.30507469177246"/><text class="blocklyText" y="12.5">20</text></g></g><g class="blocklyEditableText" transform="translate(281.5556526184082,10)" style="cursor: default;"><rect rx="4" ry="4" x="-5" y="0" height="16" width="30.707000732421875"/><text class="blocklyText" y="12.5" text-anchor="start" x="0">&lt;<tspan style="fill: rgb(66, 165, 99);"> ▾</tspan></text></g></g><g class="blocklyDraggable" transform="translate(80.49417877197266,37)"><path class="blocklyPathDark" transform="translate(1,1)" fill="#84357e" d="m 0,8 A 8,8 0 0,1 8,0 H 15 l 6,4 3,0 6,-4 H 175.0478162765503 v 5 c 0,10 -8,-8 -8,7.5 s 8,-2.5 8,7.5 v 5 H 29.5 l -6,4 -3,0 -6,-4 H 8 a 8,8 0 0,1 -8,-8 z&#10;"/><path class="blocklyPath" fill="#a5429d" d="m 0,8 A 8,8 0 0,1 8,0 H 15 l 6,4 3,0 6,-4 H 175.0478162765503 v 5 c 0,10 -8,-8 -8,7.5 s 8,-2.5 8,7.5 v 5 H 29.5 l -6,4 -3,0 -6,-4 H 8 a 8,8 0 0,1 -8,-8 z&#10;"/><path class="blocklyPathLight" stroke="#c07bba" d="m 0.5,7.5 A 7.5,7.5 0 0,1 8,0.5 H 15 l 6,4 3,0 6,-4 H 174.5478162765503 M 174.5478162765503,0.5 M 170.0478162765503,19.3 l 3.68,-2.1 M 2.6966991411008934,22.303300858899107 A 7.5,7.5 0 0,1 0.5,17 V 8&#10;"/><g class="blocklyDraggable" transform="translate(176.0478162765503,0)"><path class="blocklyPathDark" transform="translate(1,1)" fill="#35844f" d="m 0,0 H 98.15411376953125 v 25 H 0 V 20 c 0,-10 -8,8 -8,-7.5 s 8,2.5 8,-7.5 z&#10;"/><path class="blocklyPath" fill="#42a563" d="m 0,0 H 98.15411376953125 v 25 H 0 V 20 c 0,-10 -8,8 -8,-7.5 s 8,2.5 8,-7.5 z&#10;"/><path class="blocklyPathLight" stroke="#7bc092" d="m 0.5,0.5 H 97.65411376953125 M 97.65411376953125,0.5 M 0.5,24.5 V 18.5 m -7.36,-0.5 q -1.52,-5.5 0,-11 m 7.36,1 V 0.5 H 1&#10;"/><g class="blocklyEditableText" transform="translate(10,5)" style="cursor: default;"><rect rx="4" ry="4" x="-5" y="0" height="16" width="88.15411376953125"/><text class="blocklyText" y="12.5" text-anchor="start" x="0">verdadero<tspan style="fill: rgb(66, 165, 99);"> ▾</tspan></text></g></g><text class="blocklyText" y="12.5" transform="translate(10,5)">establecer</text><g class="blocklyEditableText" transform="translate(87.63239288330078,5)" style="cursor: default;"><rect rx="4" ry="4" x="-5" y="0" height="16" width="61.26288604736328"/><text class="blocklyText" y="12.5" text-anchor="start" x="0">action<tspan style="fill: rgb(165, 66, 157);"> ▾</tspan></text></g><text class="blocklyText" y="12.5" transform="translate(148.89527893066406,5)">a</text></g><g class="blocklyDraggable" transform="translate(0,76)"><path class="blocklyPathDark" transform="translate(1,1)" fill="#843549" d="m 0,0 H 15 l 6,4 3,0 6,-4 H 40 H 342.1370906829834 v 36 H 29.5 l -6,4 -3,0 -6,-4 H 8 a 8,8 0 0,1 -8,-8 z&#10;M 185.61958503723145,5 h -52.88513374328613 v 5 c 0,10 -8,-8 -8,7.5 s 8,-2.5 8,7.5 v 7 h 52.88513374328613 z M 332.1370906829834,5 h -73.26288604736328 v 5 c 0,10 -8,-8 -8,7.5 s 8,-2.5 8,7.5 v 7 h 73.26288604736328 z"/><path class="blocklyPath" fill="#a5425b" d="m 0,0 H 15 l 6,4 3,0 6,-4 H 40 H 342.1370906829834 v 36 H 29.5 l -6,4 -3,0 -6,-4 H 8 a 8,8 0 0,1 -8,-8 z&#10;M 185.61958503723145,5 h -52.88513374328613 v 5 c 0,10 -8,-8 -8,7.5 s 8,-2.5 8,7.5 v 7 h 52.88513374328613 z M 332.1370906829834,5 h -73.26288604736328 v 5 c 0,10 -8,-8 -8,7.5 s 8,-2.5 8,7.5 v 7 h 73.26288604736328 z"/><path class="blocklyPathLight" stroke="#c07b8c" d="m 0.5,0.5 H 15 l 6,4 3,0 6,-4 H 39.5 M 39.5,0.5 H 341.6370906829834 M 2.6966991411008934,33.30330085889911 A 7.5,7.5 0 0,1 0.5,28 V 0.5&#10;M 186.11958503723145,5.5 v 27 h -52.88513374328613 M 127.63445129394532,24.3 l 3.68,-2.1 M 332.6370906829834,5.5 v 27 h -73.26288604736328 M 253.77420463562012,24.3 l 3.68,-2.1"/><g transform="translate(133.7344512939453,6)"><path class="blocklyPathDark" transform="translate(1,1)" fill="#dbb3bd" d="m 0,0 H 50.88513374328613 v 25 H 0 V 20 c 0,-10 -8,8 -8,-7.5 s 8,2.5 8,-7.5 z&#10;"/><path class="blocklyPath" fill="#dbb3bd" d="m 0,0 H 50.88513374328613 v 25 H 0 V 20 c 0,-10 -8,8 -8,-7.5 s 8,2.5 8,-7.5 z&#10;"/><path class="blocklyPathLight" d="m 0.5,0.5 H 50.38513374328613 M 50.38513374328613,0.5 M 0.5,24.5 V 18.5 m -7.36,-0.5 q -1.52,-5.5 0,-11 m 7.36,1 V 0.5 H 1&#10;" style="display: none;"/><g class="blocklyEditableText" transform="translate(10,5)" style="cursor: default;"><rect rx="4" ry="4" x="-5" y="0" height="16" width="40.88513374328613"/><text class="blocklyText" y="12.5" text-anchor="start" x="0">D8<tspan style="fill: rgb(165, 66, 91);"> ▾</tspan></text></g></g><g class="blocklyDraggable" transform="translate(259.8742046356201,6)"><path class="blocklyPathDark" transform="translate(1,1)" fill="#84357e" d="m 0,0 H 71.26288604736328 v 25 H 0 V 20 c 0,-10 -8,8 -8,-7.5 s 8,2.5 8,-7.5 z&#10;"/><path class="blocklyPath" fill="#a5429d" d="m 0,0 H 71.26288604736328 v 25 H 0 V 20 c 0,-10 -8,8 -8,-7.5 s 8,2.5 8,-7.5 z&#10;"/><path class="blocklyPathLight" stroke="#c07bba" d="m 0.5,0.5 H 70.76288604736328 M 70.76288604736328,0.5 M 0.5,24.5 V 18.5 m -7.36,-0.5 q -1.52,-5.5 0,-11 m 7.36,1 V 0.5 H 1&#10;"/><g class="blocklyEditableText" transform="translate(10,5)" style="cursor: default;"><rect rx="4" ry="4" x="-5" y="0" height="16" width="61.26288604736328"/><text class="blocklyText" y="12.5" text-anchor="start" x="0">action<tspan style="fill: rgb(165, 66, 157);"> ▾</tspan></text></g></g><text class="blocklyText" y="12.5" transform="translate(10,10)">escribir en el pin</text><text class="blocklyText" y="12.5" transform="translate(195.61958503723145,10)">el valor</text></g><text class="blocklyText" y="12.5" transform="translate(10,5)">si</text><text class="blocklyText" y="12.5" transform="translate(10,41)">entonces</text></g><text class="blocklyText" y="12.5" transform="translate(10,5)">si</text><text class="blocklyText" y="12.5" transform="translate(10,41)">entonces</text></g><text class="blocklyText" y="12.5" transform="translate(10,5)">si</text><text class="blocklyText" y="12.5" transform="translate(10,30)">entonces</text></g><text class="blocklyText" y="12.5" transform="translate(10,5)">establecer</text><g class="blocklyEditableText" transform="translate(87.63239288330078,5)" style="cursor: default;"><rect rx="4" ry="4" x="-5" y="0" height="16" width="61.26288604736328"/><text class="blocklyText" y="12.5" text-anchor="start" x="0">action<tspan style="fill: rgb(165, 66, 157);"> ▾</tspan></text></g><text class="blocklyText" y="12.5" transform="translate(148.89527893066406,5)">a</text></g><text class="blocklyText" y="12.5" transform="translate(10,5)">temporizador llamado</text><g class="blocklyEditableText" transform="translate(160.95509338378906,5)" style="cursor: text;"><rect rx="4" ry="4" x="-5" y="0" height="16" width="37.71432304382324"/><text class="blocklyText" y="12.5">loop</text></g><text class="blocklyText" y="12.5" transform="translate(10,30)">ejecutándose</text><g class="blocklyEditableText" transform="translate(107.20850372314453,30)" style="cursor: text;"><rect rx="4" ry="4" x="-5" y="0" height="16" width="42.61014938354492"/><text class="blocklyText" y="12.5">1000</text></g><text class="blocklyText" y="12.5" transform="translate(149.81865310668945,30)">veces por</text><g class="blocklyEditableText" transform="translate(223.3712043762207,30)" style="cursor: default;"><rect rx="4" ry="4" x="-5" y="0" height="16" width="78.39111328125"/><text class="blocklyText" y="12.5" text-anchor="start" x="0">segundo<tspan style="fill: rgb(66, 165, 157);"> ▾</tspan></text></g><text class="blocklyText" y="12.5" transform="translate(10,55)">estado inicial</text><g class="blocklyEditableText" transform="translate(104.7462387084961,55)" style="cursor: default;"><rect rx="4" ry="4" x="-5" y="0" height="16" width="71.85616683959961"/><text class="blocklyText" y="12.5" text-anchor="start" x="0">iniciado<tspan style="fill: rgb(66, 165, 157);"> ▾</tspan></text></g></g></g></svg>