<svg version="1.1" xmlns="http://www.w3.org/2000/svg" xmlns:xlink="http://www.w3.org/1999/xlink" width="477.8538818359375" height="369" viewBox=" 85.88235473632812 64.70587921142578 477.8538818359375 369"><defs><style type="text/css" xmlns="http://www.w3.org/1999/xhtml"><![CDATA[.blocklySvg {background-color: #fff;outline: none;overflow: hidden;position: absolute;display: block;}.blocklyWidgetDiv {display: none;position: absolute;z-index: 99999;}.injectionDiv {height: 100%;position: relative;overflow: hidden;}.blocklyNonSelectable {user-select: none;-moz-user-select: none;-webkit-user-select: none;-ms-user-select: none;}.blocklyWsDragSurface {display: none;position: absolute;overflow: visible;top: 0;left: 0;}.blocklyBlockDragSurface {display: none;position: absolute;top: 0;left: 0;right: 0;bottom: 0;overflow: visible !important;z-index: 50;}.blocklyTooltipDiv {background-color: #ffffc7;border: 1px solid #ddc;box-shadow: 4px 4px 20px 1px rgba(0,0,0,.15);color: #000;display: none;font-family: sans-serif;font-size: 9pt;opacity: 0.9;padding: 2px;position: absolute;z-index: 100000;}.blocklyResizeSE {cursor: se-resize;fill: #aaa;}.blocklyResizeSW {cursor: sw-resize;fill: #aaa;}.blocklyResizeLine {stroke: #888;stroke-width: 1;}.blocklyHighlightedConnectionPath {fill: none;stroke: #fc3;stroke-width: 4px;}.blocklyPathLight {fill: none;stroke-linecap: round;stroke-width: 1;}.blocklySelected>.blocklyPath {stroke: #fc3;stroke-width: 3px;}.blocklySelected>.blocklyPathLight {display: none;}.blocklyDraggable {cursor: url("<<<PATH>>>/handopen.cur"), auto;cursor: grab;cursor: -webkit-grab;cursor: -moz-grab;}.blocklyDragging {cursor: url("<<<PATH>>>/handclosed.cur"), auto;cursor: grabbing;cursor: -webkit-grabbing;cursor: -moz-grabbing;}.blocklyDraggable:active {cursor: url("<<<PATH>>>/handclosed.cur"), auto;cursor: grabbing;cursor: -webkit-grabbing;cursor: -moz-grabbing;}.blocklyBlockDragSurface .blocklyDraggable {cursor: url("<<<PATH>>>/handclosed.cur"), auto;cursor: grabbing;cursor: -webkit-grabbing;cursor: -moz-grabbing;}.blocklyDragging.blocklyDraggingDelete {cursor: url("<<<PATH>>>/handdelete.cur"), auto;}.blocklyToolboxDelete {cursor: url("<<<PATH>>>/handdelete.cur"), auto;}.blocklyDragging>.blocklyPath,.blocklyDragging>.blocklyPathLight {fill-opacity: .8;stroke-opacity: .8;}.blocklyDragging>.blocklyPathDark {display: none;}.blocklyDisabled>.blocklyPath {fill-opacity: .5;stroke-opacity: .5;}.blocklyDisabled>.blocklyPathLight,.blocklyDisabled>.blocklyPathDark {display: none;}.blocklyText {cursor: default;fill: #fff;font-family: sans-serif;font-size: 11pt;}.blocklyNonEditableText>text {pointer-events: none;}.blocklyNonEditableText>rect,.blocklyEditableText>rect {fill: #fff;fill-opacity: .6;}.blocklyNonEditableText>text,.blocklyEditableText>text {fill: #000;}.blocklyEditableText:hover>rect {stroke: #fff;stroke-width: 2;}.blocklyBubbleText {fill: #000;}.blocklyFlyout {position: absolute;z-index: 20;}.blocklyFlyoutButton {fill: #888;cursor: default;}.blocklyFlyoutButtonShadow {fill: #666;}.blocklyFlyoutButton:hover {fill: #aaa;}.blocklyFlyoutLabel {cursor: default;}.blocklyFlyoutLabelBackground {opacity: 0;}.blocklyFlyoutLabelText {fill: #000;}.blocklySvg text, .blocklyBlockDragSurface text {user-select: none;-moz-user-select: none;-webkit-user-select: none;cursor: inherit;}.blocklyHidden {display: none;}.blocklyFieldDropdown:not(.blocklyHidden) {display: block;}.blocklyIconGroup {cursor: default;}.blocklyIconGroup:not(:hover),.blocklyIconGroupReadonly {opacity: .6;}.blocklyIconShape {fill: #00f;stroke: #fff;stroke-width: 1px;}.blocklyIconSymbol {fill: #fff;}.blocklyMinimalBody {margin: 0;padding: 0;}.blocklyCommentTextarea {background-color: #ffc;border: 0;margin: 0;padding: 2px;resize: none;}.blocklyHtmlInput {border: none;border-radius: 4px;font-family: sans-serif;height: 100%;margin: 0;outline: none;padding: 0 1px;width: 100%}.blocklyMainBackground {stroke-width: 1;stroke: #c6c6c6;}.blocklyMutatorBackground {fill: #fff;stroke: #ddd;stroke-width: 1;}.blocklyFlyoutBackground {fill: #ddd;fill-opacity: .8;}.blocklyMainWorkspaceScrollbar {z-index: 20;}.blocklyFlyoutScrollbar {z-index: 30;}.blocklyScrollbarHorizontal, .blocklyScrollbarVertical {position: absolute;outline: none;}.blocklyScrollbarBackground {opacity: 0;}.blocklyScrollbarHandle {fill: #ccc;}.blocklyScrollbarBackground:hover+.blocklyScrollbarHandle,.blocklyScrollbarHandle:hover {fill: #bbb;}.blocklyZoom>image {opacity: .4;}.blocklyZoom>image:hover {opacity: .6;}.blocklyZoom>image:active {opacity: .8;}.blocklyFlyout .blocklyScrollbarHandle {fill: #bbb;}.blocklyFlyout .blocklyScrollbarBackground:hover+.blocklyScrollbarHandle,.blocklyFlyout .blocklyScrollbarHandle:hover {fill: #aaa;}.blocklyInvalidInput {background: #faa;}.blocklyAngleCircle {stroke: #444;stroke-width: 1;fill: #ddd;fill-opacity: .8;}.blocklyAngleMarks {stroke: #444;stroke-width: 1;}.blocklyAngleGauge {fill: #f88;fill-opacity: .8;}.blocklyAngleLine {stroke: #f00;stroke-width: 2;stroke-linecap: round;pointer-events: none;}.blocklyContextMenu {border-radius: 4px;}.blocklyDropdownMenu {padding: 0 !important;}.blocklyWidgetDiv .goog-option-selected .goog-menuitem-checkbox,.blocklyWidgetDiv .goog-option-selected .goog-menuitem-icon {background: url(<<<PATH>>>/sprites.png) no-repeat -48px -16px !important;}.blocklyToolboxDiv {background-color: #ddd;overflow-x: visible;overflow-y: auto;position: absolute;z-index: 70;}.blocklyTreeRoot {padding: 4px 0;}.blocklyTreeRoot:focus {outline: none;}.blocklyTreeRow {height: 22px;line-height: 22px;margin-bottom: 3px;padding-right: 8px;white-space: nowrap;}.blocklyHorizontalTree {float: left;margin: 1px 5px 8px 0;}.blocklyHorizontalTreeRtl {float: right;margin: 1px 0 8px 5px;}.blocklyToolboxDiv[dir="RTL"] .blocklyTreeRow {margin-left: 8px;}.blocklyTreeRow:not(.blocklyTreeSelected):hover {background-color: #e4e4e4;}.blocklyTreeSeparator {border-bottom: solid #e5e5e5 1px;height: 0;margin: 5px 0;}.blocklyTreeSeparatorHorizontal {border-right: solid #e5e5e5 1px;width: 0;padding: 5px 0;margin: 0 5px;}.blocklyTreeIcon {background-image: url(<<<PATH>>>/sprites.png);height: 16px;vertical-align: middle;width: 16px;}.blocklyTreeIconClosedLtr {background-position: -32px -1px;}.blocklyTreeIconClosedRtl {background-position: 0px -1px;}.blocklyTreeIconOpen {background-position: -16px -1px;}.blocklyTreeSelected>.blocklyTreeIconClosedLtr {background-position: -32px -17px;}.blocklyTreeSelected>.blocklyTreeIconClosedRtl {background-position: 0px -17px;}.blocklyTreeSelected>.blocklyTreeIconOpen {background-position: -16px -17px;}.blocklyTreeIconNone,.blocklyTreeSelected>.blocklyTreeIconNone {background-position: -48px -1px;}.blocklyTreeLabel {cursor: default;font-family: sans-serif;font-size: 16px;padding: 0 3px;vertical-align: middle;}.blocklyTreeSelected .blocklyTreeLabel {color: #fff;}.blocklyWidgetDiv .goog-palette {outline: none;cursor: default;}.blocklyWidgetDiv .goog-palette-table {border: 1px solid #666;border-collapse: collapse;}.blocklyWidgetDiv .goog-palette-cell {height: 13px;width: 15px;margin: 0;border: 0;text-align: center;vertical-align: middle;border-right: 1px solid #666;font-size: 1px;}.blocklyWidgetDiv .goog-palette-colorswatch {position: relative;height: 13px;width: 15px;border: 1px solid #666;}.blocklyWidgetDiv .goog-palette-cell-hover .goog-palette-colorswatch {border: 1px solid #FFF;}.blocklyWidgetDiv .goog-palette-cell-selected .goog-palette-colorswatch {border: 1px solid #000;color: #fff;}.blocklyWidgetDiv .goog-menu {background: #fff;border-color: #ccc #666 #666 #ccc;border-style: solid;border-width: 1px;cursor: default;font: normal 13px Arial, sans-serif;margin: 0;outline: none;padding: 4px 0;position: absolute;overflow-y: auto;overflow-x: hidden;max-height: 100%;z-index: 20000;}.blocklyWidgetDiv .goog-menuitem {color: #000;font: normal 13px Arial, sans-serif;list-style: none;margin: 0;padding: 4px 7em 4px 28px;white-space: nowrap;}.blocklyWidgetDiv .goog-menuitem.goog-menuitem-rtl {padding-left: 7em;padding-right: 28px;}.blocklyWidgetDiv .goog-menu-nocheckbox .goog-menuitem,.blocklyWidgetDiv .goog-menu-noicon .goog-menuitem {padding-left: 12px;}.blocklyWidgetDiv .goog-menu-noaccel .goog-menuitem {padding-right: 20px;}.blocklyWidgetDiv .goog-menuitem-content {color: #000;font: normal 13px Arial, sans-serif;}.blocklyWidgetDiv .goog-menuitem-disabled .goog-menuitem-accel,.blocklyWidgetDiv .goog-menuitem-disabled .goog-menuitem-content {color: #ccc !important;}.blocklyWidgetDiv .goog-menuitem-disabled .goog-menuitem-icon {opacity: 0.3;-moz-opacity: 0.3;filter: alpha(opacity=30);}.blocklyWidgetDiv .goog-menuitem-highlight,.blocklyWidgetDiv .goog-menuitem-hover {background-color: #d6e9f8;border-color: #d6e9f8;border-style: dotted;border-width: 1px 0;padding-bottom: 3px;padding-top: 3px;}.blocklyWidgetDiv .goog-menuitem-checkbox,.blocklyWidgetDiv .goog-menuitem-icon {background-repeat: no-repeat;height: 16px;left: 6px;position: absolute;right: auto;vertical-align: middle;width: 16px;}.blocklyWidgetDiv .goog-menuitem-rtl .goog-menuitem-checkbox,.blocklyWidgetDiv .goog-menuitem-rtl .goog-menuitem-icon {left: auto;right: 6px;}.blocklyWidgetDiv .goog-option-selected .goog-menuitem-checkbox,.blocklyWidgetDiv .goog-option-selected .goog-menuitem-icon {background: url(//ssl.gstatic.com/editor/editortoolbar.png) no-repeat -512px 0;}.blocklyWidgetDiv .goog-menuitem-accel {color: #999;direction: ltr;left: auto;padding: 0 6px;position: absolute;right: 0;text-align: right;}.blocklyWidgetDiv .goog-menuitem-rtl .goog-menuitem-accel {left: 0;right: auto;text-align: left;}.blocklyWidgetDiv .goog-menuitem-mnemonic-hint {text-decoration: underline;}.blocklyWidgetDiv .goog-menuitem-mnemonic-separator {color: #999;font-size: 12px;padding-left: 4px;}.blocklyWidgetDiv .goog-menuseparator {border-top: 1px solid #ccc;margin: 4px 0;padding: 0;}]]></style></defs>"><g xmlns="http://www.w3.org/2000/svg" class="blocklyBlockCanvas"><g class="blocklyDraggable" transform="translate(85.88235294117648,64.70588235294117)"><path class="blocklyPathDark" transform="translate(1,1)" fill="#35847e" d="m 0,8 A 8,8 0 0,1 8,0 H 251.2079849243164 v 25 v 25 v 25 H 50 l -6,4 -3,0 -6,-4 h -7 a 8,8 0 0,0 -8,8 v 267 a 8,8 0 0,0 8,8 H 251.2079849243164 v 10 H 8 a 8,8 0 0,1 -8,-8 z&#10;"/><path class="blocklyPath" fill="#42a59d" d="m 0,8 A 8,8 0 0,1 8,0 H 251.2079849243164 v 25 v 25 v 25 H 50 l -6,4 -3,0 -6,-4 h -7 a 8,8 0 0,0 -8,8 v 267 a 8,8 0 0,0 8,8 H 251.2079849243164 v 10 H 8 a 8,8 0 0,1 -8,-8 z&#10;"/><path class="blocklyPathLight" stroke="#7bc0ba" d="m 0.5,7.5 A 7.5,7.5 0 0,1 8,0.5 H 250.7079849243164 M 250.7079849243164,0.5 M 250.7079849243164,25.5 M 250.7079849243164,50.5 M 250.7079849243164,75.5 M 21.989592359914347,356.01040764008565 a 8.5,8.5 0 0,0 6.0104076400856545,2.4895923599143455 H 250.7079849243164 M 2.6966991411008934,365.3033008588991 A 7.5,7.5 0 0,1 0.5,360 V 8&#10;"/><g class="blocklyDraggable" transform="translate(21,76)"><path class="blocklyPathDark" transform="translate(1,1)" fill="#84357e" d="m 0,8 A 8,8 0 0,1 8,0 H 15 l 6,4 3,0 6,-4 H 131.042724609375 v 5 c 0,10 -8,-8 -8,7.5 s 8,-2.5 8,7.5 v 5 H 29.5 l -6,4 -3,0 -6,-4 H 0 z&#10;"/><path class="blocklyPath" fill="#a5429d" d="m 0,8 A 8,8 0 0,1 8,0 H 15 l 6,4 3,0 6,-4 H 131.042724609375 v 5 c 0,10 -8,-8 -8,7.5 s 8,-2.5 8,7.5 v 5 H 29.5 l -6,4 -3,0 -6,-4 H 0 z&#10;"/><path class="blocklyPathLight" stroke="#c07bba" d="m 0.5,7.5 A 7.5,7.5 0 0,1 8,0.5 H 15 l 6,4 3,0 6,-4 H 130.542724609375 M 130.542724609375,0.5 M 126.042724609375,19.3 l 3.68,-2.1 M 0.5,24.5 V 8&#10;"/><g class="blocklyDraggable" transform="translate(132.042724609375,0)"><path class="blocklyPathDark" transform="translate(1,1)" fill="#35844f" d="m 0,0 H 63.1103515625 v 25 H 0 V 20 c 0,-10 -8,8 -8,-7.5 s 8,2.5 8,-7.5 z&#10;"/><path class="blocklyPath" fill="#42a563" d="m 0,0 H 63.1103515625 v 25 H 0 V 20 c 0,-10 -8,8 -8,-7.5 s 8,2.5 8,-7.5 z&#10;"/><path class="blocklyPathLight" stroke="#7bc092" d="m 0.5,0.5 H 62.6103515625 M 62.6103515625,0.5 M 0.5,24.5 V 18.5 m -7.36,-0.5 q -1.52,-5.5 0,-11 m 7.36,1 V 0.5 H 1&#10;"/><g class="blocklyEditableText" transform="translate(10,5)" style="cursor: default;"><rect rx="4" ry="4" x="-5" y="0" height="16" width="53.1103515625"/><text class="blocklyText" y="12.5" text-anchor="start" x="0">false<tspan style="fill: rgb(66, 165, 99);"> ▾</tspan></text></g></g><g class="blocklyDraggable" transform="translate(0,26)"><path class="blocklyPathDark" transform="translate(1,1)" fill="#35844f" d="m 0,0 H 15 l 6,4 3,0 6,-4 H 78.5302906036377 v 5 c 0,10 -8,-8 -8,7.5 s 8,-2.5 8,7.5 v 5 H 78.5302906036377 l -6,4 -3,0 -6,-4 h -7 a 8,8 0 0,0 -8,8 v 13 a 8,8 0 0,0 8,8 H 78.5302906036377 v 10 H 29.5 l -6,4 -3,0 -6,-4 H 0 z&#10;"/><path class="blocklyPath" fill="#42a563" d="m 0,0 H 15 l 6,4 3,0 6,-4 H 78.5302906036377 v 5 c 0,10 -8,-8 -8,7.5 s 8,-2.5 8,7.5 v 5 H 78.5302906036377 l -6,4 -3,0 -6,-4 h -7 a 8,8 0 0,0 -8,8 v 13 a 8,8 0 0,0 8,8 H 78.5302906036377 v 10 H 29.5 l -6,4 -3,0 -6,-4 H 0 z&#10;"/><path class="blocklyPathLight" stroke="#7bc092" d="m 0.5,0.5 H 15 l 6,4 3,0 6,-4 H 78.0302906036377 M 78.0302906036377,0.5 M 73.5302906036377,19.3 l 3.68,-2.1 M 78.0302906036377,25.5 M 50.51988296355204,52.01040764008565 a 8.5,8.5 0 0,0 6.0104076400856545,2.4895923599143455 H 78.0302906036377 M 0.5,63.5 V 0.5&#10;"/><g class="blocklyDraggable" transform="translate(79.5302906036377,0)"><path class="blocklyPathDark" transform="translate(1,1)" fill="#844935" d="m 0,0 H 207.65078353881836 v 5 c 0,10 -8,-8 -8,7.5 s 8,-2.5 8,7.5 v 5 H 0 V 20 c 0,-10 -8,8 -8,-7.5 s 8,2.5 8,-7.5 z&#10;"/><path class="blocklyPath" fill="#a55b42" d="m 0,0 H 207.65078353881836 v 5 c 0,10 -8,-8 -8,7.5 s 8,-2.5 8,7.5 v 5 H 0 V 20 c 0,-10 -8,8 -8,-7.5 s 8,2.5 8,-7.5 z&#10;"/><path class="blocklyPathLight" stroke="#c08c7b" d="m 0.5,0.5 H 207.15078353881836 M 207.15078353881836,0.5 M 202.65078353881836,19.3 l 3.68,-2.1 M 0.5,24.5 V 18.5 m -7.36,-0.5 q -1.52,-5.5 0,-11 m 7.36,1 V 0.5 H 1&#10;"/><g transform="translate(208.65078353881836,0)"><path class="blocklyPathDark" transform="translate(1,1)" fill="#dbb3bd" d="m 0,0 H 50.88513374328613 v 25 H 0 V 20 c 0,-10 -8,8 -8,-7.5 s 8,2.5 8,-7.5 z&#10;"/><path class="blocklyPath" fill="#dbb3bd" d="m 0,0 H 50.88513374328613 v 25 H 0 V 20 c 0,-10 -8,8 -8,-7.5 s 8,2.5 8,-7.5 z&#10;"/><path class="blocklyPathLight" d="m 0.5,0.5 H 50.38513374328613 M 50.38513374328613,0.5 M 0.5,24.5 V 18.5 m -7.36,-0.5 q -1.52,-5.5 0,-11 m 7.36,1 V 0.5 H 1&#10;" style="display: none;"/><g class="blocklyEditableText" transform="translate(10,5)" style="cursor: default;"><rect rx="4" ry="4" x="-5" y="0" height="16" width="40.88513374328613"/><text class="blocklyText" y="12.5" text-anchor="start" x="0">D7<tspan style="fill: rgb(165, 66, 91);"> ▾</tspan></text></g></g><text class="blocklyText" y="12.5" transform="translate(10,5)">is button</text><g class="blocklyEditableText" transform="translate(75.41430282592773,5)" style="cursor: default;"><rect rx="4" ry="4" x="-5" y="0" height="16" width="74.29694366455078"/><text class="blocklyText" y="12.5" text-anchor="start" x="0">pressed<tspan style="fill: rgb(165, 91, 66);"> ▾</tspan></text></g><text class="blocklyText" y="12.5" transform="translate(149.71124649047852,5)">on pin</text></g><g class="blocklyDraggable" transform="translate(49.530290603637695,26)"><path class="blocklyPathDark" transform="translate(1,1)" fill="#84357e" d="m 0,8 A 8,8 0 0,1 8,0 H 15 l 6,4 3,0 6,-4 H 131.042724609375 v 5 c 0,10 -8,-8 -8,7.5 s 8,-2.5 8,7.5 v 5 H 29.5 l -6,4 -3,0 -6,-4 H 8 a 8,8 0 0,1 -8,-8 z&#10;"/><path class="blocklyPath" fill="#a5429d" d="m 0,8 A 8,8 0 0,1 8,0 H 15 l 6,4 3,0 6,-4 H 131.042724609375 v 5 c 0,10 -8,-8 -8,7.5 s 8,-2.5 8,7.5 v 5 H 29.5 l -6,4 -3,0 -6,-4 H 8 a 8,8 0 0,1 -8,-8 z&#10;"/><path class="blocklyPathLight" stroke="#c07bba" d="m 0.5,7.5 A 7.5,7.5 0 0,1 8,0.5 H 15 l 6,4 3,0 6,-4 H 130.542724609375 M 130.542724609375,0.5 M 126.042724609375,19.3 l 3.68,-2.1 M 2.6966991411008934,22.303300858899107 A 7.5,7.5 0 0,1 0.5,17 V 8&#10;"/><g class="blocklyDraggable" transform="translate(132.042724609375,0)"><path class="blocklyPathDark" transform="translate(1,1)" fill="#35844f" d="m 0,0 H 57.40573501586914 v 25 H 0 V 20 c 0,-10 -8,8 -8,-7.5 s 8,2.5 8,-7.5 z&#10;"/><path class="blocklyPath" fill="#42a563" d="m 0,0 H 57.40573501586914 v 25 H 0 V 20 c 0,-10 -8,8 -8,-7.5 s 8,2.5 8,-7.5 z&#10;"/><path class="blocklyPathLight" stroke="#7bc092" d="m 0.5,0.5 H 56.90573501586914 M 56.90573501586914,0.5 M 0.5,24.5 V 18.5 m -7.36,-0.5 q -1.52,-5.5 0,-11 m 7.36,1 V 0.5 H 1&#10;"/><g class="blocklyEditableText" transform="translate(10,5)" style="cursor: default;"><rect rx="4" ry="4" x="-5" y="0" height="16" width="47.40573501586914"/><text class="blocklyText" y="12.5" text-anchor="start" x="0">true<tspan style="fill: rgb(66, 165, 99);"> ▾</tspan></text></g></g><text class="blocklyText" y="12.5" transform="translate(10,5)">set</text><g class="blocklyEditableText" transform="translate(39.554622650146484,5)" style="cursor: default;"><rect rx="4" ry="4" x="-5" y="0" height="16" width="61.26288604736328"/><text class="blocklyText" y="12.5" text-anchor="start" x="0">action<tspan style="fill: rgb(165, 66, 157);"> ▾</tspan></text></g><text class="blocklyText" y="12.5" transform="translate(100.81750869750977,5)">to</text></g><g class="blocklyDraggable" transform="translate(0,65)"><path class="blocklyPathDark" transform="translate(1,1)" fill="#35844f" d="m 0,0 H 15 l 6,4 3,0 6,-4 H 78.5302906036377 v 5 c 0,10 -8,-8 -8,7.5 s 8,-2.5 8,7.5 v 16 H 78.5302906036377 l -6,4 -3,0 -6,-4 h -7 a 8,8 0 0,0 -8,8 v 13 a 8,8 0 0,0 8,8 H 78.5302906036377 v 10 H 29.5 l -6,4 -3,0 -6,-4 H 0 z&#10;"/><path class="blocklyPath" fill="#42a563" d="m 0,0 H 15 l 6,4 3,0 6,-4 H 78.5302906036377 v 5 c 0,10 -8,-8 -8,7.5 s 8,-2.5 8,7.5 v 16 H 78.5302906036377 l -6,4 -3,0 -6,-4 h -7 a 8,8 0 0,0 -8,8 v 13 a 8,8 0 0,0 8,8 H 78.5302906036377 v 10 H 29.5 l -6,4 -3,0 -6,-4 H 0 z&#10;"/><path class="blocklyPathLight" stroke="#7bc092" d="m 0.5,0.5 H 15 l 6,4 3,0 6,-4 H 78.0302906036377 M 78.0302906036377,0.5 M 73.5302906036377,19.3 l 3.68,-2.1 M 78.0302906036377,36.5 M 50.51988296355204,63.01040764008565 a 8.5,8.5 0 0,0 6.0104076400856545,2.4895923599143455 H 78.0302906036377 M 0.5,74.5 V 0.5&#10;"/><g class="blocklyDraggable" transform="translate(79.5302906036377,0)"><path class="blocklyPathDark" transform="translate(1,1)" fill="#35844f" d="m 0,0 H 20 H 340.8068084716797 v 36 H 0 V 20 c 0,-10 -8,8 -8,-7.5 s 8,2.5 8,-7.5 z&#10;M 150.0499038696289,5 h -134.0499038696289 v 5 c 0,10 -8,-8 -8,7.5 s 8,-2.5 8,7.5 v 7 h 134.0499038696289 z M 330.8068084716797,5 h -134.0499038696289 v 5 c 0,10 -8,-8 -8,7.5 s 8,-2.5 8,7.5 v 7 h 134.0499038696289 z"/><path class="blocklyPath" fill="#42a563" d="m 0,0 H 20 H 340.8068084716797 v 36 H 0 V 20 c 0,-10 -8,8 -8,-7.5 s 8,2.5 8,-7.5 z&#10;M 150.0499038696289,5 h -134.0499038696289 v 5 c 0,10 -8,-8 -8,7.5 s 8,-2.5 8,7.5 v 7 h 134.0499038696289 z M 330.8068084716797,5 h -134.0499038696289 v 5 c 0,10 -8,-8 -8,7.5 s 8,-2.5 8,7.5 v 7 h 134.0499038696289 z"/><path class="blocklyPathLight" stroke="#7bc092" d="m 0.5,0.5 H 19.5 M 19.5,0.5 H 340.3068084716797 M 0.5,35.5 V 18.5 m -7.36,-0.5 q -1.52,-5.5 0,-11 m 7.36,1 V 0.5 H 1&#10;M 150.5499038696289,5.5 v 27 h -134.0499038696289 M 10.9,24.3 l 3.68,-2.1 M 331.3068084716797,5.5 v 27 h -134.0499038696289 M 191.6569046020508,24.3 l 3.68,-2.1"/><g class="blocklyDraggable" transform="translate(17,6)"><path class="blocklyPathDark" transform="translate(1,1)" fill="#843549" d="m 0,0 H 80.97357559204102 v 5 c 0,10 -8,-8 -8,7.5 s 8,-2.5 8,7.5 v 5 H 0 V 20 c 0,-10 -8,8 -8,-7.5 s 8,2.5 8,-7.5 z&#10;"/><path class="blocklyPath" fill="#a5425b" d="m 0,0 H 80.97357559204102 v 5 c 0,10 -8,-8 -8,7.5 s 8,-2.5 8,7.5 v 5 H 0 V 20 c 0,-10 -8,8 -8,-7.5 s 8,2.5 8,-7.5 z&#10;"/><path class="blocklyPathLight" stroke="#c07b8c" d="m 0.5,0.5 H 80.47357559204102 M 80.47357559204102,0.5 M 75.97357559204102,19.3 l 3.68,-2.1 M 0.5,24.5 V 18.5 m -7.36,-0.5 q -1.52,-5.5 0,-11 m 7.36,1 V 0.5 H 1&#10;"/><g transform="translate(81.97357559204102,0)"><path class="blocklyPathDark" transform="translate(1,1)" fill="#dbb3bd" d="m 0,0 H 50.07632827758789 v 25 H 0 V 20 c 0,-10 -8,8 -8,-7.5 s 8,2.5 8,-7.5 z&#10;"/><path class="blocklyPath" fill="#dbb3bd" d="m 0,0 H 50.07632827758789 v 25 H 0 V 20 c 0,-10 -8,8 -8,-7.5 s 8,2.5 8,-7.5 z&#10;"/><path class="blocklyPathLight" d="m 0.5,0.5 H 49.57632827758789 M 49.57632827758789,0.5 M 0.5,24.5 V 18.5 m -7.36,-0.5 q -1.52,-5.5 0,-11 m 7.36,1 V 0.5 H 1&#10;" style="display: none;"/><g class="blocklyEditableText" transform="translate(10,5)" style="cursor: default;"><rect rx="4" ry="4" x="-5" y="0" height="16" width="40.07632827758789"/><text class="blocklyText" y="12.5" text-anchor="start" x="0">A5<tspan style="fill: rgb(165, 66, 91);"> ▾</tspan></text></g></g><text class="blocklyText" y="12.5" transform="translate(10,5)">read pin</text></g><g class="blocklyDraggable" transform="translate(197.75690460205078,6)"><path class="blocklyPathDark" transform="translate(1,1)" fill="#843549" d="m 0,0 H 80.97357559204102 v 5 c 0,10 -8,-8 -8,7.5 s 8,-2.5 8,7.5 v 5 H 0 V 20 c 0,-10 -8,8 -8,-7.5 s 8,2.5 8,-7.5 z&#10;"/><path class="blocklyPath" fill="#a5425b" d="m 0,0 H 80.97357559204102 v 5 c 0,10 -8,-8 -8,7.5 s 8,-2.5 8,7.5 v 5 H 0 V 20 c 0,-10 -8,8 -8,-7.5 s 8,2.5 8,-7.5 z&#10;"/><path class="blocklyPathLight" stroke="#c07b8c" d="m 0.5,0.5 H 80.47357559204102 M 80.47357559204102,0.5 M 75.97357559204102,19.3 l 3.68,-2.1 M 0.5,24.5 V 18.5 m -7.36,-0.5 q -1.52,-5.5 0,-11 m 7.36,1 V 0.5 H 1&#10;"/><g transform="translate(81.97357559204102,0)"><path class="blocklyPathDark" transform="translate(1,1)" fill="#dbb3bd" d="m 0,0 H 50.07632827758789 v 25 H 0 V 20 c 0,-10 -8,8 -8,-7.5 s 8,2.5 8,-7.5 z&#10;"/><path class="blocklyPath" fill="#dbb3bd" d="m 0,0 H 50.07632827758789 v 25 H 0 V 20 c 0,-10 -8,8 -8,-7.5 s 8,2.5 8,-7.5 z&#10;"/><path class="blocklyPathLight" d="m 0.5,0.5 H 49.57632827758789 M 49.57632827758789,0.5 M 0.5,24.5 V 18.5 m -7.36,-0.5 q -1.52,-5.5 0,-11 m 7.36,1 V 0.5 H 1&#10;" style="display: none;"/><g class="blocklyEditableText" transform="translate(10,5)" style="cursor: default;"><rect rx="4" ry="4" x="-5" y="0" height="16" width="40.07632827758789"/><text class="blocklyText" y="12.5" text-anchor="start" x="0">A4<tspan style="fill: rgb(165, 66, 91);"> ▾</tspan></text></g></g><text class="blocklyText" y="12.5" transform="translate(10,5)">read pin</text></g><g class="blocklyEditableText" transform="translate(160.0499038696289,10)" style="cursor: default;"><rect rx="4" ry="4" x="-5" y="0" height="16" width="30.707000732421875"/><text class="blocklyText" y="12.5" text-anchor="start" x="0">&gt;<tspan style="fill: rgb(66, 165, 99);"> ▾</tspan></text></g></g><g class="blocklyDraggable" transform="translate(49.530290603637695,37)"><path class="blocklyPathDark" transform="translate(1,1)" fill="#84357e" d="m 0,8 A 8,8 0 0,1 8,0 H 15 l 6,4 3,0 6,-4 H 131.042724609375 v 5 c 0,10 -8,-8 -8,7.5 s 8,-2.5 8,7.5 v 5 H 29.5 l -6,4 -3,0 -6,-4 H 8 a 8,8 0 0,1 -8,-8 z&#10;"/><path class="blocklyPath" fill="#a5429d" d="m 0,8 A 8,8 0 0,1 8,0 H 15 l 6,4 3,0 6,-4 H 131.042724609375 v 5 c 0,10 -8,-8 -8,7.5 s 8,-2.5 8,7.5 v 5 H 29.5 l -6,4 -3,0 -6,-4 H 8 a 8,8 0 0,1 -8,-8 z&#10;"/><path class="blocklyPathLight" stroke="#c07bba" d="m 0.5,7.5 A 7.5,7.5 0 0,1 8,0.5 H 15 l 6,4 3,0 6,-4 H 130.542724609375 M 130.542724609375,0.5 M 126.042724609375,19.3 l 3.68,-2.1 M 2.6966991411008934,22.303300858899107 A 7.5,7.5 0 0,1 0.5,17 V 8&#10;"/><g class="blocklyDraggable" transform="translate(132.042724609375,0)"><path class="blocklyPathDark" transform="translate(1,1)" fill="#35844f" d="m 0,0 H 57.40573501586914 v 25 H 0 V 20 c 0,-10 -8,8 -8,-7.5 s 8,2.5 8,-7.5 z&#10;"/><path class="blocklyPath" fill="#42a563" d="m 0,0 H 57.40573501586914 v 25 H 0 V 20 c 0,-10 -8,8 -8,-7.5 s 8,2.5 8,-7.5 z&#10;"/><path class="blocklyPathLight" stroke="#7bc092" d="m 0.5,0.5 H 56.90573501586914 M 56.90573501586914,0.5 M 0.5,24.5 V 18.5 m -7.36,-0.5 q -1.52,-5.5 0,-11 m 7.36,1 V 0.5 H 1&#10;"/><g class="blocklyEditableText" transform="translate(10,5)" style="cursor: default;"><rect rx="4" ry="4" x="-5" y="0" height="16" width="47.40573501586914"/><text class="blocklyText" y="12.5" text-anchor="start" x="0">true<tspan style="fill: rgb(66, 165, 99);"> ▾</tspan></text></g></g><text class="blocklyText" y="12.5" transform="translate(10,5)">set</text><g class="blocklyEditableText" transform="translate(39.554622650146484,5)" style="cursor: default;"><rect rx="4" ry="4" x="-5" y="0" height="16" width="61.26288604736328"/><text class="blocklyText" y="12.5" text-anchor="start" x="0">action<tspan style="fill: rgb(165, 66, 157);"> ▾</tspan></text></g><text class="blocklyText" y="12.5" transform="translate(100.81750869750977,5)">to</text></g><g class="blocklyDraggable" transform="translate(0,76)"><path class="blocklyPathDark" transform="translate(1,1)" fill="#35844f" d="m 0,0 H 15 l 6,4 3,0 6,-4 H 78.5302906036377 v 5 c 0,10 -8,-8 -8,7.5 s 8,-2.5 8,7.5 v 16 H 78.5302906036377 l -6,4 -3,0 -6,-4 h -7 a 8,8 0 0,0 -8,8 v 13 a 8,8 0 0,0 8,8 H 78.5302906036377 v 10 H 29.5 l -6,4 -3,0 -6,-4 H 0 z&#10;"/><path class="blocklyPath" fill="#42a563" d="m 0,0 H 15 l 6,4 3,0 6,-4 H 78.5302906036377 v 5 c 0,10 -8,-8 -8,7.5 s 8,-2.5 8,7.5 v 16 H 78.5302906036377 l -6,4 -3,0 -6,-4 h -7 a 8,8 0 0,0 -8,8 v 13 a 8,8 0 0,0 8,8 H 78.5302906036377 v 10 H 29.5 l -6,4 -3,0 -6,-4 H 0 z&#10;"/><path class="blocklyPathLight" stroke="#7bc092" d="m 0.5,0.5 H 15 l 6,4 3,0 6,-4 H 78.0302906036377 M 78.0302906036377,0.5 M 73.5302906036377,19.3 l 3.68,-2.1 M 78.0302906036377,36.5 M 50.51988296355204,63.01040764008565 a 8.5,8.5 0 0,0 6.0104076400856545,2.4895923599143455 H 78.0302906036377 M 0.5,74.5 V 0.5&#10;"/><g class="blocklyDraggable" transform="translate(79.5302906036377,0)"><path class="blocklyPathDark" transform="translate(1,1)" fill="#35844f" d="m 0,0 H 20 H 376.3235731124878 v 36 H 0 V 20 c 0,-10 -8,8 -8,-7.5 s 8,2.5 8,-7.5 z&#10;M 281.31149768829346,5 h -265.31149768829346 v 5 c 0,10 -8,-8 -8,7.5 s 8,-2.5 8,7.5 v 7 h 265.31149768829346 z M 366.3235731124878,5 h -38.30507469177246 v 5 c 0,10 -8,-8 -8,7.5 s 8,-2.5 8,7.5 v 7 h 38.30507469177246 z"/><path class="blocklyPath" fill="#42a563" d="m 0,0 H 20 H 376.3235731124878 v 36 H 0 V 20 c 0,-10 -8,8 -8,-7.5 s 8,2.5 8,-7.5 z&#10;M 281.31149768829346,5 h -265.31149768829346 v 5 c 0,10 -8,-8 -8,7.5 s 8,-2.5 8,7.5 v 7 h 265.31149768829346 z M 366.3235731124878,5 h -38.30507469177246 v 5 c 0,10 -8,-8 -8,7.5 s 8,-2.5 8,7.5 v 7 h 38.30507469177246 z"/><path class="blocklyPathLight" stroke="#7bc092" d="m 0.5,0.5 H 19.5 M 19.5,0.5 H 375.8235731124878 M 0.5,35.5 V 18.5 m -7.36,-0.5 q -1.52,-5.5 0,-11 m 7.36,1 V 0.5 H 1&#10;M 281.81149768829346,5.5 v 27 h -265.31149768829346 M 10.9,24.3 l 3.68,-2.1 M 366.8235731124878,5.5 v 27 h -38.30507469177246 M 322.9184984207153,24.3 l 3.68,-2.1"/><g class="blocklyDraggable" transform="translate(17,6)"><path class="blocklyPathDark" transform="translate(1,1)" fill="#844935" d="m 0,0 H 263.31149768829346 v 25 H 0 V 20 c 0,-10 -8,8 -8,-7.5 s 8,2.5 8,-7.5 z&#10;"/><path class="blocklyPath" fill="#a55b42" d="m 0,0 H 263.31149768829346 v 25 H 0 V 20 c 0,-10 -8,8 -8,-7.5 s 8,2.5 8,-7.5 z&#10;"/><path class="blocklyPathLight" stroke="#c08c7b" d="m 0.5,0.5 H 262.81149768829346 M 262.81149768829346,0.5 M 0.5,24.5 V 18.5 m -7.36,-0.5 q -1.52,-5.5 0,-11 m 7.36,1 V 0.5 H 1&#10;"/><text class="blocklyText" y="12.5" transform="translate(10,5)">read distance from</text><g class="blocklyEditableText" transform="translate(141.40045166015625,5)" style="cursor: default;"><rect rx="4" ry="4" x="-5" y="0" height="16" width="58.81500244140625"/><text class="blocklyText" y="12.5" text-anchor="start" x="0">sonar<tspan style="fill: rgb(165, 91, 66);"> ▾</tspan></text></g><text class="blocklyText" y="12.5" transform="translate(200.2154541015625,5)">in</text><g class="blocklyEditableText" transform="translate(221.62470149993896,5)" style="cursor: default;"><rect rx="4" ry="4" x="-5" y="0" height="16" width="41.68679618835449"/><text class="blocklyText" y="12.5" text-anchor="start" x="0">cm<tspan style="fill: rgb(165, 91, 66);"> ▾</tspan></text></g></g><g transform="translate(329.01849842071533,6)"><path class="blocklyPathDark" transform="translate(1,1)" fill="#b3c7db" d="m 0,0 H 36.30507469177246 v 25 H 0 V 20 c 0,-10 -8,8 -8,-7.5 s 8,2.5 8,-7.5 z&#10;"/><path class="blocklyPath" fill="#b3c7db" d="m 0,0 H 36.30507469177246 v 25 H 0 V 20 c 0,-10 -8,8 -8,-7.5 s 8,2.5 8,-7.5 z&#10;"/><path class="blocklyPathLight" d="m 0.5,0.5 H 35.80507469177246 M 35.80507469177246,0.5 M 0.5,24.5 V 18.5 m -7.36,-0.5 q -1.52,-5.5 0,-11 m 7.36,1 V 0.5 H 1&#10;" style="display: none;"/><g class="blocklyEditableText" transform="translate(10,5)" style="cursor: text;"><rect rx="4" ry="4" x="-5" y="0" height="16" width="26.30507469177246"/><text class="blocklyText" y="12.5">20</text></g></g><g class="blocklyEditableText" transform="translate(291.31149768829346,10)" style="cursor: default;"><rect rx="4" ry="4" x="-5" y="0" height="16" width="30.707000732421875"/><text class="blocklyText" y="12.5" text-anchor="start" x="0">&lt;<tspan style="fill: rgb(66, 165, 99);"> ▾</tspan></text></g></g><g class="blocklyDraggable" transform="translate(49.530290603637695,37)"><path class="blocklyPathDark" transform="translate(1,1)" fill="#84357e" d="m 0,8 A 8,8 0 0,1 8,0 H 15 l 6,4 3,0 6,-4 H 131.042724609375 v 5 c 0,10 -8,-8 -8,7.5 s 8,-2.5 8,7.5 v 5 H 29.5 l -6,4 -3,0 -6,-4 H 8 a 8,8 0 0,1 -8,-8 z&#10;"/><path class="blocklyPath" fill="#a5429d" d="m 0,8 A 8,8 0 0,1 8,0 H 15 l 6,4 3,0 6,-4 H 131.042724609375 v 5 c 0,10 -8,-8 -8,7.5 s 8,-2.5 8,7.5 v 5 H 29.5 l -6,4 -3,0 -6,-4 H 8 a 8,8 0 0,1 -8,-8 z&#10;"/><path class="blocklyPathLight" stroke="#c07bba" d="m 0.5,7.5 A 7.5,7.5 0 0,1 8,0.5 H 15 l 6,4 3,0 6,-4 H 130.542724609375 M 130.542724609375,0.5 M 126.042724609375,19.3 l 3.68,-2.1 M 2.6966991411008934,22.303300858899107 A 7.5,7.5 0 0,1 0.5,17 V 8&#10;"/><g class="blocklyDraggable" transform="translate(132.042724609375,0)"><path class="blocklyPathDark" transform="translate(1,1)" fill="#35844f" d="m 0,0 H 57.40573501586914 v 25 H 0 V 20 c 0,-10 -8,8 -8,-7.5 s 8,2.5 8,-7.5 z&#10;"/><path class="blocklyPath" fill="#42a563" d="m 0,0 H 57.40573501586914 v 25 H 0 V 20 c 0,-10 -8,8 -8,-7.5 s 8,2.5 8,-7.5 z&#10;"/><path class="blocklyPathLight" stroke="#7bc092" d="m 0.5,0.5 H 56.90573501586914 M 56.90573501586914,0.5 M 0.5,24.5 V 18.5 m -7.36,-0.5 q -1.52,-5.5 0,-11 m 7.36,1 V 0.5 H 1&#10;"/><g class="blocklyEditableText" transform="translate(10,5)" style="cursor: default;"><rect rx="4" ry="4" x="-5" y="0" height="16" width="47.40573501586914"/><text class="blocklyText" y="12.5" text-anchor="start" x="0">true<tspan style="fill: rgb(66, 165, 99);"> ▾</tspan></text></g></g><text class="blocklyText" y="12.5" transform="translate(10,5)">set</text><g class="blocklyEditableText" transform="translate(39.554622650146484,5)" style="cursor: default;"><rect rx="4" ry="4" x="-5" y="0" height="16" width="61.26288604736328"/><text class="blocklyText" y="12.5" text-anchor="start" x="0">action<tspan style="fill: rgb(165, 66, 157);"> ▾</tspan></text></g><text class="blocklyText" y="12.5" transform="translate(100.81750869750977,5)">to</text></g><g class="blocklyDraggable" transform="translate(0,76)"><path class="blocklyPathDark" transform="translate(1,1)" fill="#843549" d="m 0,0 H 15 l 6,4 3,0 6,-4 H 40 H 277.77575492858887 v 36 H 29.5 l -6,4 -3,0 -6,-4 H 8 a 8,8 0 0,1 -8,-8 z&#10;M 133.46914100646973,5 h -52.88513374328613 v 5 c 0,10 -8,-8 -8,7.5 s 8,-2.5 8,7.5 v 7 h 52.88513374328613 z M 267.77575492858887,5 h -73.26288604736328 v 5 c 0,10 -8,-8 -8,7.5 s 8,-2.5 8,7.5 v 7 h 73.26288604736328 z"/><path class="blocklyPath" fill="#a5425b" d="m 0,0 H 15 l 6,4 3,0 6,-4 H 40 H 277.77575492858887 v 36 H 29.5 l -6,4 -3,0 -6,-4 H 8 a 8,8 0 0,1 -8,-8 z&#10;M 133.46914100646973,5 h -52.88513374328613 v 5 c 0,10 -8,-8 -8,7.5 s 8,-2.5 8,7.5 v 7 h 52.88513374328613 z M 267.77575492858887,5 h -73.26288604736328 v 5 c 0,10 -8,-8 -8,7.5 s 8,-2.5 8,7.5 v 7 h 73.26288604736328 z"/><path class="blocklyPathLight" stroke="#c07b8c" d="m 0.5,0.5 H 15 l 6,4 3,0 6,-4 H 39.5 M 39.5,0.5 H 277.27575492858887 M 2.6966991411008934,33.30330085889911 A 7.5,7.5 0 0,1 0.5,28 V 0.5&#10;M 133.96914100646973,5.5 v 27 h -52.88513374328613 M 75.4840072631836,24.3 l 3.68,-2.1 M 268.27575492858887,5.5 v 27 h -73.26288604736328 M 189.4128688812256,24.3 l 3.68,-2.1"/><g transform="translate(81.5840072631836,6)"><path class="blocklyPathDark" transform="translate(1,1)" fill="#dbb3bd" d="m 0,0 H 50.88513374328613 v 25 H 0 V 20 c 0,-10 -8,8 -8,-7.5 s 8,2.5 8,-7.5 z&#10;"/><path class="blocklyPath" fill="#dbb3bd" d="m 0,0 H 50.88513374328613 v 25 H 0 V 20 c 0,-10 -8,8 -8,-7.5 s 8,2.5 8,-7.5 z&#10;"/><path class="blocklyPathLight" d="m 0.5,0.5 H 50.38513374328613 M 50.38513374328613,0.5 M 0.5,24.5 V 18.5 m -7.36,-0.5 q -1.52,-5.5 0,-11 m 7.36,1 V 0.5 H 1&#10;" style="display: none;"/><g class="blocklyEditableText" transform="translate(10,5)" style="cursor: default;"><rect rx="4" ry="4" x="-5" y="0" height="16" width="40.88513374328613"/><text class="blocklyText" y="12.5" text-anchor="start" x="0">D8<tspan style="fill: rgb(165, 66, 91);"> ▾</tspan></text></g></g><g class="blocklyDraggable" transform="translate(195.5128688812256,6)"><path class="blocklyPathDark" transform="translate(1,1)" fill="#84357e" d="m 0,0 H 71.26288604736328 v 25 H 0 V 20 c 0,-10 -8,8 -8,-7.5 s 8,2.5 8,-7.5 z&#10;"/><path class="blocklyPath" fill="#a5429d" d="m 0,0 H 71.26288604736328 v 25 H 0 V 20 c 0,-10 -8,8 -8,-7.5 s 8,2.5 8,-7.5 z&#10;"/><path class="blocklyPathLight" stroke="#c07bba" d="m 0.5,0.5 H 70.76288604736328 M 70.76288604736328,0.5 M 0.5,24.5 V 18.5 m -7.36,-0.5 q -1.52,-5.5 0,-11 m 7.36,1 V 0.5 H 1&#10;"/><g class="blocklyEditableText" transform="translate(10,5)" style="cursor: default;"><rect rx="4" ry="4" x="-5" y="0" height="16" width="61.26288604736328"/><text class="blocklyText" y="12.5" text-anchor="start" x="0">action<tspan style="fill: rgb(165, 66, 157);"> ▾</tspan></text></g></g><text class="blocklyText" y="12.5" transform="translate(10,10)">write pin</text><text class="blocklyText" y="12.5" transform="translate(143.46914100646973,10)">value</text></g><text class="blocklyText" y="12.5" transform="translate(10,5)">if</text><text class="blocklyText" y="12.5" transform="translate(10,41)">then</text></g><text class="blocklyText" y="12.5" transform="translate(10,5)">if</text><text class="blocklyText" y="12.5" transform="translate(10,41)">then</text></g><text class="blocklyText" y="12.5" transform="translate(10,5)">if</text><text class="blocklyText" y="12.5" transform="translate(10,30)">then</text></g><text class="blocklyText" y="12.5" transform="translate(10,5)">set</text><g class="blocklyEditableText" transform="translate(39.554622650146484,5)" style="cursor: default;"><rect rx="4" ry="4" x="-5" y="0" height="16" width="61.26288604736328"/><text class="blocklyText" y="12.5" text-anchor="start" x="0">action<tspan style="fill: rgb(165, 66, 157);"> ▾</tspan></text></g><text class="blocklyText" y="12.5" transform="translate(100.81750869750977,5)">to</text></g><text class="blocklyText" y="12.5" transform="translate(10,5)">timer named</text><g class="blocklyEditableText" transform="translate(101.46807098388672,5)" style="cursor: text;"><rect rx="4" ry="4" x="-5" y="0" height="16" width="37.71432304382324"/><text class="blocklyText" y="12.5">loop</text></g><text class="blocklyText" y="12.5" transform="translate(10,30)">running</text><g class="blocklyEditableText" transform="translate(68.90089797973633,30)" style="cursor: text;"><rect rx="4" ry="4" x="-5" y="0" height="16" width="42.61014938354492"/><text class="blocklyText" y="12.5">1000</text></g><text class="blocklyText" y="12.5" transform="translate(111.51104736328125,30)">times per</text><g class="blocklyEditableText" transform="translate(181.79254150390625,30)" style="cursor: default;"><rect rx="4" ry="4" x="-5" y="0" height="16" width="69.41544342041016"/><text class="blocklyText" y="12.5" text-anchor="start" x="0">second<tspan style="fill: rgb(66, 165, 157);"> ▾</tspan></text></g><text class="blocklyText" y="12.5" transform="translate(10,55)">initial state</text><g class="blocklyEditableText" transform="translate(89.25711059570312,55)" style="cursor: default;"><rect rx="4" ry="4" x="-5" y="0" height="16" width="66.96035766601562"/><text class="blocklyText" y="12.5" text-anchor="start" x="0">started<tspan style="fill: rgb(66, 165, 157);"> ▾</tspan></text></g></g></g></svg>